<?xml version="1.0" encoding="utf-8"?>
<!-- Generator: Adobe Illustrator 19.2.0, SVG Export Plug-In . SVG Version: 6.00 Build 0)  -->
<svg version="1.1" id="Capa_1" xmlns="http://www.w3.org/2000/svg" xmlns:xlink="http://www.w3.org/1999/xlink" x="0px" y="0px"
	 viewBox="0 0 1050.8 234.5" style="enable-background:new 0 0 1050.8 234.5;" xml:space="preserve">
<style type="text/css">
	.st0{fill:none;stroke:#2C5F70;stroke-width:1.5344;stroke-miterlimit:10;}
	.st1{font-family:'AntipastoPro-DemiBold';}
	.st2{font-size:10.2367px;}
	.st3{font-size:9.2259px;}
</style>
<g>
	<g>
		<path class="st0" d="M150.3,82.2c0.9-1.5,1.5-3.2,1.5-5c0-5.2-4.2-9.5-9.5-9.5c-5.2,0-9.5,4.2-9.5,9.5c0,5.2,4.2,9.5,9.5,9.5
			c1.5,0,2.9-0.4,4.2-1c1.9,1.5,4.5,1.3,6.2-0.4c0.1-0.1,0.2-0.2,0.3-0.3L150.3,82.2z"/>
		<path class="st0" d="M131,73.9c-5.2,0-9.5,4.2-9.5,9.5c0,1.9,0.5,3.6,1.5,5l-2.7,2.7c0.1,0.1,0.2,0.2,0.3,0.3
			c1.7,1.7,4.4,1.8,6.2,0.4c1.3,0.6,2.7,1,4.2,1c5.2,0,9.5-4.2,9.5-9.5C140.5,78.1,136.3,73.9,131,73.9z"/>
		<g>
			<circle class="st0" cx="126.8" cy="83.7" r="1.1"/>
			<circle class="st0" cx="131" cy="83.7" r="1.1"/>
			<circle class="st0" cx="135.2" cy="83.7" r="1.1"/>
		</g>
		<g>
			<circle class="st0" cx="138.7" cy="77.1" r="0.9"/>
			<circle class="st0" cx="142" cy="77.1" r="0.9"/>
			<circle class="st0" cx="145.3" cy="77.1" r="0.9"/>
		</g>
	</g>
	<path class="st0" d="M63.7,32.1c-3.8,0-6.8,3.1-6.8,6.8c0,1.3,0.4,2.6,1.1,3.6l-2,2c0.1,0.1,0.1,0.1,0.2,0.2
		c1.2,1.2,3.2,1.3,4.5,0.3c0.9,0.5,2,0.7,3.1,0.7c3.8,0,6.8-3.1,6.8-6.8S67.5,32.1,63.7,32.1z"/>
	<path class="st0" d="M53.1,27.6c3.8,0,6.8,3.1,6.8,6.8c0,1.3-0.4,2.6-1.1,3.6l2,2c-0.1,0.1-0.1,0.1-0.2,0.2
		c-1.2,1.2-3.2,1.3-4.5,0.3c-0.9,0.5-2,0.7-3.1,0.7c-3.8,0-6.8-3.1-6.8-6.8S49.3,27.6,53.1,27.6z"/>
	<g>
		<path class="st0" d="M443.5,71.3c0,4.8-3.9,8.6-8.6,8.6c-4.8,0-8.6-3.9-8.6-8.6s3.9-12.4,8.6-12.4
			C439.7,58.9,443.5,66.5,443.5,71.3z"/>
		<path class="st0" d="M439.6,58.4l0.9-4.5c0.2-0.9-0.6-1.7-1.4-1.5l-3,1c-0.8,0.3-1.6,0.3-2.4,0l-3.1-1c-0.8-0.3-1.6,0.5-1.4,1.5
			l0.9,4.5"/>
		<path class="st0" d="M439.2,61.4h-8.5c-0.8,0-1.5-0.7-1.5-1.5l0,0c0-0.8,0.7-1.5,1.5-1.5h8.5c0.8,0,1.5,0.7,1.5,1.5l0,0
			C440.6,60.8,440,61.4,439.2,61.4z"/>
		<text transform="matrix(1 0 0 1 432.3615 74.1699)" class="st0 st1 st2">$</text>
	</g>
	<g>
		<path class="st0" d="M313.4,50.2c0,4.8-3.9,8.6-8.6,8.6c-4.8,0-8.6-3.9-8.6-8.6s3.9-12.4,8.6-12.4
			C309.5,37.7,313.4,45.4,313.4,50.2z"/>
		<path class="st0" d="M309.5,37.3l0.9-4.5c0.2-0.9-0.6-1.7-1.4-1.5l-3,1c-0.8,0.3-1.6,0.3-2.4,0l-3.1-1c-0.8-0.3-1.6,0.5-1.4,1.5
			l0.9,4.5"/>
		<path class="st0" d="M309,40.3h-8.5c-0.8,0-1.5-0.7-1.5-1.5l0,0c0-0.8,0.7-1.5,1.5-1.5h8.5c0.8,0,1.5,0.7,1.5,1.5l0,0
			C310.5,39.6,309.8,40.3,309,40.3z"/>
		<text transform="matrix(1 0 0 1 302.174 53.0625)" class="st0 st1 st2">$</text>
	</g>
	<g>
		<path class="st0" d="M96.1,71.7H70.6c-1.1,0-2-0.9-2-2V49.3c0-1.1,0.9-2,2-2h25.5c1.1,0,2,0.9,2,2v20.4
			C98.1,70.8,97.2,71.7,96.1,71.7z"/>
		<line class="st0" x1="68.6" y1="65.2" x2="98.1" y2="65.2"/>
		<circle class="st0" cx="83.4" cy="68.6" r="1.2"/>
		<rect x="79.8" y="71.7" class="st0" width="7.1" height="3.8"/>
		<path class="st0" d="M90.1,78.7H76.6c-0.7,0-1.2-0.5-1.2-1.2v-0.8c0-0.7,0.5-1.2,1.2-1.2h13.5c0.7,0,1.2,0.5,1.2,1.2v0.8
			C91.3,78.1,90.7,78.7,90.1,78.7z"/>
	</g>
	<g>
		<path class="st0" d="M531.7,75.1h-25.5c-1.1,0-2-0.9-2-2V52.8c0-1.1,0.9-2,2-2h25.5c1.1,0,2,0.9,2,2v20.4
			C533.7,74.2,532.8,75.1,531.7,75.1z"/>
		<line class="st0" x1="504.3" y1="68.7" x2="533.7" y2="68.7"/>
		<circle class="st0" cx="519" cy="72.1" r="1.2"/>
		<rect x="515.5" y="75.1" class="st0" width="7.1" height="3.8"/>
		<path class="st0" d="M525.7,82.1h-13.5c-0.7,0-1.2-0.5-1.2-1.2v-0.8c0-0.7,0.5-1.2,1.2-1.2h13.5c0.7,0,1.2,0.5,1.2,1.2v0.8
			C526.9,81.6,526.4,82.1,525.7,82.1z"/>
	</g>
	<g>
		<path class="st0" d="M103.6,97.2c-0.5,0-1-0.2-1.3-0.6l-6-6c-0.7-0.7-0.7-1.9,0-2.7c0.7-0.7,1.9-0.7,2.7,0l4.5,4.5l7-9
			c0.6-0.8,1.8-1,2.7-0.3c0.8,0.6,1,1.8,0.3,2.7l-8.3,10.7c-0.3,0.4-0.8,0.7-1.4,0.7C103.6,97.2,103.6,97.2,103.6,97.2z"/>
	</g>
	<g>
		<path class="st0" d="M234.5,65.9c-0.5,0-1-0.2-1.3-0.6l-6-6c-0.7-0.7-0.7-1.9,0-2.7c0.7-0.7,1.9-0.7,2.7,0l4.5,4.5l7-9
			c0.6-0.8,1.8-1,2.7-0.3c0.8,0.6,1,1.8,0.3,2.7L236,65.2c-0.3,0.4-0.8,0.7-1.4,0.7C234.6,65.9,234.5,65.9,234.5,65.9z"/>
	</g>
	<g>
		<path class="st0" d="M287.5,99.4c-0.5,0-1-0.2-1.3-0.6l-6-6c-0.7-0.7-0.7-1.9,0-2.7c0.7-0.7,1.9-0.7,2.7,0l4.5,4.5l7-9
			c0.6-0.8,1.8-1,2.7-0.3c0.8,0.6,1,1.8,0.3,2.7L289,98.6c-0.3,0.4-0.8,0.7-1.4,0.7C287.6,99.4,287.5,99.4,287.5,99.4z"/>
	</g>
	<g>
		<rect x="187.6" y="107.6" class="st0" width="4" height="11.4"/>
		<rect x="195.3" y="104.6" class="st0" width="4" height="14.5"/>
		<rect x="203" y="101.3" class="st0" width="4" height="17.7"/>
		<rect x="210.8" y="96.3" class="st0" width="4" height="22.7"/>
		<path class="st0" d="M214.5,85.1c-6.4,7.6-12.4,14.4-26.9,14.4"/>
		<polyline class="st0" points="209.9,85.1 214.5,85.1 214.5,89.8 		"/>
	</g>
	<g>
		
			<rect x="284.2" y="46.6" transform="matrix(-1 -1.224647e-016 1.224647e-016 -1 571.6651 102.5758)" class="st0" width="3.3" height="9.3"/>
		
			<rect x="277.9" y="44.1" transform="matrix(-1 -1.224647e-016 1.224647e-016 -1 558.9792 100.0428)" class="st0" width="3.3" height="11.9"/>
		
			<rect x="271.5" y="41.4" transform="matrix(-1 -1.224647e-016 1.224647e-016 -1 546.2935 97.3466)" class="st0" width="3.3" height="14.6"/>
		
			<rect x="265.2" y="37.3" transform="matrix(-1 -1.224647e-016 1.224647e-016 -1 533.6076 93.234)" class="st0" width="3.3" height="18.7"/>
		<path class="st0" d="M265.3,28.1c5.2,6.2,10.2,11.8,22.1,11.8"/>
		<polyline class="st0" points="269.1,28.1 265.3,28.1 265.3,31.9 		"/>
	</g>
	<path class="st0" d="M327.1,32.8c-3.7,0-6.7,3-6.7,6.7c0,4,6.7,13.4,6.7,13.4s6.7-9.5,6.7-13.4C333.8,35.8,330.8,32.8,327.1,32.8z
		 M327.1,41.3c-1.4,0-2.5-1.1-2.5-2.5s1.1-2.5,2.5-2.5c1.4,0,2.5,1.1,2.5,2.5S328.5,41.3,327.1,41.3z"/>
	<path class="st0" d="M207.4,57.6c-3.7,0-6.7,3-6.7,6.7c0,4,6.7,13.4,6.7,13.4s6.7-9.5,6.7-13.4C214,60.6,211,57.6,207.4,57.6z
		 M207.4,66.1c-1.4,0-2.5-1.1-2.5-2.5c0-1.4,1.1-2.5,2.5-2.5c1.4,0,2.5,1.1,2.5,2.5C209.9,64.9,208.7,66.1,207.4,66.1z"/>
	<path class="st0" d="M44,51c-3.7,0-6.7,3-6.7,6.7c0,4,6.7,13.4,6.7,13.4s6.7-9.5,6.7-13.4C50.7,54,47.7,51,44,51z M44,59.5
		c-1.4,0-2.5-1.1-2.5-2.5s1.1-2.5,2.5-2.5c1.4,0,2.5,1.1,2.5,2.5S45.4,59.5,44,59.5z"/>
	<path class="st0" d="M475.7,96.3c-3.7,0-6.7,3-6.7,6.7c0,4,6.7,13.4,6.7,13.4s6.7-9.5,6.7-13.4C482.4,99.3,479.4,96.3,475.7,96.3z
		 M475.7,104.7c-1.4,0-2.5-1.1-2.5-2.5c0-1.4,1.1-2.5,2.5-2.5c1.4,0,2.5,1.1,2.5,2.5C478.2,103.6,477.1,104.7,475.7,104.7z"/>
	<path class="st0" d="M310.5,68.7c-3.7,0-6.7,3-6.7,6.7c0,4,6.7,13.4,6.7,13.4s6.7-9.5,6.7-13.4C317.1,71.6,314.2,68.7,310.5,68.7z
		 M310.5,77.1c-1.4,0-2.5-1.1-2.5-2.5c0-1.4,1.1-2.5,2.5-2.5c1.4,0,2.5,1.1,2.5,2.5C313,76,311.8,77.1,310.5,77.1z"/>
	<g>
		<g>
			<path class="st0" d="M415,92.7v5.4c0,2.6,2.1,4.6,4.6,4.6h9l7,5.1l-0.4-5.1c2.6,0,4.6-2.1,4.6-4.6v-5.4c0-2.6-2.1-4.6-4.6-4.6
				h-15.6C417.1,88.1,415,90.2,415,92.7z"/>
			<line class="st0" x1="432.5" y1="92.1" x2="420" y2="92.1"/>
			<line class="st0" x1="435.6" y1="98.5" x2="426.7" y2="98.5"/>
			<line class="st0" x1="435.6" y1="95.3" x2="429.4" y2="95.3"/>
			<line class="st0" x1="424.4" y1="95.3" x2="420.4" y2="95.3"/>
		</g>
		<g>
			<path class="st0" d="M423.2,99.5v6.4c0,3-2.5,5.5-5.5,5.5h-10.6l-8.2,6l0.4-6c-3,0-5.5-2.5-5.5-5.5v-6.4c0-3,2.5-5.5,5.5-5.5
				h18.4C420.7,94,423.2,96.4,423.2,99.5z"/>
			<line class="st0" x1="402.5" y1="98.7" x2="417.2" y2="98.7"/>
			<line class="st0" x1="398.8" y1="106.3" x2="409.3" y2="106.3"/>
			<line class="st0" x1="398.8" y1="102.5" x2="406.2" y2="102.5"/>
			<line class="st0" x1="412.1" y1="102.5" x2="416.8" y2="102.5"/>
		</g>
	</g>
	<g>
		<g>
			<path class="st0" d="M246.6,73.9v5.4c0,2.6,2.1,4.6,4.6,4.6h9l7,5.1l-0.4-5.1c2.6,0,4.6-2.1,4.6-4.6v-5.4c0-2.6-2.1-4.6-4.6-4.6
				h-15.6C248.6,69.2,246.6,71.3,246.6,73.9z"/>
			<line class="st0" x1="264" y1="73.2" x2="251.6" y2="73.2"/>
			<line class="st0" x1="267.1" y1="79.7" x2="258.3" y2="79.7"/>
			<line class="st0" x1="267.1" y1="76.5" x2="260.9" y2="76.5"/>
			<line class="st0" x1="255.9" y1="76.5" x2="252" y2="76.5"/>
		</g>
		<g>
			<path class="st0" d="M254.7,80.6V87c0,3-2.5,5.5-5.5,5.5h-10.6l-8.2,6l0.4-6c-3,0-5.5-2.5-5.5-5.5v-6.4c0-3,2.5-5.5,5.5-5.5h18.4
				C252.2,75.1,254.7,77.6,254.7,80.6z"/>
			<line class="st0" x1="234.1" y1="79.8" x2="248.8" y2="79.8"/>
			<line class="st0" x1="230.4" y1="87.4" x2="240.9" y2="87.4"/>
			<line class="st0" x1="230.4" y1="83.6" x2="237.8" y2="83.6"/>
			<line class="st0" x1="243.6" y1="83.6" x2="248.3" y2="83.6"/>
		</g>
	</g>
	<g>
		<circle class="st0" cx="63.5" cy="91.5" r="13.1"/>
		<circle class="st0" cx="63.5" cy="91.5" r="9.6"/>
		<line class="st0" x1="63.5" y1="78.4" x2="63.5" y2="81.9"/>
		<line class="st0" x1="74.7" y1="84.8" x2="71.8" y2="86.6"/>
		<line class="st0" x1="55.2" y1="86.8" x2="52.2" y2="84.9"/>
		<line class="st0" x1="53.9" y1="82.6" x2="56.4" y2="85.1"/>
		<text transform="matrix(1 0 0 1 60.2258 94.3867)" class="st0 st1 st3">%</text>
	</g>
	<g>
		<circle class="st0" cx="520.1" cy="23.3" r="13.1"/>
		<circle class="st0" cx="520.1" cy="23.3" r="9.6"/>
		<line class="st0" x1="520.1" y1="10.2" x2="520.1" y2="13.7"/>
		<line class="st0" x1="531.4" y1="16.6" x2="528.4" y2="18.4"/>
		<line class="st0" x1="511.8" y1="18.6" x2="508.9" y2="16.7"/>
		<line class="st0" x1="510.6" y1="14.4" x2="513" y2="16.9"/>
		<text transform="matrix(1 0 0 1 516.8605 26.1719)" class="st0 st1 st3">%</text>
	</g>
	<g>
		<g>
			<path class="st0" d="M127.6,113v21.5h0.1c1.8,0,3.2-1.3,3.5-3l2.7-18.9"/>
			<g>
				<circle class="st0" cx="141.8" cy="107.8" r="4.4"/>
				<path class="st0" d="M139.4,98.4v18.9c0-1.2-0.5-2.3-1.3-3.1c-0.8-0.8-1.9-1.3-3.1-1.3h-7.9c-2.8,0-5.1-2.3-5.1-5
					c0-1.4,0.6-2.7,1.5-3.6c0.9-0.9,2.2-1.5,3.6-1.5h7.9C137.4,102.8,139.4,100.8,139.4,98.4z"/>
				<line class="st0" x1="130.2" y1="102.8" x2="130.2" y2="112.6"/>
				<path class="st0" d="M140.6,119.3L140.6,119.3c-0.7,0-1.2-0.5-1.2-1.2V97.2c0-0.7,0.5-1.2,1.2-1.2l0,0c0.7,0,1.2,0.5,1.2,1.2
					v20.9C141.8,118.7,141.2,119.3,140.6,119.3z"/>
			</g>
		</g>
		<g>
			<g>
				<line class="st0" x1="156.4" y1="95.1" x2="160.3" y2="92.1"/>
				<line class="st0" x1="147.3" y1="101.9" x2="153" y2="97.7"/>
			</g>
			<g>
				<line class="st0" x1="152.8" y1="103.4" x2="148.5" y2="105.6"/>
				<line class="st0" x1="163" y1="98.3" x2="156.6" y2="101.5"/>
			</g>
			<g>
				<line class="st0" x1="156.4" y1="120.2" x2="160.3" y2="123.2"/>
				<line class="st0" x1="147.3" y1="113.3" x2="153" y2="117.6"/>
			</g>
			<g>
				<line class="st0" x1="152.8" y1="111.9" x2="148.5" y2="109.7"/>
				<line class="st0" x1="163" y1="117" x2="156.6" y2="113.8"/>
			</g>
			<line class="st0" x1="151.3" y1="107.7" x2="153.9" y2="107.7"/>
			<line class="st0" x1="156.6" y1="107.7" x2="162.1" y2="107.7"/>
			<line class="st0" x1="165.5" y1="107.7" x2="167.7" y2="107.7"/>
		</g>
	</g>
	<g>
		<g>
			<path class="st0" d="M389.3,69.8L389.3,69.8c-0.9,0-1.6-0.7-1.6-1.6v-6.4c0-0.9,0.7-1.6,1.6-1.6l0,0c0.9,0,1.6,0.7,1.6,1.6v6.4
				C391,69,390.2,69.8,389.3,69.8z"/>
			<path class="st0" d="M414.7,69.8L414.7,69.8c-0.9,0-1.6-0.7-1.6-1.6v-6.4c0-0.9,0.7-1.6,1.6-1.6l0,0c0.9,0,1.6,0.7,1.6,1.6v6.4
				C416.4,69,415.6,69.8,414.7,69.8z"/>
		</g>
		<path class="st0" d="M389.3,60.1c0-7,5.7-12.7,12.7-12.7s12.7,5.7,12.7,12.7"/>
		<g>
			<path class="st0" d="M413.7,69.8l-1.6,4.2c-1.4,3.6-5.3,5.6-9,4.5l0,0"/>
			<circle class="st0" cx="402" cy="77.8" r="1.9"/>
		</g>
	</g>
	<g>
		<path class="st0" d="M283.3,129v1.8c0,1.7,1.4,3,3,3h19.7"/>
		<path class="st0" d="M289,129v-22.4h19.8v24.5c0,1.5-1.2,2.7-2.7,2.7h0c-1.5,0-2.7-1.2-2.7-2.7V129h-20l0,0"/>
		<g>
			<line class="st0" x1="292.7" y1="111.7" x2="303.4" y2="111.7"/>
			<line class="st0" x1="292.7" y1="122.4" x2="303.4" y2="122.4"/>
			<line class="st0" x1="292.7" y1="118.8" x2="303.4" y2="118.8"/>
			<line class="st0" x1="292.7" y1="115.3" x2="300" y2="115.3"/>
		</g>
	</g>
	<g>
		<path class="st0" d="M493.6,53.8h-31.2c-1,0-1.8-0.8-1.8-1.8V34.5c0-1,0.8-1.8,1.8-1.8h31.2c1,0,1.8,0.8,1.8,1.8v17.4
			C495.4,52.9,494.6,53.8,493.6,53.8z"/>
		<line class="st0" x1="464.3" y1="49.5" x2="473.3" y2="49.5"/>
		<line class="st0" x1="477.6" y1="49.5" x2="484.2" y2="49.5"/>
		<line class="st0" x1="488.5" y1="49.5" x2="491.8" y2="49.5"/>
		<g>
			<rect x="465.1" y="37.3" class="st0" width="6.2" height="6.2"/>
			<line class="st0" x1="469.3" y1="37.3" x2="469.3" y2="39.8"/>
			<line class="st0" x1="467.1" y1="40.4" x2="467.1" y2="42.9"/>
		</g>
		<line class="st0" x1="491.8" y1="32.7" x2="491.8" y2="53.8"/>
	</g>
	<g>
		<path class="st0" d="M28.5,98H-2.7c-1,0-1.8-0.8-1.8-1.8V78.7c0-1,0.8-1.8,1.8-1.8h31.2c1,0,1.8,0.8,1.8,1.8v17.4
			C30.3,97.2,29.5,98,28.5,98z"/>
		<line class="st0" x1="-0.8" y1="93.7" x2="8.2" y2="93.7"/>
		<line class="st0" x1="12.4" y1="93.7" x2="19.1" y2="93.7"/>
		<line class="st0" x1="23.3" y1="93.7" x2="26.7" y2="93.7"/>
		<g>
			<rect y="81.6" class="st0" width="6.2" height="6.2"/>
			<line class="st0" x1="4.2" y1="81.6" x2="4.2" y2="84"/>
			<line class="st0" x1="1.9" y1="84.7" x2="1.9" y2="87.1"/>
		</g>
		<line class="st0" x1="26.7" y1="76.9" x2="26.7" y2="98"/>
	</g>
	<path class="st0" d="M341,65.8l1.2,2.8c0.4,0.9,1.2,1.5,2.2,1.5c0.2-0.3,0.5-0.6,0.9-0.8c0.4-0.2,0.8-0.2,1.2-0.1
		c0.6,0.1,1.1,0.5,1.4,1.1l1.2,2.8c0.4,1,0,2.1-1,2.6l-0.6,0.3c-2.9,1.2-6.2-0.1-7.5-3l-3.7-8.5c-1.2-2.9,0.1-6.2,3-7.5l0.6-0.3
		c1-0.4,2.1,0,2.6,1l1.2,2.8c0.3,0.6,0.2,1.3-0.1,1.8c-0.2,0.3-0.5,0.6-0.9,0.8c-0.4,0.2-0.8,0.2-1.2,0.1
		C340.8,63.9,340.6,64.9,341,65.8z"/>
	<g>
		<g>
			<path class="st0" d="M365.7,81C365.6,81,365.6,81,365.7,81l1.3,8.7l6.8-5.6C371.7,82.2,368.8,81,365.7,81z"/>
			<path class="st0" d="M353.6,91.3h9.9l-1.6-9.8C357.6,83,354.3,86.8,353.6,91.3z"/>
			<path class="st0" d="M371,91.3h6.7c-0.2-1.5-0.8-3-1.5-4.3L371,91.3z"/>
			<path class="st0" d="M365.7,105.5C365.7,105.5,365.7,105.5,365.7,105.5l-1.4-9l-7.5,5.2C359,104,362.2,105.5,365.7,105.5z"/>
			<path class="st0" d="M377.7,95.1h-9.9l1.6,9.8C373.8,103.5,377,99.7,377.7,95.1z"/>
		</g>
		<g>
			<polyline class="st0" points="353.5,94.6 352.1,97.3 354.8,98.7 			"/>
			<line class="st0" x1="353.4" y1="96.8" x2="363.2" y2="94.3"/>
		</g>
	</g>
	<g>
		<circle class="st0" cx="461" cy="88.6" r="1.9"/>
		<circle class="st0" cx="475.7" cy="87.6" r="1.6"/>
		<polygon class="st0" points="476.2,77.6 460.6,77.6 458.2,67.5 478.7,67.5 		"/>
		<path class="st0" d="M461.2,88.4l2.4-2.4h13.1c1.1,0,2-0.9,2-2l0,0c0-1.1-0.9-2-2-2h-15l-5.1-21.5h-4.9"/>
		<line class="st0" x1="459.1" y1="70.7" x2="472.1" y2="70.7"/>
		<line class="st0" x1="459.8" y1="74.1" x2="468.4" y2="74.1"/>
	</g>
	<g>
		<circle class="st0" cx="254.1" cy="133.3" r="1.9"/>
		<circle class="st0" cx="268.9" cy="132.4" r="1.6"/>
		<polygon class="st0" points="269.3,122.3 253.7,122.3 251.3,112.2 271.8,112.2 		"/>
		<path class="st0" d="M254.3,133.1l2.4-2.4h13.1c1.1,0,2-0.9,2-2v0c0-1.1-0.9-2-2-2h-15l-5.1-21.5h-4.9"/>
		<line class="st0" x1="252.2" y1="115.5" x2="265.2" y2="115.5"/>
		<line class="st0" x1="252.9" y1="118.8" x2="261.6" y2="118.8"/>
	</g>
	<g>
		<circle class="st0" cx="20.3" cy="58" r="1.9"/>
		<circle class="st0" cx="5.6" cy="57" r="1.6"/>
		<polygon class="st0" points="5.1,47 20.7,47 23.1,36.9 2.7,36.9 		"/>
		<path class="st0" d="M20.2,57.7l-2.4-2.4H4.7c-1.1,0-2-0.9-2-2l0,0c0-1.1,0.9-2,2-2h15l5.1-21.5h4.9"/>
		<line class="st0" x1="22.3" y1="40.1" x2="9.2" y2="40.1"/>
		<line class="st0" x1="21.5" y1="43.5" x2="12.9" y2="43.5"/>
	</g>
	<g>
		<path class="st0" d="M183.7,67.2l3.3-0.4l-0.5-3.9l-3.3,0.4c-0.1-0.3-0.2-0.7-0.4-1l2.7-1.9l-2.2-3.2l-2.7,1.9
			c-0.2-0.2-0.5-0.5-0.8-0.7l1.5-3l-3.5-1.8l-1.5,3c-0.5-0.1-1-0.2-1.5-0.3v-3.6h-3.9v3.8c-0.4,0.1-0.7,0.2-1.1,0.3l-1.7-2.9l-3.4,2
			l1.7,2.9c-0.3,0.2-0.5,0.5-0.7,0.7l-2.8-1.8l-2.1,3.3l2.8,1.8c-0.1,0.3-0.2,0.7-0.3,1l-3.3-0.3l-0.3,3.9l3.3,0.3
			c0,0.4,0.1,0.7,0.2,1l-3.1,1.3l1.5,3.6l3.1-1.3c0.2,0.3,0.4,0.6,0.6,0.8l-2.1,2.6l3,2.5l2.1-2.6c0.3,0.2,0.6,0.3,0.9,0.5l-0.7,3.3
			l3.8,0.8l0.7-3.3c0.1,0,0.2,0,0.2,0c0.3,0,0.5,0,0.8,0l0.9,3.2l3.8-1l-0.9-3.2c0.3-0.2,0.6-0.3,0.9-0.5l2.3,2.4l2.9-2.6l-2.3-2.4
			c0.2-0.3,0.4-0.6,0.6-0.9l3.1,1.1l1.3-3.7l-3.1-1.1C183.6,67.9,183.7,67.6,183.7,67.2z M173.3,72.2c-3.1,0-5.5-2.5-5.5-5.5
			c0-3.1,2.5-5.5,5.5-5.5c3.1,0,5.5,2.5,5.5,5.5C178.9,69.7,176.4,72.2,173.3,72.2z"/>
		<circle class="st0" cx="173.3" cy="66.6" r="5.5"/>
	</g>
	<g>
		<path class="st0" d="M333.5,102.1l2.6-0.3l-0.4-3l-2.6,0.3c-0.1-0.3-0.2-0.5-0.3-0.8l2.1-1.5l-1.8-2.5l-2.1,1.5
			c-0.2-0.2-0.4-0.4-0.6-0.5l1.2-2.3l-2.7-1.4l-1.2,2.3c-0.4-0.1-0.8-0.2-1.2-0.3v-2.8h-3.1v3c-0.3,0.1-0.6,0.2-0.9,0.3l-1.3-2.2
			l-2.6,1.6l1.3,2.2c-0.2,0.2-0.4,0.4-0.6,0.6l-2.2-1.4l-1.6,2.6l2.2,1.4c-0.1,0.3-0.2,0.5-0.3,0.8l-2.6-0.2l-0.2,3.1l2.6,0.2
			c0,0.3,0.1,0.5,0.1,0.8l-2.4,1l1.2,2.8l2.4-1c0.2,0.2,0.3,0.4,0.5,0.7l-1.7,2l2.4,1.9l1.7-2c0.2,0.1,0.5,0.3,0.7,0.4l-0.5,2.5
			l3,0.6l0.5-2.6c0.1,0,0.1,0,0.2,0c0.2,0,0.4,0,0.6,0l0.7,2.5l2.9-0.8l-0.7-2.5c0.2-0.1,0.5-0.3,0.7-0.4l1.8,1.9l2.2-2.1l-1.8-1.9
			c0.2-0.2,0.3-0.4,0.5-0.7l2.5,0.9l1-2.9l-2.5-0.9C333.4,102.6,333.5,102.4,333.5,102.1z M325.4,106c-2.4,0-4.3-1.9-4.3-4.3
			c0-2.4,1.9-4.3,4.3-4.3c2.4,0,4.3,1.9,4.3,4.3C329.7,104,327.7,106,325.4,106z"/>
		<circle class="st0" cx="325.4" cy="101.6" r="4.3"/>
	</g>
	<path class="st0" d="M378.5,60.3l1.6-0.1l-0.1-2.8l-1.7,0.1c-0.1-0.5-0.3-1-0.5-1.5l1.5-0.9l-1.4-2.4l-1.6,1
		c-0.3-0.4-0.7-0.7-1.1-1l1-1.5l-2.3-1.5l-1,1.6c-0.4-0.2-0.8-0.3-1.2-0.4v-1.7h-2.8v1.5c-0.4,0-0.8,0.1-1.2,0.2l-0.6-1.3l-2.5,1.2
		l0.5,1.2c-0.5,0.3-1,0.6-1.5,1l-1-0.8l-1.7,2.2l0.9,0.7c-0.3,0.5-0.6,1.1-0.8,1.7l-1.1-0.2l-0.4,2.7l1,0.2c0,0.2,0,0.3,0,0.5
		c0,0.5,0,0.9,0.1,1.4l-1,0.3l0.9,2.6l1-0.3c0.3,0.6,0.6,1.1,1,1.6l-0.8,0.8l2,1.9l0.8-0.8c0.5,0.4,1,0.7,1.6,0.9l-0.3,1.2l2.7,0.7
		l0.3-1.3c0.3,0,0.6,0.1,1,0.1c0.2,0,0.3,0,0.5,0l0.2,1l2.7-0.4l-0.2-1.2c0.6-0.2,1.1-0.5,1.7-0.8l0.7,0.9l2.2-1.6l-0.8-1.1
		c0.4-0.4,0.7-0.9,1-1.4l1.2,0.6l1.2-2.5l-1.4-0.7C378.4,61.4,378.5,60.8,378.5,60.3z M369.6,61.4c-0.9,0-1.6-0.7-1.6-1.6
		c0-0.9,0.7-1.6,1.6-1.6c0.9,0,1.6,0.7,1.6,1.6C371.2,60.7,370.5,61.4,369.6,61.4z"/>
	<path class="st0" d="M509.5,98.8l1.6-0.1l-0.1-2.8l-1.7,0.1c-0.1-0.5-0.3-1-0.5-1.5l1.5-0.9l-1.4-2.4l-1.6,1
		c-0.3-0.4-0.7-0.7-1.1-1l1-1.5l-2.3-1.5l-1,1.6c-0.4-0.2-0.8-0.3-1.2-0.4v-1.7h-2.8v1.5c-0.4,0-0.8,0.1-1.2,0.2l-0.6-1.3l-2.5,1.2
		l0.5,1.2c-0.5,0.3-1,0.6-1.5,1l-1-0.8l-1.7,2.2l0.9,0.7c-0.3,0.5-0.6,1.1-0.8,1.7l-1.1-0.2l-0.4,2.7l1,0.2c0,0.2,0,0.3,0,0.5
		c0,0.5,0,0.9,0.1,1.4l-1,0.3l0.9,2.6l1-0.3c0.3,0.6,0.6,1.1,1,1.6l-0.8,0.8l2,1.9l0.8-0.8c0.5,0.4,1,0.7,1.6,0.9l-0.3,1.2l2.7,0.7
		l0.3-1.3c0.3,0,0.6,0.1,1,0.1c0.2,0,0.3,0,0.5,0l0.2,1l2.7-0.4l-0.2-1.2c0.6-0.2,1.1-0.5,1.7-0.8l0.7,0.9l2.2-1.6l-0.8-1.1
		c0.4-0.4,0.7-0.9,1-1.4l1.2,0.6l1.2-2.5l-1.4-0.7C509.4,99.9,509.5,99.3,509.5,98.8z M500.6,99.9c-0.9,0-1.6-0.7-1.6-1.6
		c0-0.9,0.7-1.6,1.6-1.6c0.9,0,1.6,0.7,1.6,1.6C502.2,99.2,501.5,99.9,500.6,99.9z"/>
	<circle class="st0" cx="352.4" cy="60.4" r="1.3"/>
	<circle class="st0" cx="456.5" cy="31.4" r="1.3"/>
	<circle class="st0" cx="187.6" cy="87.4" r="1.3"/>
	<circle class="st0" cx="48.1" cy="101.6" r="1.3"/>
	<circle class="st0" cx="165.9" cy="31" r="1.3"/>
	<circle class="st0" cx="102.4" cy="38.8" r="1.3"/>
	<circle class="st0" cx="146.2" cy="61.1" r="1.3"/>
	<circle class="st0" cx="26.5" cy="118.3" r="1.3"/>
	<circle class="st0" cx="59.5" cy="68.6" r="1.3"/>
	<circle class="st0" cx="180.8" cy="95.4" r="1.3"/>
	<circle class="st0" cx="445.3" cy="41.7" r="1.3"/>
	<circle class="st0" cx="387.2" cy="87.1" r="1.3"/>
	<circle class="st0" cx="326.1" cy="66.5" r="1.3"/>
	<circle class="st0" cx="48.1" cy="120.9" r="1.3"/>
	<circle class="st0" cx="112.8" cy="52" r="1.3"/>
	<circle class="st0" cx="498.2" cy="26" r="1.3"/>
	<circle class="st0" cx="357.6" cy="114.9" r="1.3"/>
	<circle class="st0" cx="91" cy="26.2" r="1.3"/>
	<circle class="st0" cx="452.3" cy="104.9" r="1.3"/>
	<circle class="st0" cx="488.5" cy="77.8" r="1.3"/>
	<g>
		<line class="st0" x1="342.4" y1="48" x2="357.6" y2="48"/>
		<line class="st0" x1="347.6" y1="43.3" x2="357" y2="43.3"/>
	</g>
	<g>
		<line class="st0" x1="188.3" y1="42.4" x2="173.2" y2="42.4"/>
		<line class="st0" x1="183.1" y1="37.7" x2="173.8" y2="37.7"/>
	</g>
	<g>
		<line class="st0" x1="16.7" y1="111.5" x2="1.5" y2="111.5"/>
		<line class="st0" x1="11.5" y1="106.8" x2="2.1" y2="106.8"/>
	</g>
	<line class="st0" x1="455.6" y1="94.3" x2="451" y2="94.3"/>
	<line class="st0" x1="39.6" y1="86.6" x2="35" y2="86.6"/>
	<line class="st0" x1="29" y1="64" x2="24.4" y2="64"/>
	<line class="st0" x1="535.2" y1="41.7" x2="530.6" y2="41.7"/>
	<line class="st0" x1="230.3" y1="41.9" x2="225.7" y2="41.9"/>
	<line class="st0" x1="285.4" y1="68.7" x2="280.8" y2="68.7"/>
	<line class="st0" x1="349.9" y1="107.9" x2="345.3" y2="107.9"/>
	<line class="st0" x1="75.6" y1="25" x2="70.9" y2="25"/>
	<line class="st0" x1="344.8" y1="86.7" x2="340.2" y2="86.7"/>
	<line class="st0" x1="172.7" y1="104.7" x2="168.1" y2="104.7"/>
	<line class="st0" x1="90.4" y1="40.1" x2="85.8" y2="40.1"/>
	<line class="st0" x1="179.7" y1="114.5" x2="175.1" y2="114.5"/>
	<line class="st0" x1="451" y1="85.3" x2="446.4" y2="85.3"/>
	<line class="st0" x1="167" y1="88.8" x2="162.4" y2="88.8"/>
	<line class="st0" x1="113.8" y1="28.3" x2="109.1" y2="28.3"/>
	<line class="st0" x1="226.2" y1="111.8" x2="221.6" y2="111.8"/>
	<line class="st0" x1="403.6" y1="70.3" x2="398.9" y2="70.3"/>
	<line class="st0" x1="144.4" y1="128.4" x2="139.8" y2="128.4"/>
	<line class="st0" x1="88.9" y1="88.7" x2="84.3" y2="88.7"/>
	<line class="st0" x1="104.9" y1="105.6" x2="100.3" y2="105.6"/>
	<g>
		<line class="st0" x1="373.6" y1="110.2" x2="388.8" y2="110.2"/>
		<line class="st0" x1="378.8" y1="105.6" x2="388.2" y2="105.6"/>
	</g>
	<g>
		<line class="st0" x1="48.3" y1="114.5" x2="63.5" y2="114.5"/>
		<line class="st0" x1="53.5" y1="109.8" x2="62.9" y2="109.8"/>
	</g>
	<g>
		<line class="st0" x1="98.1" y1="76.2" x2="113.3" y2="76.2"/>
		<line class="st0" x1="103.3" y1="71.5" x2="112.6" y2="71.5"/>
	</g>
</g>
<g>
	<g>
		<path class="st0" d="M697.7,74.4c0.9-1.5,1.5-3.2,1.5-5c0-5.2-4.2-9.5-9.5-9.5s-9.5,4.2-9.5,9.5c0,5.2,4.2,9.5,9.5,9.5
			c1.5,0,2.9-0.4,4.2-1c1.9,1.5,4.5,1.3,6.2-0.4c0.1-0.1,0.2-0.2,0.3-0.3L697.7,74.4z"/>
		<path class="st0" d="M678.5,66c-5.2,0-9.5,4.2-9.5,9.5c0,1.9,0.5,3.6,1.5,5l-2.7,2.7c0.1,0.1,0.2,0.2,0.3,0.3
			c1.7,1.7,4.4,1.8,6.2,0.4c1.3,0.6,2.7,1,4.2,1c5.2,0,9.5-4.2,9.5-9.5C687.9,70.3,683.7,66,678.5,66z"/>
		<g>
			<circle class="st0" cx="674.3" cy="75.9" r="1.1"/>
			<circle class="st0" cx="678.5" cy="75.9" r="1.1"/>
			<circle class="st0" cx="682.7" cy="75.9" r="1.1"/>
		</g>
		<g>
			<circle class="st0" cx="686.1" cy="69.3" r="0.9"/>
			<circle class="st0" cx="689.5" cy="69.3" r="0.9"/>
			<circle class="st0" cx="692.8" cy="69.3" r="0.9"/>
		</g>
	</g>
	<path class="st0" d="M611.1,24.3c-3.8,0-6.8,3.1-6.8,6.8c0,1.3,0.4,2.6,1.1,3.6l-2,2c0.1,0.1,0.1,0.1,0.2,0.2
		c1.2,1.2,3.2,1.3,4.5,0.3c0.9,0.5,2,0.7,3.1,0.7c3.8,0,6.8-3.1,6.8-6.8S614.9,24.3,611.1,24.3z"/>
	<path class="st0" d="M600.5,19.8c3.8,0,6.8,3.1,6.8,6.8c0,1.3-0.4,2.6-1.1,3.6l2,2c-0.1,0.1-0.1,0.1-0.2,0.2
		c-1.2,1.2-3.2,1.3-4.5,0.3c-0.9,0.5-2,0.7-3.1,0.7c-3.8,0-6.8-3.1-6.8-6.8S596.7,19.8,600.5,19.8z"/>
	<g>
		<path class="st0" d="M991,63.5c0,4.8-3.9,8.6-8.6,8.6s-8.6-3.9-8.6-8.6s3.9-12.4,8.6-12.4S991,58.7,991,63.5z"/>
		<path class="st0" d="M987.1,50.6l0.9-4.5c0.2-0.9-0.6-1.7-1.4-1.5l-3,1c-0.8,0.3-1.6,0.3-2.4,0l-3.1-1c-0.8-0.3-1.6,0.5-1.4,1.5
			l0.9,4.5"/>
		<path class="st0" d="M986.6,53.6h-8.5c-0.8,0-1.5-0.7-1.5-1.5l0,0c0-0.8,0.7-1.5,1.5-1.5h8.5c0.8,0,1.5,0.7,1.5,1.5l0,0
			C988.1,52.9,987.4,53.6,986.6,53.6z"/>
		<text transform="matrix(1 0 0 1 979.8004 66.3573)" class="st0 st1 st2">$</text>
	</g>
	<g>
		<path class="st0" d="M860.8,42.4c0,4.8-3.9,8.6-8.6,8.6c-4.8,0-8.6-3.9-8.6-8.6s3.9-12.4,8.6-12.4
			C856.9,29.9,860.8,37.6,860.8,42.4z"/>
		<path class="st0" d="M856.9,29.5l0.9-4.5c0.2-0.9-0.6-1.7-1.4-1.5l-3,1c-0.8,0.3-1.6,0.3-2.4,0l-3.1-1c-0.8-0.3-1.6,0.5-1.4,1.5
			l0.9,4.5"/>
		<path class="st0" d="M856.4,32.5h-8.5c-0.8,0-1.5-0.7-1.5-1.5l0,0c0-0.8,0.7-1.5,1.5-1.5h8.5c0.8,0,1.5,0.7,1.5,1.5l0,0
			C857.9,31.8,857.2,32.5,856.4,32.5z"/>
		<text transform="matrix(1 0 0 1 849.6129 45.2499)" class="st0 st1 st2">$</text>
	</g>
	<g>
		<path class="st0" d="M643.5,63.9H618c-1.1,0-2-0.9-2-2V41.5c0-1.1,0.9-2,2-2h25.5c1.1,0,2,0.9,2,2v20.4
			C645.5,63,644.6,63.9,643.5,63.9z"/>
		<line class="st0" x1="616.1" y1="57.4" x2="645.5" y2="57.4"/>
		<circle class="st0" cx="630.8" cy="60.8" r="1.2"/>
		<rect x="627.3" y="63.9" class="st0" width="7.1" height="3.8"/>
		<path class="st0" d="M637.5,70.9h-13.5c-0.7,0-1.2-0.5-1.2-1.2v-0.8c0-0.7,0.5-1.2,1.2-1.2h13.5c0.7,0,1.2,0.5,1.2,1.2v0.8
			C638.7,70.3,638.2,70.9,637.5,70.9z"/>
	</g>
	<g>
		<path class="st0" d="M1079.2,67.3h-25.5c-1.1,0-2-0.9-2-2V45c0-1.1,0.9-2,2-2h25.5c1.1,0,2,0.9,2,2v20.4
			C1081.2,66.4,1080.3,67.3,1079.2,67.3z"/>
		<line class="st0" x1="1051.7" y1="60.9" x2="1081.2" y2="60.9"/>
		<circle class="st0" cx="1066.4" cy="64.2" r="1.2"/>
		<rect x="1062.9" y="67.3" class="st0" width="7.1" height="3.8"/>
		<path class="st0" d="M1073.2,74.3h-13.5c-0.7,0-1.2-0.5-1.2-1.2v-0.8c0-0.7,0.5-1.2,1.2-1.2h13.5c0.7,0,1.2,0.5,1.2,1.2v0.8
			C1074.4,73.8,1073.8,74.3,1073.2,74.3z"/>
	</g>
	<g>
		<path class="st0" d="M651,89.4c-0.5,0-1-0.2-1.3-0.6l-6-6c-0.7-0.7-0.7-1.9,0-2.7c0.7-0.7,1.9-0.7,2.7,0l4.5,4.5l7-9
			c0.6-0.8,1.8-1,2.7-0.3c0.8,0.6,1,1.8,0.3,2.7l-8.3,10.7c-0.3,0.4-0.8,0.7-1.4,0.7C651.1,89.4,651,89.4,651,89.4z"/>
	</g>
	<g>
		<path class="st0" d="M781.9,58.1c-0.5,0-1-0.2-1.3-0.6l-6-6c-0.7-0.7-0.7-1.9,0-2.7c0.7-0.7,1.9-0.7,2.7,0l4.5,4.5l7-9
			c0.6-0.8,1.8-1,2.7-0.3c0.8,0.6,1,1.8,0.3,2.7l-8.3,10.7c-0.3,0.4-0.8,0.7-1.4,0.7C782,58.1,782,58.1,781.9,58.1z"/>
	</g>
	<g>
		<path class="st0" d="M834.9,91.6c-0.5,0-1-0.2-1.3-0.6l-6-6c-0.7-0.7-0.7-1.9,0-2.7c0.7-0.7,1.9-0.7,2.7,0l4.5,4.5l7-9
			c0.6-0.8,1.8-1,2.7-0.3c0.8,0.6,1,1.8,0.3,2.7l-8.3,10.7c-0.3,0.4-0.8,0.7-1.4,0.7C835,91.6,835,91.6,834.9,91.6z"/>
	</g>
	<g>
		<rect x="735.1" y="99.8" class="st0" width="4" height="11.4"/>
		<rect x="742.8" y="96.8" class="st0" width="4" height="14.5"/>
		<rect x="750.5" y="93.5" class="st0" width="4" height="17.7"/>
		<rect x="758.2" y="88.5" class="st0" width="4" height="22.7"/>
		<path class="st0" d="M762,77.3c-6.4,7.6-12.4,14.4-26.9,14.4"/>
		<polyline class="st0" points="757.3,77.3 762,77.3 762,81.9 		"/>
	</g>
	<g>
		
			<rect x="831.6" y="38.8" transform="matrix(-1 -1.224647e-016 1.224647e-016 -1 1666.5427 86.9505)" class="st0" width="3.3" height="9.3"/>
		
			<rect x="825.3" y="36.3" transform="matrix(-1 -1.224647e-016 1.224647e-016 -1 1653.8569 84.4176)" class="st0" width="3.3" height="11.9"/>
		
			<rect x="819" y="33.6" transform="matrix(-1 -1.224647e-016 1.224647e-016 -1 1641.1711 81.7214)" class="st0" width="3.3" height="14.6"/>
		
			<rect x="812.6" y="29.5" transform="matrix(-1 -1.224647e-016 1.224647e-016 -1 1628.4852 77.6087)" class="st0" width="3.3" height="18.7"/>
		<path class="st0" d="M812.8,20.3c5.2,6.2,10.2,11.8,22.1,11.8"/>
		<polyline class="st0" points="816.6,20.3 812.8,20.3 812.8,24.1 		"/>
	</g>
	<path class="st0" d="M874.5,25c-3.7,0-6.7,3-6.7,6.7c0,4,6.7,13.4,6.7,13.4s6.7-9.5,6.7-13.4C881.2,28,878.2,25,874.5,25z
		 M874.5,33.5c-1.4,0-2.5-1.1-2.5-2.5c0-1.4,1.1-2.5,2.5-2.5c1.4,0,2.5,1.1,2.5,2.5C877,32.3,875.9,33.5,874.5,33.5z"/>
	<path class="st0" d="M754.8,49.8c-3.7,0-6.7,3-6.7,6.7c0,4,6.7,13.4,6.7,13.4s6.7-9.5,6.7-13.4C761.5,52.8,758.5,49.8,754.8,49.8z
		 M754.8,58.3c-1.4,0-2.5-1.1-2.5-2.5c0-1.4,1.1-2.5,2.5-2.5c1.4,0,2.5,1.1,2.5,2.5C757.3,57.1,756.2,58.3,754.8,58.3z"/>
	<path class="st0" d="M591.4,43.2c-3.7,0-6.7,3-6.7,6.7c0,4,6.7,13.4,6.7,13.4s6.7-9.5,6.7-13.4C598.1,46.2,595.1,43.2,591.4,43.2z
		 M591.4,51.7c-1.4,0-2.5-1.1-2.5-2.5c0-1.4,1.1-2.5,2.5-2.5c1.4,0,2.5,1.1,2.5,2.5C593.9,50.5,592.8,51.7,591.4,51.7z"/>
	<path class="st0" d="M1023.2,88.5c-3.7,0-6.7,3-6.7,6.7c0,4,6.7,13.4,6.7,13.4s6.7-9.5,6.7-13.4
		C1029.9,91.5,1026.9,88.5,1023.2,88.5z M1023.2,96.9c-1.4,0-2.5-1.1-2.5-2.5c0-1.4,1.1-2.5,2.5-2.5c1.4,0,2.5,1.1,2.5,2.5
		C1025.7,95.8,1024.6,96.9,1023.2,96.9z"/>
	<path class="st0" d="M857.9,60.8c-3.7,0-6.7,3-6.7,6.7c0,4,6.7,13.4,6.7,13.4s6.7-9.5,6.7-13.4C864.6,63.8,861.6,60.8,857.9,60.8z
		 M857.9,69.3c-1.4,0-2.5-1.1-2.5-2.5c0-1.4,1.1-2.5,2.5-2.5c1.4,0,2.5,1.1,2.5,2.5C860.4,68.2,859.3,69.3,857.9,69.3z"/>
	<g>
		<g>
			<path class="st0" d="M962.5,84.9v5.4c0,2.6,2.1,4.6,4.6,4.6h9l7,5.1l-0.4-5.1c2.6,0,4.6-2.1,4.6-4.6v-5.4c0-2.6-2.1-4.6-4.6-4.6
				h-15.6C964.5,80.3,962.5,82.4,962.5,84.9z"/>
			<line class="st0" x1="979.9" y1="84.3" x2="967.5" y2="84.3"/>
			<line class="st0" x1="983" y1="90.7" x2="974.2" y2="90.7"/>
			<line class="st0" x1="983" y1="87.5" x2="976.8" y2="87.5"/>
			<line class="st0" x1="971.8" y1="87.5" x2="967.9" y2="87.5"/>
		</g>
		<g>
			<path class="st0" d="M970.6,91.7v6.4c0,3-2.5,5.5-5.5,5.5h-10.6l-8.2,6l0.4-6c-3,0-5.5-2.5-5.5-5.5v-6.4c0-3,2.5-5.5,5.5-5.5
				h18.4C968.1,86.2,970.6,88.6,970.6,91.7z"/>
			<line class="st0" x1="950" y1="90.9" x2="964.7" y2="90.9"/>
			<line class="st0" x1="946.3" y1="98.5" x2="956.8" y2="98.5"/>
			<line class="st0" x1="946.3" y1="94.7" x2="953.7" y2="94.7"/>
			<line class="st0" x1="959.5" y1="94.7" x2="964.2" y2="94.7"/>
		</g>
	</g>
	<g>
		<g>
			<path class="st0" d="M794,66.1v5.4c0,2.6,2.1,4.6,4.6,4.6h9l7,5.1l-0.4-5.1c2.6,0,4.6-2.1,4.6-4.6v-5.4c0-2.6-2.1-4.6-4.6-4.6
				h-15.6C796.1,61.4,794,63.5,794,66.1z"/>
			<line class="st0" x1="811.5" y1="65.4" x2="799" y2="65.4"/>
			<line class="st0" x1="814.6" y1="71.8" x2="805.7" y2="71.8"/>
			<line class="st0" x1="814.6" y1="68.6" x2="808.3" y2="68.6"/>
			<line class="st0" x1="803.4" y1="68.6" x2="799.4" y2="68.6"/>
		</g>
		<g>
			<path class="st0" d="M802.1,72.8v6.4c0,3-2.5,5.5-5.5,5.5h-10.6l-8.2,6l0.4-6c-3,0-5.5-2.5-5.5-5.5v-6.4c0-3,2.5-5.5,5.5-5.5
				h18.4C799.7,67.3,802.1,69.8,802.1,72.8z"/>
			<line class="st0" x1="781.5" y1="72" x2="796.2" y2="72"/>
			<line class="st0" x1="777.8" y1="79.6" x2="788.3" y2="79.6"/>
			<line class="st0" x1="777.8" y1="75.8" x2="785.2" y2="75.8"/>
			<line class="st0" x1="791.1" y1="75.8" x2="795.8" y2="75.8"/>
		</g>
	</g>
	<g>
		<circle class="st0" cx="611" cy="83.7" r="13.1"/>
		<circle class="st0" cx="611" cy="83.7" r="9.6"/>
		<line class="st0" x1="611" y1="70.6" x2="611" y2="74.1"/>
		<line class="st0" x1="622.2" y1="77" x2="619.2" y2="78.8"/>
		<line class="st0" x1="602.6" y1="79" x2="599.7" y2="77.1"/>
		<line class="st0" x1="601.4" y1="74.8" x2="603.8" y2="77.3"/>
		<text transform="matrix(1 0 0 1 607.6646 86.5741)" class="st0 st1 st3">%</text>
	</g>
	<g>
		<circle class="st0" cx="1067.6" cy="15.5" r="13.1"/>
		<circle class="st0" cx="1067.6" cy="15.5" r="9.6"/>
		<line class="st0" x1="1067.6" y1="2.4" x2="1067.6" y2="5.9"/>
		<line class="st0" x1="1078.8" y1="8.8" x2="1075.9" y2="10.6"/>
		<line class="st0" x1="1059.2" y1="10.8" x2="1056.3" y2="8.9"/>
		<line class="st0" x1="1058" y1="6.6" x2="1060.5" y2="9.1"/>
		<text transform="matrix(1 0 0 1 1064.2994 18.3593)" class="st0 st1 st3">%</text>
	</g>
	<g>
		<g>
			<path class="st0" d="M675,105.2v21.5h0.1c1.8,0,3.2-1.3,3.5-3l2.7-18.9"/>
			<g>
				<circle class="st0" cx="689.2" cy="100" r="4.4"/>
				<path class="st0" d="M686.8,90.6v18.9c0-1.2-0.5-2.3-1.3-3.1c-0.8-0.8-1.9-1.3-3.1-1.3h-7.9c-2.8,0-5.1-2.3-5.1-5
					c0-1.4,0.6-2.7,1.5-3.6c0.9-0.9,2.2-1.5,3.6-1.5h7.9C684.9,95,686.8,93,686.8,90.6z"/>
				<line class="st0" x1="677.7" y1="95" x2="677.7" y2="104.8"/>
				<path class="st0" d="M688,111.5L688,111.5c-0.7,0-1.2-0.5-1.2-1.2V89.4c0-0.7,0.5-1.2,1.2-1.2l0,0c0.7,0,1.2,0.5,1.2,1.2v20.9
					C689.2,110.9,688.7,111.5,688,111.5z"/>
			</g>
		</g>
		<g>
			<g>
				<line class="st0" x1="703.8" y1="87.2" x2="707.7" y2="84.3"/>
				<line class="st0" x1="694.8" y1="94.1" x2="700.4" y2="89.8"/>
			</g>
			<g>
				<line class="st0" x1="700.3" y1="95.6" x2="695.9" y2="97.8"/>
				<line class="st0" x1="710.4" y1="90.5" x2="704.1" y2="93.7"/>
			</g>
			<g>
				<line class="st0" x1="703.8" y1="112.4" x2="707.7" y2="115.3"/>
				<line class="st0" x1="694.8" y1="105.5" x2="700.4" y2="109.8"/>
			</g>
			<g>
				<line class="st0" x1="700.3" y1="104" x2="695.9" y2="101.8"/>
				<line class="st0" x1="710.4" y1="109.2" x2="704.1" y2="106"/>
			</g>
			<line class="st0" x1="698.7" y1="99.8" x2="701.3" y2="99.8"/>
			<line class="st0" x1="704.1" y1="99.8" x2="709.6" y2="99.8"/>
			<line class="st0" x1="712.9" y1="99.9" x2="715.1" y2="99.9"/>
		</g>
	</g>
	<g>
		<g>
			<path class="st0" d="M936.8,62L936.8,62c-0.9,0-1.6-0.7-1.6-1.6v-6.4c0-0.9,0.7-1.6,1.6-1.6l0,0c0.9,0,1.6,0.7,1.6,1.6v6.4
				C938.4,61.2,937.7,62,936.8,62z"/>
			<path class="st0" d="M962.2,62L962.2,62c-0.9,0-1.6-0.7-1.6-1.6v-6.4c0-0.9,0.7-1.6,1.6-1.6l0,0c0.9,0,1.6,0.7,1.6,1.6v6.4
				C963.8,61.2,963.1,62,962.2,62z"/>
		</g>
		<path class="st0" d="M936.8,52.3c0-7,5.7-12.7,12.7-12.7s12.7,5.7,12.7,12.7"/>
		<g>
			<path class="st0" d="M961.1,62l-1.6,4.2c-1.4,3.6-5.3,5.6-9,4.5l0,0"/>
			<circle class="st0" cx="949.5" cy="69.9" r="1.9"/>
		</g>
	</g>
	<g>
		<path class="st0" d="M830.8,121.2v1.8c0,1.7,1.4,3,3,3h19.7"/>
		<path class="st0" d="M836.5,121.2V98.8h19.8v24.5c0,1.5-1.2,2.7-2.7,2.7h0c-1.5,0-2.7-1.2-2.7-2.7v-2.1h-20l0,0"/>
		<g>
			<line class="st0" x1="840.1" y1="103.9" x2="850.8" y2="103.9"/>
			<line class="st0" x1="840.1" y1="114.5" x2="850.8" y2="114.5"/>
			<line class="st0" x1="840.1" y1="111" x2="850.8" y2="111"/>
			<line class="st0" x1="840.1" y1="107.4" x2="847.4" y2="107.4"/>
		</g>
	</g>
	<g>
		<path class="st0" d="M1041.1,45.9h-31.2c-1,0-1.8-0.8-1.8-1.8V26.7c0-1,0.8-1.8,1.8-1.8h31.2c1,0,1.8,0.8,1.8,1.8v17.4
			C1042.9,45.1,1042.1,45.9,1041.1,45.9z"/>
		<line class="st0" x1="1011.8" y1="41.7" x2="1020.8" y2="41.7"/>
		<line class="st0" x1="1025" y1="41.7" x2="1031.7" y2="41.7"/>
		<line class="st0" x1="1035.9" y1="41.7" x2="1039.2" y2="41.7"/>
		<g>
			<rect x="1012.6" y="29.5" class="st0" width="6.2" height="6.2"/>
			<line class="st0" x1="1016.7" y1="29.5" x2="1016.7" y2="32"/>
			<line class="st0" x1="1014.5" y1="32.6" x2="1014.5" y2="35.1"/>
		</g>
		<line class="st0" x1="1039.2" y1="24.9" x2="1039.2" y2="45.9"/>
	</g>
	<g>
		<path class="st0" d="M575.9,90.2h-31.2c-1,0-1.8-0.8-1.8-1.8V70.9c0-1,0.8-1.8,1.8-1.8h31.2c1,0,1.8,0.8,1.8,1.8v17.4
			C577.7,89.4,576.9,90.2,575.9,90.2z"/>
		<line class="st0" x1="546.6" y1="85.9" x2="555.6" y2="85.9"/>
		<line class="st0" x1="559.9" y1="85.9" x2="566.5" y2="85.9"/>
		<line class="st0" x1="570.8" y1="85.9" x2="574.1" y2="85.9"/>
		<g>
			<rect x="547.4" y="73.7" class="st0" width="6.2" height="6.2"/>
			<line class="st0" x1="551.6" y1="73.7" x2="551.6" y2="76.2"/>
			<line class="st0" x1="549.4" y1="76.9" x2="549.4" y2="79.3"/>
		</g>
		<line class="st0" x1="574.1" y1="69.1" x2="574.1" y2="90.2"/>
	</g>
	<path class="st0" d="M888.5,57.9l1.2,2.8c0.4,0.9,1.2,1.5,2.2,1.5c0.2-0.3,0.5-0.6,0.9-0.8c0.4-0.2,0.8-0.2,1.2-0.1
		c0.6,0.1,1.1,0.5,1.4,1.1l1.2,2.8c0.4,1,0,2.1-1,2.6l-0.6,0.3c-2.9,1.2-6.2-0.1-7.5-3l-3.7-8.5c-1.2-2.9,0.1-6.2,3-7.5l0.6-0.3
		c1-0.4,2.1,0,2.6,1l1.2,2.8c0.3,0.6,0.2,1.3-0.1,1.8c-0.2,0.3-0.5,0.6-0.9,0.8c-0.4,0.2-0.8,0.2-1.2,0.1
		C888.3,56,888.1,57,888.5,57.9z"/>
	<g>
		<g>
			<path class="st0" d="M913.1,73.2C913.1,73.2,913.1,73.2,913.1,73.2l1.3,8.7l6.8-5.6C919.1,74.4,916.2,73.2,913.1,73.2z"/>
			<path class="st0" d="M901,83.5h9.9l-1.6-9.8C905,75.2,901.7,78.9,901,83.5z"/>
			<path class="st0" d="M918.4,83.5h6.7c-0.2-1.5-0.8-3-1.5-4.3L918.4,83.5z"/>
			<path class="st0" d="M913.1,97.7C913.1,97.7,913.1,97.7,913.1,97.7l-1.4-9l-7.5,5.2C906.4,96.2,909.6,97.7,913.1,97.7z"/>
			<path class="st0" d="M925.2,87.3h-9.9l1.6,9.8C921.2,95.7,924.5,91.9,925.2,87.3z"/>
		</g>
		<g>
			<polyline class="st0" points="900.9,86.8 899.5,89.5 902.2,90.9 			"/>
			<line class="st0" x1="900.9" y1="89" x2="910.7" y2="86.5"/>
		</g>
	</g>
	<g>
		<circle class="st0" cx="1008.4" cy="80.8" r="1.9"/>
		<circle class="st0" cx="1023.2" cy="79.8" r="1.6"/>
		<polygon class="st0" points="1023.7,69.8 1008,69.8 1005.7,59.7 1026.1,59.7 		"/>
		<path class="st0" d="M1008.6,80.5l2.4-2.4h13.1c1.1,0,2-0.9,2-2l0,0c0-1.1-0.9-2-2-2h-15l-5.1-21.5H999"/>
		<line class="st0" x1="1006.5" y1="62.9" x2="1019.6" y2="62.9"/>
		<line class="st0" x1="1007.2" y1="66.3" x2="1015.9" y2="66.3"/>
	</g>
	<g>
		<circle class="st0" cx="801.5" cy="125.5" r="1.9"/>
		<circle class="st0" cx="816.3" cy="124.5" r="1.6"/>
		<polygon class="st0" points="816.8,114.5 801.2,114.5 798.8,104.4 819.2,104.4 		"/>
		<path class="st0" d="M801.7,125.3l2.4-2.4h13.1c1.1,0,2-0.9,2-2v0c0-1.1-0.9-2-2-2h-15l-5.1-21.5h-4.9"/>
		<line class="st0" x1="799.6" y1="107.6" x2="812.7" y2="107.6"/>
		<line class="st0" x1="800.3" y1="111" x2="809" y2="111"/>
	</g>
	<g>
		<circle class="st0" cx="567.8" cy="50.2" r="1.9"/>
		<circle class="st0" cx="553" cy="49.2" r="1.6"/>
		<polygon class="st0" points="552.5,39.2 568.2,39.2 570.5,29.1 550.1,29.1 		"/>
		<path class="st0" d="M567.6,49.9l-2.4-2.4h-13.1c-1.1,0-2-0.9-2-2l0,0c0-1.1,0.9-2,2-2h15l5.1-21.5h4.9"/>
		<line class="st0" x1="569.7" y1="32.3" x2="556.6" y2="32.3"/>
		<line class="st0" x1="569" y1="35.7" x2="560.3" y2="35.7"/>
	</g>
	<g>
		<path class="st0" d="M731.1,59.4l3.3-0.4l-0.5-3.9l-3.3,0.4c-0.1-0.3-0.2-0.7-0.4-1l2.7-1.9l-2.2-3.2l-2.7,1.9
			c-0.2-0.2-0.5-0.5-0.8-0.7l1.5-3l-3.5-1.8l-1.5,3c-0.5-0.1-1-0.2-1.5-0.3V45h-3.9v3.8c-0.4,0.1-0.7,0.2-1.1,0.3l-1.7-2.9l-3.4,2
			l1.7,2.9c-0.3,0.2-0.5,0.5-0.7,0.7l-2.8-1.8l-2.1,3.3l2.8,1.8c-0.1,0.3-0.2,0.7-0.3,1l-3.3-0.3l-0.3,3.9l3.3,0.3
			c0,0.4,0.1,0.7,0.2,1l-3.1,1.3l1.5,3.6l3.1-1.3c0.2,0.3,0.4,0.6,0.6,0.8l-2.1,2.6l3,2.5l2.1-2.6c0.3,0.2,0.6,0.3,0.9,0.5l-0.7,3.3
			l3.8,0.8l0.7-3.3c0.1,0,0.2,0,0.2,0c0.3,0,0.5,0,0.8,0l0.9,3.2l3.8-1l-0.9-3.2c0.3-0.2,0.6-0.3,0.9-0.5l2.3,2.4l2.9-2.6l-2.3-2.4
			c0.2-0.3,0.4-0.6,0.6-0.9l3.1,1.1l1.3-3.7l-3.1-1.1C731.1,60.1,731.1,59.8,731.1,59.4z M720.8,64.4c-3.1,0-5.5-2.5-5.5-5.5
			c0-3.1,2.5-5.5,5.5-5.5c3.1,0,5.5,2.5,5.5,5.5C726.3,61.9,723.8,64.4,720.8,64.4z"/>
		<circle class="st0" cx="720.8" cy="58.8" r="5.5"/>
	</g>
	<g>
		<path class="st0" d="M880.9,94.3l2.6-0.3l-0.4-3l-2.6,0.3c-0.1-0.3-0.2-0.5-0.3-0.8l2.1-1.5l-1.8-2.5l-2.1,1.5
			c-0.2-0.2-0.4-0.4-0.6-0.5l1.2-2.3l-2.7-1.4l-1.2,2.3c-0.4-0.1-0.8-0.2-1.2-0.3v-2.8h-3.1v3c-0.3,0.1-0.6,0.2-0.9,0.3l-1.3-2.2
			l-2.6,1.6l1.3,2.2c-0.2,0.2-0.4,0.4-0.6,0.6l-2.2-1.4l-1.6,2.6l2.2,1.4c-0.1,0.3-0.2,0.5-0.3,0.8l-2.6-0.2l-0.2,3.1l2.6,0.2
			c0,0.3,0.1,0.5,0.1,0.8l-2.4,1l1.2,2.8l2.4-1c0.2,0.2,0.3,0.4,0.5,0.7l-1.7,2l2.4,1.9l1.7-2c0.2,0.1,0.5,0.3,0.7,0.4l-0.5,2.5
			l3,0.6l0.5-2.6c0.1,0,0.1,0,0.2,0c0.2,0,0.4,0,0.6,0l0.7,2.5l2.9-0.8l-0.7-2.5c0.2-0.1,0.5-0.3,0.7-0.4l1.8,1.9l2.2-2.1l-1.8-1.9
			c0.2-0.2,0.3-0.4,0.5-0.7l2.5,0.9l1-2.9l-2.5-0.9C880.9,94.8,880.9,94.5,880.9,94.3z M872.8,98.2c-2.4,0-4.3-1.9-4.3-4.3
			c0-2.4,1.9-4.3,4.3-4.3c2.4,0,4.3,1.9,4.3,4.3C877.1,96.2,875.2,98.2,872.8,98.2z"/>
		<circle class="st0" cx="872.8" cy="93.8" r="4.3"/>
	</g>
	<path class="st0" d="M925.9,52.4l1.6-0.1l-0.1-2.8l-1.7,0.1c-0.1-0.5-0.3-1-0.5-1.5l1.5-0.9l-1.4-2.4l-1.6,1
		c-0.3-0.4-0.7-0.7-1.1-1l1-1.5l-2.3-1.5l-1,1.6c-0.4-0.2-0.8-0.3-1.2-0.4v-1.7h-2.8v1.5c-0.4,0-0.8,0.1-1.2,0.2l-0.6-1.3l-2.5,1.2
		l0.5,1.2c-0.5,0.3-1,0.6-1.5,1l-1-0.8l-1.7,2.2l0.9,0.7c-0.3,0.5-0.6,1.1-0.8,1.7l-1.1-0.2l-0.4,2.7l1,0.2c0,0.2,0,0.3,0,0.5
		c0,0.5,0,0.9,0.1,1.4l-1,0.3l0.9,2.6l1-0.3c0.3,0.6,0.6,1.1,1,1.6l-0.8,0.8l2,1.9l0.8-0.8c0.5,0.4,1,0.7,1.6,0.9l-0.3,1.2l2.7,0.7
		l0.3-1.3c0.3,0,0.6,0.1,1,0.1c0.2,0,0.3,0,0.5,0l0.2,1l2.7-0.4l-0.2-1.2c0.6-0.2,1.1-0.5,1.7-0.8l0.7,0.9l2.2-1.6l-0.8-1.1
		c0.4-0.4,0.7-0.9,1-1.4l1.2,0.6l1.2-2.5l-1.4-0.7C925.9,53.6,925.9,53,925.9,52.4z M917,53.6c-0.9,0-1.6-0.7-1.6-1.6
		c0-0.9,0.7-1.6,1.6-1.6c0.9,0,1.6,0.7,1.6,1.6C918.6,52.9,917.9,53.6,917,53.6z"/>
	<path class="st0" d="M1056.9,91l1.6-0.1l-0.1-2.8l-1.7,0.1c-0.1-0.5-0.3-1-0.5-1.5l1.5-0.9l-1.4-2.4l-1.6,1c-0.3-0.4-0.7-0.7-1.1-1
		l1-1.5l-2.3-1.5l-1,1.6c-0.4-0.2-0.8-0.3-1.2-0.4V80h-2.8v1.5c-0.4,0-0.8,0.1-1.2,0.2l-0.6-1.3l-2.5,1.2l0.5,1.2
		c-0.5,0.3-1,0.6-1.5,1l-1-0.8l-1.7,2.2l0.9,0.7c-0.3,0.5-0.6,1.1-0.8,1.7l-1.1-0.2l-0.4,2.7l1,0.2c0,0.2,0,0.3,0,0.5
		c0,0.5,0,0.9,0.1,1.4l-1,0.3l0.9,2.6l1-0.3c0.3,0.6,0.6,1.1,1,1.6l-0.8,0.8l2,1.9l0.8-0.8c0.5,0.4,1,0.7,1.6,0.9l-0.3,1.2l2.7,0.7
		l0.3-1.3c0.3,0,0.6,0.1,1,0.1c0.2,0,0.3,0,0.5,0l0.2,1l2.7-0.4l-0.2-1.2c0.6-0.2,1.1-0.5,1.7-0.8l0.7,0.9l2.2-1.6l-0.8-1.1
		c0.4-0.4,0.7-0.9,1-1.4l1.2,0.6l1.2-2.5l-1.4-0.7C1056.8,92.1,1056.9,91.5,1056.9,91z M1048,92.1c-0.9,0-1.6-0.7-1.6-1.6
		c0-0.9,0.7-1.6,1.6-1.6c0.9,0,1.6,0.7,1.6,1.6C1049.6,91.4,1048.9,92.1,1048,92.1z"/>
	<circle class="st0" cx="899.8" cy="52.6" r="1.3"/>
	<circle class="st0" cx="1003.9" cy="23.5" r="1.3"/>
	<circle class="st0" cx="735.1" cy="79.6" r="1.3"/>
	<circle class="st0" cx="595.6" cy="93.8" r="1.3"/>
	<circle class="st0" cx="713.3" cy="23.2" r="1.3"/>
	<circle class="st0" cx="649.9" cy="30.9" r="1.3"/>
	<circle class="st0" cx="693.7" cy="53.3" r="1.3"/>
	<circle class="st0" cx="574" cy="110.4" r="1.3"/>
	<circle class="st0" cx="607" cy="60.8" r="1.3"/>
	<circle class="st0" cx="728.2" cy="87.6" r="1.3"/>
	<circle class="st0" cx="992.7" cy="33.9" r="1.3"/>
	<circle class="st0" cx="934.7" cy="79.3" r="1.3"/>
	<circle class="st0" cx="873.6" cy="58.7" r="1.3"/>
	<circle class="st0" cx="595.6" cy="113.1" r="1.3"/>
	<circle class="st0" cx="660.2" cy="44.2" r="1.3"/>
	<circle class="st0" cx="1045.7" cy="18.2" r="1.3"/>
	<circle class="st0" cx="905.1" cy="107.1" r="1.3"/>
	<circle class="st0" cx="638.5" cy="18.3" r="1.3"/>
	<circle class="st0" cx="999.7" cy="97.1" r="1.3"/>
	<circle class="st0" cx="1035.9" cy="69.9" r="1.3"/>
	<g>
		<line class="st0" x1="889.9" y1="40.2" x2="905.1" y2="40.2"/>
		<line class="st0" x1="895.1" y1="35.5" x2="904.5" y2="35.5"/>
	</g>
	<g>
		<line class="st0" x1="735.8" y1="34.6" x2="720.6" y2="34.6"/>
		<line class="st0" x1="730.6" y1="29.9" x2="721.2" y2="29.9"/>
	</g>
	<g>
		<line class="st0" x1="564.1" y1="103.7" x2="548.9" y2="103.7"/>
		<line class="st0" x1="558.9" y1="99" x2="549.5" y2="99"/>
	</g>
	<line class="st0" x1="1003" y1="86.5" x2="998.4" y2="86.5"/>
	<line class="st0" x1="587" y1="78.8" x2="582.4" y2="78.8"/>
	<line class="st0" x1="576.4" y1="56.1" x2="571.8" y2="56.1"/>
	<line class="st0" x1="1082.7" y1="33.9" x2="1078" y2="33.9"/>
	<line class="st0" x1="777.8" y1="34.1" x2="773.2" y2="34.1"/>
	<line class="st0" x1="832.8" y1="60.9" x2="828.2" y2="60.9"/>
	<line class="st0" x1="897.4" y1="100.1" x2="892.8" y2="100.1"/>
	<line class="st0" x1="623" y1="17.2" x2="618.4" y2="17.2"/>
	<line class="st0" x1="892.2" y1="78.9" x2="887.6" y2="78.9"/>
	<line class="st0" x1="720.1" y1="96.9" x2="715.5" y2="96.9"/>
	<line class="st0" x1="637.9" y1="32.3" x2="633.3" y2="32.3"/>
	<line class="st0" x1="727.1" y1="106.7" x2="722.5" y2="106.7"/>
	<line class="st0" x1="998.4" y1="77.5" x2="993.8" y2="77.5"/>
	<line class="st0" x1="714.4" y1="81" x2="709.8" y2="81"/>
	<line class="st0" x1="661.2" y1="20.5" x2="656.6" y2="20.5"/>
	<line class="st0" x1="773.6" y1="104" x2="769" y2="104"/>
	<line class="st0" x1="951" y1="62.5" x2="946.4" y2="62.5"/>
	<line class="st0" x1="691.9" y1="120.6" x2="687.3" y2="120.6"/>
	<line class="st0" x1="636.3" y1="80.9" x2="631.7" y2="80.9"/>
	<line class="st0" x1="652.3" y1="97.8" x2="647.7" y2="97.8"/>
	<g>
		<line class="st0" x1="921" y1="102.4" x2="936.2" y2="102.4"/>
		<line class="st0" x1="926.2" y1="97.7" x2="935.6" y2="97.7"/>
	</g>
	<g>
		<line class="st0" x1="595.8" y1="106.7" x2="611" y2="106.7"/>
		<line class="st0" x1="601" y1="102" x2="610.3" y2="102"/>
	</g>
	<g>
		<line class="st0" x1="645.5" y1="68.4" x2="660.7" y2="68.4"/>
		<line class="st0" x1="650.7" y1="63.7" x2="660.1" y2="63.7"/>
	</g>
</g>
<g>
	<g>
		<path class="st0" d="M168,191.4c0.9-1.5,1.5-3.2,1.5-5c0-5.2-4.2-9.5-9.5-9.5c-5.2,0-9.5,4.2-9.5,9.5s4.2,9.5,9.5,9.5
			c1.5,0,2.9-0.4,4.2-1c1.9,1.5,4.5,1.3,6.2-0.4c0.1-0.1,0.2-0.2,0.3-0.3L168,191.4z"/>
		<path class="st0" d="M148.7,183.1c-5.2,0-9.5,4.2-9.5,9.5c0,1.9,0.5,3.6,1.5,5l-2.7,2.7c0.1,0.1,0.2,0.2,0.3,0.3
			c1.7,1.7,4.4,1.8,6.2,0.4c1.3,0.6,2.7,1,4.2,1c5.2,0,9.5-4.2,9.5-9.5S154,183.1,148.7,183.1z"/>
		<g>
			<circle class="st0" cx="144.5" cy="192.9" r="1.1"/>
			<circle class="st0" cx="148.7" cy="192.9" r="1.1"/>
			<circle class="st0" cx="152.9" cy="192.9" r="1.1"/>
		</g>
		<g>
			<circle class="st0" cx="156.4" cy="186.4" r="0.9"/>
			<circle class="st0" cx="159.7" cy="186.4" r="0.9"/>
			<circle class="st0" cx="163" cy="186.4" r="0.9"/>
		</g>
	</g>
	<path class="st0" d="M81.4,141.3c-3.8,0-6.8,3.1-6.8,6.8c0,1.3,0.4,2.6,1.1,3.6l-2,2c0.1,0.1,0.1,0.1,0.2,0.2
		c1.2,1.2,3.2,1.3,4.5,0.3c0.9,0.5,2,0.7,3.1,0.7c3.8,0,6.8-3.1,6.8-6.8S85.2,141.3,81.4,141.3z"/>
	<path class="st0" d="M70.8,136.9c3.8,0,6.8,3.1,6.8,6.8c0,1.3-0.4,2.6-1.1,3.6l2,2c-0.1,0.1-0.1,0.1-0.2,0.2
		c-1.2,1.2-3.2,1.3-4.5,0.3c-0.9,0.5-2,0.7-3.1,0.7c-3.8,0-6.8-3.1-6.8-6.8C63.9,139.9,67,136.9,70.8,136.9z"/>
	<g>
		<path class="st0" d="M461.2,180.5c0,4.8-3.9,8.6-8.6,8.6s-8.6-3.9-8.6-8.6s3.9-12.4,8.6-12.4S461.2,175.7,461.2,180.5z"/>
		<path class="st0" d="M457.3,167.7l0.9-4.5c0.2-0.9-0.6-1.7-1.4-1.5l-3,1c-0.8,0.3-1.6,0.3-2.4,0l-3.1-1c-0.8-0.3-1.6,0.5-1.4,1.5
			l0.9,4.5"/>
		<path class="st0" d="M456.8,170.6h-8.5c-0.8,0-1.5-0.7-1.5-1.5l0,0c0-0.8,0.7-1.5,1.5-1.5h8.5c0.8,0,1.5,0.7,1.5,1.5l0,0
			C458.3,170,457.7,170.6,456.8,170.6z"/>
		<text transform="matrix(1 0 0 1 450.0537 183.376)" class="st0 st1 st2">$</text>
	</g>
	<g>
		<path class="st0" d="M331,159.4c0,4.8-3.9,8.6-8.6,8.6s-8.6-3.9-8.6-8.6c0-4.8,3.9-12.4,8.6-12.4S331,154.6,331,159.4z"/>
		<path class="st0" d="M327.1,146.5l0.9-4.5c0.2-0.9-0.6-1.7-1.4-1.5l-3,1c-0.8,0.3-1.6,0.3-2.4,0l-3.1-1c-0.8-0.3-1.6,0.5-1.4,1.5
			l0.9,4.5"/>
		<path class="st0" d="M326.7,149.5h-8.5c-0.8,0-1.5-0.7-1.5-1.5l0,0c0-0.8,0.7-1.5,1.5-1.5h8.5c0.8,0,1.5,0.7,1.5,1.5l0,0
			C328.2,148.9,327.5,149.5,326.7,149.5z"/>
		<text transform="matrix(1 0 0 1 319.8662 162.2686)" class="st0 st1 st2">$</text>
	</g>
	<g>
		<path class="st0" d="M113.8,180.9H88.3c-1.1,0-2-0.9-2-2v-20.4c0-1.1,0.9-2,2-2h25.5c1.1,0,2,0.9,2,2v20.4
			C115.8,180,114.9,180.9,113.8,180.9z"/>
		<line class="st0" x1="86.3" y1="174.4" x2="115.8" y2="174.4"/>
		<circle class="st0" cx="101" cy="177.8" r="1.2"/>
		<rect x="97.5" y="180.9" class="st0" width="7.1" height="3.8"/>
		<path class="st0" d="M107.8,187.9H94.3c-0.7,0-1.2-0.5-1.2-1.2v-0.8c0-0.7,0.5-1.2,1.2-1.2h13.5c0.7,0,1.2,0.5,1.2,1.2v0.8
			C109,187.3,108.4,187.9,107.8,187.9z"/>
	</g>
	<g>
		<path class="st0" d="M549.4,184.3h-25.5c-1.1,0-2-0.9-2-2V162c0-1.1,0.9-2,2-2h25.5c1.1,0,2,0.9,2,2v20.4
			C551.4,183.5,550.5,184.3,549.4,184.3z"/>
		<line class="st0" x1="521.9" y1="177.9" x2="551.4" y2="177.9"/>
		<circle class="st0" cx="536.7" cy="181.3" r="1.2"/>
		<rect x="533.2" y="184.3" class="st0" width="7.1" height="3.8"/>
		<path class="st0" d="M543.4,191.3h-13.5c-0.7,0-1.2-0.5-1.2-1.2v-0.8c0-0.7,0.5-1.2,1.2-1.2h13.5c0.7,0,1.2,0.5,1.2,1.2v0.8
			C544.6,190.8,544.1,191.3,543.4,191.3z"/>
	</g>
	<g>
		<path class="st0" d="M121.2,206.4c-0.5,0-1-0.2-1.3-0.6l-6-6c-0.7-0.7-0.7-1.9,0-2.7c0.7-0.7,1.9-0.7,2.7,0l4.5,4.5l7-9
			c0.6-0.8,1.8-1,2.7-0.3c0.8,0.6,1,1.8,0.3,2.7l-8.3,10.7c-0.3,0.4-0.8,0.7-1.4,0.7C121.3,206.4,121.3,206.4,121.2,206.4z"/>
	</g>
	<g>
		<path class="st0" d="M252.2,175.1c-0.5,0-1-0.2-1.3-0.6l-6-6c-0.7-0.7-0.7-1.9,0-2.7c0.7-0.7,1.9-0.7,2.7,0l4.5,4.5l7-9
			c0.6-0.8,1.8-1,2.7-0.3c0.8,0.6,1,1.8,0.3,2.7l-8.3,10.7c-0.3,0.4-0.8,0.7-1.4,0.7C252.3,175.1,252.2,175.1,252.2,175.1z"/>
	</g>
	<g>
		<path class="st0" d="M305.2,208.6c-0.5,0-1-0.2-1.3-0.6l-6-6c-0.7-0.7-0.7-1.9,0-2.7c0.7-0.7,1.9-0.7,2.7,0l4.5,4.5l7-9
			c0.6-0.8,1.8-1,2.7-0.3c0.8,0.6,1,1.8,0.3,2.7l-8.3,10.7c-0.3,0.4-0.8,0.7-1.4,0.7C305.3,208.6,305.2,208.6,305.2,208.6z"/>
	</g>
	<g>
		<rect x="205.3" y="216.9" class="st0" width="4" height="11.4"/>
		<rect x="213" y="213.8" class="st0" width="4" height="14.5"/>
		<rect x="220.7" y="210.5" class="st0" width="4" height="17.7"/>
		<rect x="228.5" y="205.5" class="st0" width="4" height="22.7"/>
		<path class="st0" d="M232.2,194.3c-6.4,7.6-12.4,14.4-26.9,14.4"/>
		<polyline class="st0" points="227.6,194.3 232.2,194.3 232.2,199 		"/>
	</g>
	<g>
		
			<rect x="301.9" y="155.8" transform="matrix(-1 -1.224647e-016 1.224647e-016 -1 607.0495 320.9879)" class="st0" width="3.3" height="9.3"/>
		
			<rect x="295.6" y="153.3" transform="matrix(-1 -1.224647e-016 1.224647e-016 -1 594.3637 318.455)" class="st0" width="3.3" height="11.9"/>
		
			<rect x="289.2" y="150.6" transform="matrix(-1 -1.224647e-016 1.224647e-016 -1 581.6779 315.7588)" class="st0" width="3.3" height="14.6"/>
		
			<rect x="282.9" y="146.5" transform="matrix(-1 -1.224647e-016 1.224647e-016 -1 568.9921 311.6461)" class="st0" width="3.3" height="18.7"/>
		<path class="st0" d="M283,137.3c5.2,6.2,10.2,11.8,22.1,11.8"/>
		<polyline class="st0" points="286.8,137.3 283,137.3 283,141.1 		"/>
	</g>
	<path class="st0" d="M344.8,142c-3.7,0-6.7,3-6.7,6.7c0,4,6.7,13.4,6.7,13.4s6.7-9.5,6.7-13.4C351.5,145,348.5,142,344.8,142z
		 M344.8,150.5c-1.4,0-2.5-1.1-2.5-2.5s1.1-2.5,2.5-2.5c1.4,0,2.5,1.1,2.5,2.5S346.2,150.5,344.8,150.5z"/>
	<path class="st0" d="M225,166.8c-3.7,0-6.7,3-6.7,6.7c0,4,6.7,13.4,6.7,13.4s6.7-9.5,6.7-13.4C231.7,169.8,228.7,166.8,225,166.8z
		 M225,175.3c-1.4,0-2.5-1.1-2.5-2.5s1.1-2.5,2.5-2.5c1.4,0,2.5,1.1,2.5,2.5S226.4,175.3,225,175.3z"/>
	<path class="st0" d="M61.7,160.3c-3.7,0-6.7,3-6.7,6.7c0,4,6.7,13.4,6.7,13.4s6.7-9.5,6.7-13.4C68.3,163.2,65.4,160.3,61.7,160.3z
		 M61.7,168.7c-1.4,0-2.5-1.1-2.5-2.5s1.1-2.5,2.5-2.5c1.4,0,2.5,1.1,2.5,2.5S63,168.7,61.7,168.7z"/>
	<path class="st0" d="M493.4,205.5c-3.7,0-6.7,3-6.7,6.7c0,4,6.7,13.4,6.7,13.4s6.7-9.5,6.7-13.4
		C500.1,208.5,497.1,205.5,493.4,205.5z M493.4,214c-1.4,0-2.5-1.1-2.5-2.5c0-1.4,1.1-2.5,2.5-2.5c1.4,0,2.5,1.1,2.5,2.5
		C495.9,212.8,494.8,214,493.4,214z"/>
	<path class="st0" d="M328.1,177.9c-3.7,0-6.7,3-6.7,6.7c0,4,6.7,13.4,6.7,13.4s6.7-9.5,6.7-13.4
		C334.8,180.9,331.8,177.9,328.1,177.9z M328.1,186.3c-1.4,0-2.5-1.1-2.5-2.5c0-1.4,1.1-2.5,2.5-2.5c1.4,0,2.5,1.1,2.5,2.5
		C330.7,185.2,329.5,186.3,328.1,186.3z"/>
	<g>
		<g>
			<path class="st0" d="M432.7,202v5.4c0,2.6,2.1,4.6,4.6,4.6h9l7,5.1l-0.4-5.1c2.6,0,4.6-2.1,4.6-4.6V202c0-2.6-2.1-4.6-4.6-4.6
				h-15.6C434.8,197.3,432.7,199.4,432.7,202z"/>
			<line class="st0" x1="450.2" y1="201.3" x2="437.7" y2="201.3"/>
			<line class="st0" x1="453.3" y1="207.7" x2="444.4" y2="207.7"/>
			<line class="st0" x1="453.3" y1="204.5" x2="447" y2="204.5"/>
			<line class="st0" x1="442.1" y1="204.5" x2="438.1" y2="204.5"/>
		</g>
		<g>
			<path class="st0" d="M440.8,208.7v6.4c0,3-2.5,5.5-5.5,5.5h-10.6l-8.2,6l0.4-6c-3,0-5.5-2.5-5.5-5.5v-6.4c0-3,2.5-5.5,5.5-5.5
				h18.4C438.4,203.2,440.8,205.7,440.8,208.7z"/>
			<line class="st0" x1="420.2" y1="207.9" x2="434.9" y2="207.9"/>
			<line class="st0" x1="416.5" y1="215.5" x2="427" y2="215.5"/>
			<line class="st0" x1="416.5" y1="211.7" x2="423.9" y2="211.7"/>
			<line class="st0" x1="429.8" y1="211.7" x2="434.5" y2="211.7"/>
		</g>
	</g>
	<g>
		<g>
			<path class="st0" d="M264.2,183.1v5.4c0,2.6,2.1,4.6,4.6,4.6h9l7,5.1l-0.4-5.1c2.6,0,4.6-2.1,4.6-4.6v-5.4c0-2.6-2.1-4.6-4.6-4.6
				h-15.6C266.3,178.4,264.2,180.5,264.2,183.1z"/>
			<line class="st0" x1="281.7" y1="182.4" x2="269.3" y2="182.4"/>
			<line class="st0" x1="284.8" y1="188.9" x2="276" y2="188.9"/>
			<line class="st0" x1="284.8" y1="185.7" x2="278.6" y2="185.7"/>
			<line class="st0" x1="273.6" y1="185.7" x2="269.7" y2="185.7"/>
		</g>
		<g>
			<path class="st0" d="M272.4,189.8v6.4c0,3-2.5,5.5-5.5,5.5h-10.6l-8.2,6l0.4-6c-3,0-5.5-2.5-5.5-5.5v-6.4c0-3,2.5-5.5,5.5-5.5
				h18.4C269.9,184.3,272.4,186.8,272.4,189.8z"/>
			<line class="st0" x1="251.8" y1="189.1" x2="266.5" y2="189.1"/>
			<line class="st0" x1="248.1" y1="196.6" x2="258.6" y2="196.6"/>
			<line class="st0" x1="248.1" y1="192.8" x2="255.5" y2="192.8"/>
			<line class="st0" x1="261.3" y1="192.8" x2="266" y2="192.8"/>
		</g>
	</g>
	<g>
		<circle class="st0" cx="81.2" cy="200.7" r="13.1"/>
		<circle class="st0" cx="81.2" cy="200.7" r="9.6"/>
		<line class="st0" x1="81.2" y1="187.6" x2="81.2" y2="191.1"/>
		<line class="st0" x1="92.4" y1="194" x2="89.5" y2="195.9"/>
		<line class="st0" x1="72.8" y1="196" x2="69.9" y2="194.1"/>
		<line class="st0" x1="71.6" y1="191.8" x2="74.1" y2="194.3"/>
		<text transform="matrix(1 0 0 1 77.918 203.5928)" class="st0 st1 st3">%</text>
	</g>
	<g>
		<circle class="st0" cx="537.8" cy="132.5" r="13.1"/>
		<circle class="st0" cx="537.8" cy="132.5" r="9.6"/>
		<line class="st0" x1="537.8" y1="119.4" x2="537.8" y2="122.9"/>
		<line class="st0" x1="549" y1="125.8" x2="546.1" y2="127.6"/>
		<line class="st0" x1="529.5" y1="127.8" x2="526.6" y2="125.9"/>
		<line class="st0" x1="528.3" y1="123.6" x2="530.7" y2="126.1"/>
		<text transform="matrix(1 0 0 1 534.5528 135.3779)" class="st0 st1 st3">%</text>
	</g>
	<g>
		<g>
			<path class="st0" d="M145.3,222.2v21.5h0.1c1.8,0,3.2-1.3,3.5-3l2.7-18.9"/>
			<g>
				<circle class="st0" cx="159.5" cy="217" r="4.4"/>
				<path class="st0" d="M157.1,207.6v18.9c0-1.2-0.5-2.3-1.3-3.1c-0.8-0.8-1.9-1.3-3.1-1.3h-7.9c-2.8,0-5.1-2.3-5.1-5
					c0-1.4,0.6-2.7,1.5-3.6c0.9-0.9,2.2-1.5,3.6-1.5h7.9C155.1,212,157.1,210,157.1,207.6z"/>
				<line class="st0" x1="147.9" y1="212" x2="147.9" y2="221.8"/>
				<path class="st0" d="M158.3,228.5L158.3,228.5c-0.7,0-1.2-0.5-1.2-1.2v-20.9c0-0.7,0.5-1.2,1.2-1.2l0,0c0.7,0,1.2,0.5,1.2,1.2
					v20.9C159.5,228,158.9,228.5,158.3,228.5z"/>
			</g>
		</g>
		<g>
			<g>
				<line class="st0" x1="174.1" y1="204.3" x2="177.9" y2="201.3"/>
				<line class="st0" x1="165" y1="211.2" x2="170.7" y2="206.9"/>
			</g>
			<g>
				<line class="st0" x1="170.5" y1="212.6" x2="166.2" y2="214.8"/>
				<line class="st0" x1="180.7" y1="207.5" x2="174.3" y2="210.7"/>
			</g>
			<g>
				<line class="st0" x1="174.1" y1="229.4" x2="177.9" y2="232.4"/>
				<line class="st0" x1="165" y1="222.5" x2="170.7" y2="226.8"/>
			</g>
			<g>
				<line class="st0" x1="170.5" y1="221.1" x2="166.2" y2="218.9"/>
				<line class="st0" x1="180.7" y1="226.2" x2="174.3" y2="223"/>
			</g>
			<line class="st0" x1="168.9" y1="216.9" x2="171.6" y2="216.9"/>
			<line class="st0" x1="174.3" y1="216.9" x2="179.8" y2="216.9"/>
			<line class="st0" x1="183.2" y1="216.9" x2="185.4" y2="216.9"/>
		</g>
	</g>
	<g>
		<g>
			<path class="st0" d="M407,179L407,179c-0.9,0-1.6-0.7-1.6-1.6v-6.4c0-0.9,0.7-1.6,1.6-1.6l0,0c0.9,0,1.6,0.7,1.6,1.6v6.4
				C408.7,178.3,407.9,179,407,179z"/>
			<path class="st0" d="M432.4,179L432.4,179c-0.9,0-1.6-0.7-1.6-1.6v-6.4c0-0.9,0.7-1.6,1.6-1.6l0,0c0.9,0,1.6,0.7,1.6,1.6v6.4
				C434.1,178.3,433.3,179,432.4,179z"/>
		</g>
		<path class="st0" d="M407,169.3c0-7,5.7-12.7,12.7-12.7s12.7,5.7,12.7,12.7"/>
		<g>
			<path class="st0" d="M431.4,179l-1.6,4.2c-1.4,3.6-5.3,5.6-9,4.5l0,0"/>
			<circle class="st0" cx="419.7" cy="187" r="1.9"/>
		</g>
	</g>
	<g>
		<path class="st0" d="M301,238.2v1.8c0,1.7,1.4,3,3,3h19.7"/>
		<path class="st0" d="M306.7,238.2v-22.4h19.8v24.5c0,1.5-1.2,2.7-2.7,2.7h0c-1.5,0-2.7-1.2-2.7-2.7v-2.1h-20l0,0"/>
		<g>
			<line class="st0" x1="310.4" y1="220.9" x2="321.1" y2="220.9"/>
			<line class="st0" x1="310.4" y1="231.6" x2="321.1" y2="231.6"/>
			<line class="st0" x1="310.4" y1="228" x2="321.1" y2="228"/>
			<line class="st0" x1="310.4" y1="224.5" x2="317.6" y2="224.5"/>
		</g>
	</g>
	<g>
		<path class="st0" d="M511.3,163h-31.2c-1,0-1.8-0.8-1.8-1.8v-17.4c0-1,0.8-1.8,1.8-1.8h31.2c1,0,1.8,0.8,1.8,1.8v17.4
			C513.1,162.1,512.3,163,511.3,163z"/>
		<line class="st0" x1="482" y1="158.7" x2="491" y2="158.7"/>
		<line class="st0" x1="495.3" y1="158.7" x2="501.9" y2="158.7"/>
		<line class="st0" x1="506.2" y1="158.7" x2="509.5" y2="158.7"/>
		<g>
			<rect x="482.8" y="146.5" class="st0" width="6.2" height="6.2"/>
			<line class="st0" x1="487" y1="146.5" x2="487" y2="149"/>
			<line class="st0" x1="484.7" y1="149.6" x2="484.7" y2="152.1"/>
		</g>
		<line class="st0" x1="509.5" y1="141.9" x2="509.5" y2="163"/>
	</g>
	<g>
		<path class="st0" d="M46.2,207.2H15c-1,0-1.8-0.8-1.8-1.8v-17.4c0-1,0.8-1.8,1.8-1.8h31.2c1,0,1.8,0.8,1.8,1.8v17.4
			C48,206.4,47.2,207.2,46.2,207.2z"/>
		<line class="st0" x1="16.9" y1="202.9" x2="25.9" y2="202.9"/>
		<line class="st0" x1="30.1" y1="202.9" x2="36.8" y2="202.9"/>
		<line class="st0" x1="41" y1="202.9" x2="44.3" y2="202.9"/>
		<g>
			<rect x="17.7" y="190.8" class="st0" width="6.2" height="6.2"/>
			<line class="st0" x1="21.9" y1="190.8" x2="21.9" y2="193.2"/>
			<line class="st0" x1="19.6" y1="193.9" x2="19.6" y2="196.3"/>
		</g>
		<line class="st0" x1="44.3" y1="186.1" x2="44.3" y2="207.2"/>
	</g>
	<path class="st0" d="M358.7,175l1.2,2.8c0.4,0.9,1.2,1.5,2.2,1.5c0.2-0.3,0.5-0.6,0.9-0.8c0.4-0.2,0.8-0.2,1.2-0.1
		c0.6,0.1,1.1,0.5,1.4,1.1l1.2,2.8c0.4,1,0,2.1-1,2.6l-0.6,0.3c-2.9,1.2-6.2-0.1-7.5-3l-3.7-8.5c-1.2-2.9,0.1-6.2,3-7.5l0.6-0.3
		c1-0.4,2.1,0,2.6,1l1.2,2.8c0.3,0.6,0.2,1.3-0.1,1.8c-0.2,0.3-0.5,0.6-0.9,0.8c-0.4,0.2-0.8,0.2-1.2,0.1
		C358.5,173.1,358.3,174.1,358.7,175z"/>
	<g>
		<g>
			<path class="st0" d="M383.4,190.2C383.3,190.2,383.3,190.2,383.4,190.2l1.3,8.7l6.8-5.6C389.4,191.4,386.5,190.2,383.4,190.2z"/>
			<path class="st0" d="M371.3,200.6h9.9l-1.6-9.8C375.3,192.2,372,196,371.3,200.6z"/>
			<path class="st0" d="M388.7,200.6h6.7c-0.2-1.5-0.8-3-1.5-4.3L388.7,200.6z"/>
			<path class="st0" d="M383.4,214.7C383.4,214.7,383.4,214.7,383.4,214.7l-1.4-9l-7.5,5.2C376.7,213.2,379.8,214.7,383.4,214.7z"/>
			<path class="st0" d="M395.4,204.3h-9.9l1.6,9.8C391.4,212.7,394.7,208.9,395.4,204.3z"/>
		</g>
		<g>
			<polyline class="st0" points="371.2,203.8 369.8,206.5 372.5,207.9 			"/>
			<line class="st0" x1="371.1" y1="206" x2="380.9" y2="203.5"/>
		</g>
	</g>
	<g>
		<circle class="st0" cx="478.7" cy="197.8" r="1.9"/>
		<circle class="st0" cx="493.4" cy="196.8" r="1.6"/>
		<polygon class="st0" points="493.9,186.8 478.3,186.8 475.9,176.7 496.4,176.7 		"/>
		<path class="st0" d="M478.9,197.6l2.4-2.4h13.1c1.1,0,2-0.9,2-2l0,0c0-1.1-0.9-2-2-2h-15l-5.1-21.5h-4.9"/>
		<line class="st0" x1="476.8" y1="179.9" x2="489.8" y2="179.9"/>
		<line class="st0" x1="477.5" y1="183.3" x2="486.1" y2="183.3"/>
	</g>
	<g>
		<circle class="st0" cx="271.8" cy="242.6" r="1.9"/>
		<circle class="st0" cx="286.5" cy="241.6" r="1.6"/>
		<polygon class="st0" points="287,231.5 271.4,231.5 269,221.4 289.5,221.4 		"/>
		<path class="st0" d="M272,242.3l2.4-2.4h13.1c1.1,0,2-0.9,2-2v0c0-1.1-0.9-2-2-2h-15l-5.1-21.5h-4.9"/>
		<line class="st0" x1="269.9" y1="224.7" x2="282.9" y2="224.7"/>
		<line class="st0" x1="270.6" y1="228" x2="279.3" y2="228"/>
	</g>
	<g>
		<circle class="st0" cx="38" cy="167.2" r="1.9"/>
		<circle class="st0" cx="23.3" cy="166.2" r="1.6"/>
		<polygon class="st0" points="22.8,156.2 38.4,156.2 40.8,146.1 20.3,146.1 		"/>
		<path class="st0" d="M37.8,167l-2.4-2.4H22.4c-1.1,0-2-0.9-2-2l0,0c0-1.1,0.9-2,2-2h15l5.1-21.5h4.9"/>
		<line class="st0" x1="40" y1="149.3" x2="26.9" y2="149.3"/>
		<line class="st0" x1="39.2" y1="152.7" x2="30.6" y2="152.7"/>
	</g>
	<g>
		<path class="st0" d="M201.4,176.4l3.3-0.4l-0.5-3.9l-3.3,0.4c-0.1-0.3-0.2-0.7-0.4-1l2.7-1.9l-2.2-3.2l-2.7,1.9
			c-0.2-0.2-0.5-0.5-0.8-0.7l1.5-3l-3.5-1.8l-1.5,3c-0.5-0.1-1-0.2-1.5-0.3V162h-3.9v3.8c-0.4,0.1-0.7,0.2-1.1,0.3l-1.7-2.9l-3.4,2
			l1.7,2.9c-0.3,0.2-0.5,0.5-0.7,0.7l-2.8-1.8l-2.1,3.3l2.8,1.8c-0.1,0.3-0.2,0.7-0.3,1l-3.3-0.3l-0.3,3.9l3.3,0.3
			c0,0.4,0.1,0.7,0.2,1l-3.1,1.3l1.5,3.6l3.1-1.3c0.2,0.3,0.4,0.6,0.6,0.8l-2.1,2.6l3,2.5l2.1-2.6c0.3,0.2,0.6,0.3,0.9,0.5l-0.7,3.3
			l3.8,0.8l0.7-3.3c0.1,0,0.2,0,0.2,0c0.3,0,0.5,0,0.8,0l0.9,3.2l3.8-1l-0.9-3.2c0.3-0.2,0.6-0.3,0.9-0.5l2.3,2.4l2.9-2.6l-2.3-2.4
			c0.2-0.3,0.4-0.6,0.6-0.9l3.1,1.1l1.3-3.7l-3.1-1.1C201.3,177.1,201.4,176.8,201.4,176.4z M191,181.4c-3.1,0-5.5-2.5-5.5-5.5
			c0-3.1,2.5-5.5,5.5-5.5c3.1,0,5.5,2.5,5.5,5.5C196.6,178.9,194.1,181.4,191,181.4z"/>
		<circle class="st0" cx="191" cy="175.9" r="5.5"/>
	</g>
	<g>
		<path class="st0" d="M351.2,211.3l2.6-0.3l-0.4-3l-2.6,0.3c-0.1-0.3-0.2-0.5-0.3-0.8l2.1-1.5l-1.8-2.5l-2.1,1.5
			c-0.2-0.2-0.4-0.4-0.6-0.5l1.2-2.3l-2.7-1.4l-1.2,2.3c-0.4-0.1-0.8-0.2-1.2-0.3V200h-3.1v3c-0.3,0.1-0.6,0.2-0.9,0.3l-1.3-2.2
			l-2.6,1.6l1.3,2.2c-0.2,0.2-0.4,0.4-0.6,0.6l-2.2-1.4l-1.6,2.6l2.2,1.4c-0.1,0.3-0.2,0.5-0.3,0.8l-2.6-0.2l-0.2,3.1l2.6,0.2
			c0,0.3,0.1,0.5,0.1,0.8l-2.4,1l1.2,2.8l2.4-1c0.2,0.2,0.3,0.4,0.5,0.7l-1.7,2l2.4,1.9l1.7-2c0.2,0.1,0.5,0.3,0.7,0.4l-0.5,2.5
			l3,0.6l0.5-2.6c0.1,0,0.1,0,0.2,0c0.2,0,0.4,0,0.6,0l0.7,2.5l2.9-0.8l-0.7-2.5c0.2-0.1,0.5-0.3,0.7-0.4l1.8,1.9l2.2-2.1l-1.8-1.9
			c0.2-0.2,0.3-0.4,0.5-0.7l2.5,0.9l1-2.9l-2.5-0.9C351.1,211.8,351.2,211.6,351.2,211.3z M343,215.2c-2.4,0-4.3-1.9-4.3-4.3
			c0-2.4,1.9-4.3,4.3-4.3c2.4,0,4.3,1.9,4.3,4.3C347.4,213.2,345.4,215.2,343,215.2z"/>
		<circle class="st0" cx="343" cy="210.8" r="4.3"/>
	</g>
	<path class="st0" d="M396.2,169.5l1.6-0.1l-0.1-2.8l-1.7,0.1c-0.1-0.5-0.3-1-0.5-1.5l1.5-0.9l-1.4-2.4l-1.6,1
		c-0.3-0.4-0.7-0.7-1.1-1l1-1.5l-2.3-1.5l-1,1.6c-0.4-0.2-0.8-0.3-1.2-0.4v-1.7h-2.8v1.5c-0.4,0-0.8,0.1-1.2,0.2l-0.6-1.3l-2.5,1.2
		l0.5,1.2c-0.5,0.3-1,0.6-1.5,1l-1-0.8l-1.7,2.2l0.9,0.7c-0.3,0.5-0.6,1.1-0.8,1.7l-1.1-0.2l-0.4,2.7l1,0.2c0,0.2,0,0.3,0,0.5
		c0,0.5,0,0.9,0.1,1.4l-1,0.3l0.9,2.6l1-0.3c0.3,0.6,0.6,1.1,1,1.6l-0.8,0.8l2,1.9l0.8-0.8c0.5,0.4,1,0.7,1.6,0.9l-0.3,1.2l2.7,0.7
		l0.3-1.3c0.3,0,0.6,0.1,1,0.1c0.2,0,0.3,0,0.5,0l0.2,1l2.7-0.4l-0.2-1.2c0.6-0.2,1.1-0.5,1.7-0.8l0.7,0.9l2.2-1.6l-0.8-1.1
		c0.4-0.4,0.7-0.9,1-1.4l1.2,0.6l1.2-2.5l-1.4-0.7C396.1,170.6,396.2,170,396.2,169.5z M387.3,170.6c-0.9,0-1.6-0.7-1.6-1.6
		c0-0.9,0.7-1.6,1.6-1.6c0.9,0,1.6,0.7,1.6,1.6C388.9,169.9,388.2,170.6,387.3,170.6z"/>
	<path class="st0" d="M527.2,208l1.6-0.1l-0.1-2.8l-1.7,0.1c-0.1-0.5-0.3-1-0.5-1.5l1.5-0.9l-1.4-2.4l-1.6,1c-0.3-0.4-0.7-0.7-1.1-1
		l1-1.5l-2.3-1.5l-1,1.6c-0.4-0.2-0.8-0.3-1.2-0.4V197h-2.8v1.5c-0.4,0-0.8,0.1-1.2,0.2l-0.6-1.3l-2.5,1.2l0.5,1.2
		c-0.5,0.3-1,0.6-1.5,1l-1-0.8l-1.7,2.2l0.9,0.7c-0.3,0.5-0.6,1.1-0.8,1.7l-1.1-0.2l-0.4,2.7l1,0.2c0,0.2,0,0.3,0,0.5
		c0,0.5,0,0.9,0.1,1.4l-1,0.3l0.9,2.6l1-0.3c0.3,0.6,0.6,1.1,1,1.6l-0.8,0.8l2,1.9l0.8-0.8c0.5,0.4,1,0.7,1.6,0.9l-0.3,1.2l2.7,0.7
		l0.3-1.3c0.3,0,0.6,0.1,1,0.1c0.2,0,0.3,0,0.5,0l0.2,1l2.7-0.4l-0.2-1.2c0.6-0.2,1.1-0.5,1.7-0.8l0.7,0.9l2.2-1.6l-0.8-1.1
		c0.4-0.4,0.7-0.9,1-1.4l1.2,0.6l1.2-2.5l-1.4-0.7C527.1,209.1,527.2,208.5,527.2,208z M518.3,209.1c-0.9,0-1.6-0.7-1.6-1.6
		c0-0.9,0.7-1.6,1.6-1.6c0.9,0,1.6,0.7,1.6,1.6C519.9,208.4,519.2,209.1,518.3,209.1z"/>
	<circle class="st0" cx="370.1" cy="169.6" r="1.3"/>
	<circle class="st0" cx="474.2" cy="140.6" r="1.3"/>
	<circle class="st0" cx="205.3" cy="196.7" r="1.3"/>
	<circle class="st0" cx="65.8" cy="210.9" r="1.3"/>
	<circle class="st0" cx="183.6" cy="140.2" r="1.3"/>
	<circle class="st0" cx="120.1" cy="148" r="1.3"/>
	<circle class="st0" cx="163.9" cy="170.3" r="1.3"/>
	<circle class="st0" cx="44.2" cy="227.5" r="1.3"/>
	<circle class="st0" cx="77.2" cy="177.8" r="1.3"/>
	<circle class="st0" cx="198.4" cy="204.6" r="1.3"/>
	<circle class="st0" cx="463" cy="150.9" r="1.3"/>
	<circle class="st0" cx="404.9" cy="196.3" r="1.3"/>
	<circle class="st0" cx="343.8" cy="175.7" r="1.3"/>
	<circle class="st0" cx="65.8" cy="230.1" r="1.3"/>
	<circle class="st0" cx="130.5" cy="161.2" r="1.3"/>
	<circle class="st0" cx="515.9" cy="135.2" r="1.3"/>
	<circle class="st0" cx="375.3" cy="224.1" r="1.3"/>
	<circle class="st0" cx="108.7" cy="135.4" r="1.3"/>
	<circle class="st0" cx="470" cy="214.1" r="1.3"/>
	<circle class="st0" cx="506.2" cy="187" r="1.3"/>
	<g>
		<line class="st0" x1="360.1" y1="157.2" x2="375.3" y2="157.2"/>
		<line class="st0" x1="365.3" y1="152.5" x2="374.7" y2="152.5"/>
	</g>
	<g>
		<line class="st0" x1="206" y1="151.6" x2="190.9" y2="151.6"/>
		<line class="st0" x1="200.8" y1="147" x2="191.5" y2="147"/>
	</g>
	<g>
		<line class="st0" x1="34.4" y1="220.7" x2="19.2" y2="220.7"/>
		<line class="st0" x1="29.2" y1="216.1" x2="19.8" y2="216.1"/>
	</g>
	<line class="st0" x1="473.3" y1="203.5" x2="468.7" y2="203.5"/>
	<line class="st0" x1="57.3" y1="195.8" x2="52.7" y2="195.8"/>
	<line class="st0" x1="46.7" y1="173.2" x2="42" y2="173.2"/>
	<line class="st0" x1="552.9" y1="150.9" x2="548.3" y2="150.9"/>
	<line class="st0" x1="248" y1="151.1" x2="243.4" y2="151.1"/>
	<line class="st0" x1="303.1" y1="177.9" x2="298.5" y2="177.9"/>
	<line class="st0" x1="367.6" y1="217.1" x2="363" y2="217.1"/>
	<line class="st0" x1="93.2" y1="134.2" x2="88.6" y2="134.2"/>
	<line class="st0" x1="362.5" y1="195.9" x2="357.9" y2="195.9"/>
	<line class="st0" x1="190.4" y1="213.9" x2="185.8" y2="213.9"/>
	<line class="st0" x1="108.1" y1="149.3" x2="103.5" y2="149.3"/>
	<line class="st0" x1="197.4" y1="223.7" x2="192.8" y2="223.7"/>
	<line class="st0" x1="468.7" y1="194.5" x2="464" y2="194.5"/>
	<line class="st0" x1="184.7" y1="198" x2="180.1" y2="198"/>
	<line class="st0" x1="131.4" y1="137.5" x2="126.8" y2="137.5"/>
	<line class="st0" x1="243.9" y1="221" x2="239.3" y2="221"/>
	<line class="st0" x1="421.2" y1="179.5" x2="416.6" y2="179.5"/>
	<line class="st0" x1="162.1" y1="237.6" x2="157.5" y2="237.6"/>
	<line class="st0" x1="106.6" y1="197.9" x2="102" y2="197.9"/>
	<line class="st0" x1="122.6" y1="214.8" x2="118" y2="214.8"/>
	<g>
		<line class="st0" x1="391.3" y1="219.4" x2="406.5" y2="219.4"/>
		<line class="st0" x1="396.5" y1="214.8" x2="405.9" y2="214.8"/>
	</g>
	<g>
		<line class="st0" x1="66" y1="223.7" x2="81.2" y2="223.7"/>
		<line class="st0" x1="71.2" y1="219" x2="80.6" y2="219"/>
	</g>
	<g>
		<line class="st0" x1="115.8" y1="185.4" x2="130.9" y2="185.4"/>
		<line class="st0" x1="121" y1="180.7" x2="130.3" y2="180.7"/>
	</g>
</g>
<g>
	<g>
		<path class="st0" d="M715.4,183.6c0.9-1.5,1.5-3.2,1.5-5c0-5.2-4.2-9.5-9.5-9.5c-5.2,0-9.5,4.2-9.5,9.5s4.2,9.5,9.5,9.5
			c1.5,0,2.9-0.4,4.2-1c1.9,1.5,4.5,1.3,6.2-0.4c0.1-0.1,0.2-0.2,0.3-0.3L715.4,183.6z"/>
		<path class="st0" d="M696.2,175.2c-5.2,0-9.5,4.2-9.5,9.5c0,1.9,0.5,3.6,1.5,5l-2.7,2.7c0.1,0.1,0.2,0.2,0.3,0.3
			c1.7,1.7,4.4,1.8,6.2,0.4c1.3,0.6,2.7,1,4.2,1c5.2,0,9.5-4.2,9.5-9.5S701.4,175.2,696.2,175.2z"/>
		<g>
			<circle class="st0" cx="692" cy="185.1" r="1.1"/>
			<circle class="st0" cx="696.2" cy="185.1" r="1.1"/>
			<circle class="st0" cx="700.4" cy="185.1" r="1.1"/>
		</g>
		<g>
			<circle class="st0" cx="703.8" cy="178.5" r="0.9"/>
			<circle class="st0" cx="707.2" cy="178.5" r="0.9"/>
			<circle class="st0" cx="710.5" cy="178.5" r="0.9"/>
		</g>
	</g>
	<path class="st0" d="M628.8,133.5c-3.8,0-6.8,3.1-6.8,6.8c0,1.3,0.4,2.6,1.1,3.6l-2,2c0.1,0.1,0.1,0.1,0.2,0.2
		c1.2,1.2,3.2,1.3,4.5,0.3c0.9,0.5,2,0.7,3.1,0.7c3.8,0,6.8-3.1,6.8-6.8C635.7,136.5,632.6,133.5,628.8,133.5z"/>
	<path class="st0" d="M618.2,129c3.8,0,6.8,3.1,6.8,6.8c0,1.3-0.4,2.6-1.1,3.6l2,2c-0.1,0.1-0.1,0.1-0.2,0.2
		c-1.2,1.2-3.2,1.3-4.5,0.3c-0.9,0.5-2,0.7-3.1,0.7c-3.8,0-6.8-3.1-6.8-6.8C611.4,132.1,614.4,129,618.2,129z"/>
	<g>
		<path class="st0" d="M1008.7,172.7c0,4.8-3.9,8.6-8.6,8.6s-8.6-3.9-8.6-8.6c0-4.8,3.9-12.4,8.6-12.4S1008.7,167.9,1008.7,172.7z"
			/>
		<path class="st0" d="M1004.8,159.8l0.9-4.5c0.2-0.9-0.6-1.7-1.4-1.5l-3,1c-0.8,0.3-1.6,0.3-2.4,0l-3.1-1c-0.8-0.3-1.6,0.5-1.4,1.5
			l0.9,4.5"/>
		<path class="st0" d="M1004.3,162.8h-8.5c-0.8,0-1.5-0.7-1.5-1.5l0,0c0-0.8,0.7-1.5,1.5-1.5h8.5c0.8,0,1.5,0.7,1.5,1.5l0,0
			C1005.8,162.1,1005.1,162.8,1004.3,162.8z"/>
		<text transform="matrix(1 0 0 1 997.4926 175.5634)" class="st0 st1 st2">$</text>
	</g>
	<g>
		<path class="st0" d="M878.5,151.6c0,4.8-3.9,8.6-8.6,8.6s-8.6-3.9-8.6-8.6c0-4.8,3.9-12.4,8.6-12.4S878.5,146.8,878.5,151.6z"/>
		<path class="st0" d="M874.6,138.7l0.9-4.5c0.2-0.9-0.6-1.7-1.4-1.5l-3,1c-0.8,0.3-1.6,0.3-2.4,0l-3.1-1c-0.8-0.3-1.6,0.5-1.4,1.5
			l0.9,4.5"/>
		<path class="st0" d="M874.1,141.7h-8.5c-0.8,0-1.5-0.7-1.5-1.5l0,0c0-0.8,0.7-1.5,1.5-1.5h8.5c0.8,0,1.5,0.7,1.5,1.5l0,0
			C875.6,141,874.9,141.7,874.1,141.7z"/>
		<text transform="matrix(1 0 0 1 867.3051 154.4559)" class="st0 st1 st2">$</text>
	</g>
	<g>
		<path class="st0" d="M661.2,173.1h-25.5c-1.1,0-2-0.9-2-2v-20.4c0-1.1,0.9-2,2-2h25.5c1.1,0,2,0.9,2,2v20.4
			C663.2,172.2,662.3,173.1,661.2,173.1z"/>
		<line class="st0" x1="633.8" y1="166.6" x2="663.2" y2="166.6"/>
		<circle class="st0" cx="648.5" cy="170" r="1.2"/>
		<rect x="645" y="173.1" class="st0" width="7.1" height="3.8"/>
		<path class="st0" d="M655.2,180.1h-13.5c-0.7,0-1.2-0.5-1.2-1.2v-0.8c0-0.7,0.5-1.2,1.2-1.2h13.5c0.7,0,1.2,0.5,1.2,1.2v0.8
			C656.4,179.5,655.9,180.1,655.2,180.1z"/>
	</g>
	<g>
		<path class="st0" d="M1096.9,176.5h-25.5c-1.1,0-2-0.9-2-2v-20.4c0-1.1,0.9-2,2-2h25.5c1.1,0,2,0.9,2,2v20.4
			C1098.9,175.6,1098,176.5,1096.9,176.5z"/>
		<line class="st0" x1="1069.4" y1="170.1" x2="1098.9" y2="170.1"/>
		<circle class="st0" cx="1084.1" cy="173.4" r="1.2"/>
		<rect x="1080.6" y="176.5" class="st0" width="7.1" height="3.8"/>
		<path class="st0" d="M1090.9,183.5h-13.5c-0.7,0-1.2-0.5-1.2-1.2v-0.8c0-0.7,0.5-1.2,1.2-1.2h13.5c0.7,0,1.2,0.5,1.2,1.2v0.8
			C1092,183,1091.5,183.5,1090.9,183.5z"/>
	</g>
	<g>
		<path class="st0" d="M668.7,198.6c-0.5,0-1-0.2-1.3-0.6l-6-6c-0.7-0.7-0.7-1.9,0-2.7c0.7-0.7,1.9-0.7,2.7,0l4.5,4.5l7-9
			c0.6-0.8,1.8-1,2.7-0.3c0.8,0.6,1,1.8,0.3,2.7l-8.3,10.7c-0.3,0.4-0.8,0.7-1.4,0.7C668.8,198.6,668.7,198.6,668.7,198.6z"/>
	</g>
	<g>
		<path class="st0" d="M799.6,167.3c-0.5,0-1-0.2-1.3-0.6l-6-6c-0.7-0.7-0.7-1.9,0-2.7c0.7-0.7,1.9-0.7,2.7,0l4.5,4.5l7-9
			c0.6-0.8,1.8-1,2.7-0.3c0.8,0.6,1,1.8,0.3,2.7l-8.3,10.7c-0.3,0.4-0.8,0.7-1.4,0.7C799.7,167.3,799.7,167.3,799.6,167.3z"/>
	</g>
	<g>
		<path class="st0" d="M852.6,200.8c-0.5,0-1-0.2-1.3-0.6l-6-6c-0.7-0.7-0.7-1.9,0-2.7c0.7-0.7,1.9-0.7,2.7,0l4.5,4.5l7-9
			c0.6-0.8,1.8-1,2.7-0.3c0.8,0.6,1,1.8,0.3,2.7l-8.3,10.7c-0.3,0.4-0.8,0.7-1.4,0.7C852.7,200.8,852.7,200.8,852.6,200.8z"/>
	</g>
	<g>
		<rect x="752.7" y="209" class="st0" width="4" height="11.4"/>
		<rect x="760.5" y="206" class="st0" width="4" height="14.5"/>
		<rect x="768.2" y="202.7" class="st0" width="4" height="17.7"/>
		<rect x="775.9" y="197.7" class="st0" width="4" height="22.7"/>
		<path class="st0" d="M779.7,186.5c-6.4,7.6-12.4,14.4-26.9,14.4"/>
		<polyline class="st0" points="775,186.5 779.7,186.5 779.7,191.1 		"/>
	</g>
	<g>
		
			<rect x="849.3" y="148" transform="matrix(-1 -1.224647e-016 1.224647e-016 -1 1701.9271 305.3627)" class="st0" width="3.3" height="9.3"/>
		
			<rect x="843" y="145.5" transform="matrix(-1 -1.224647e-016 1.224647e-016 -1 1689.2413 302.8297)" class="st0" width="3.3" height="11.9"/>
		
			<rect x="836.6" y="142.8" transform="matrix(-1 -1.224647e-016 1.224647e-016 -1 1676.5555 300.1335)" class="st0" width="3.3" height="14.6"/>
		
			<rect x="830.3" y="138.7" transform="matrix(-1 -1.224647e-016 1.224647e-016 -1 1663.8698 296.0208)" class="st0" width="3.3" height="18.7"/>
		<path class="st0" d="M830.5,129.5c5.2,6.2,10.2,11.8,22.1,11.8"/>
		<polyline class="st0" points="834.3,129.5 830.5,129.5 830.5,133.3 		"/>
	</g>
	<path class="st0" d="M892.2,134.2c-3.7,0-6.7,3-6.7,6.7c0,4,6.7,13.4,6.7,13.4s6.7-9.5,6.7-13.4
		C898.9,137.2,895.9,134.2,892.2,134.2z M892.2,142.7c-1.4,0-2.5-1.1-2.5-2.5s1.1-2.5,2.5-2.5c1.4,0,2.5,1.1,2.5,2.5
		S893.6,142.7,892.2,142.7z"/>
	<path class="st0" d="M772.5,159c-3.7,0-6.7,3-6.7,6.7c0,4,6.7,13.4,6.7,13.4s6.7-9.5,6.7-13.4C779.2,162,776.2,159,772.5,159z
		 M772.5,167.5c-1.4,0-2.5-1.1-2.5-2.5s1.1-2.5,2.5-2.5c1.4,0,2.5,1.1,2.5,2.5S773.9,167.5,772.5,167.5z"/>
	<path class="st0" d="M609.1,152.4c-3.7,0-6.7,3-6.7,6.7c0,4,6.7,13.4,6.7,13.4s6.7-9.5,6.7-13.4
		C615.8,155.4,612.8,152.4,609.1,152.4z M609.1,160.9c-1.4,0-2.5-1.1-2.5-2.5s1.1-2.5,2.5-2.5c1.4,0,2.5,1.1,2.5,2.5
		S610.5,160.9,609.1,160.9z"/>
	<path class="st0" d="M1040.9,197.7c-3.7,0-6.7,3-6.7,6.7c0,4,6.7,13.4,6.7,13.4s6.7-9.5,6.7-13.4
		C1047.5,200.7,1044.6,197.7,1040.9,197.7z M1040.9,206.1c-1.4,0-2.5-1.1-2.5-2.5c0-1.4,1.1-2.5,2.5-2.5c1.4,0,2.5,1.1,2.5,2.5
		C1043.4,205,1042.2,206.1,1040.9,206.1z"/>
	<path class="st0" d="M875.6,170c-3.7,0-6.7,3-6.7,6.7c0,4,6.7,13.4,6.7,13.4s6.7-9.5,6.7-13.4C882.3,173,879.3,170,875.6,170z
		 M875.6,178.5c-1.4,0-2.5-1.1-2.5-2.5c0-1.4,1.1-2.5,2.5-2.5c1.4,0,2.5,1.1,2.5,2.5C878.1,177.4,877,178.5,875.6,178.5z"/>
	<g>
		<g>
			<path class="st0" d="M980.1,194.1v5.4c0,2.6,2.1,4.6,4.6,4.6h9l7,5.1l-0.4-5.1c2.6,0,4.6-2.1,4.6-4.6v-5.4c0-2.6-2.1-4.6-4.6-4.6
				h-15.6C982.2,189.5,980.1,191.6,980.1,194.1z"/>
			<line class="st0" x1="997.6" y1="193.5" x2="985.2" y2="193.5"/>
			<line class="st0" x1="1000.7" y1="199.9" x2="991.8" y2="199.9"/>
			<line class="st0" x1="1000.7" y1="196.7" x2="994.5" y2="196.7"/>
			<line class="st0" x1="989.5" y1="196.7" x2="985.5" y2="196.7"/>
		</g>
		<g>
			<path class="st0" d="M988.3,200.9v6.4c0,3-2.5,5.5-5.5,5.5h-10.6l-8.2,6l0.4-6c-3,0-5.5-2.5-5.5-5.5v-6.4c0-3,2.5-5.5,5.5-5.5
				h18.4C985.8,195.4,988.3,197.8,988.3,200.9z"/>
			<line class="st0" x1="967.7" y1="200.1" x2="982.4" y2="200.1"/>
			<line class="st0" x1="964" y1="207.7" x2="974.5" y2="207.7"/>
			<line class="st0" x1="964" y1="203.9" x2="971.4" y2="203.9"/>
			<line class="st0" x1="977.2" y1="203.9" x2="981.9" y2="203.9"/>
		</g>
	</g>
	<g>
		<g>
			<path class="st0" d="M811.7,175.3v5.4c0,2.6,2.1,4.6,4.6,4.6h9l7,5.1l-0.4-5.1c2.6,0,4.6-2.1,4.6-4.6v-5.4c0-2.6-2.1-4.6-4.6-4.6
				h-15.6C813.8,170.6,811.7,172.7,811.7,175.3z"/>
			<line class="st0" x1="829.2" y1="174.6" x2="816.7" y2="174.6"/>
			<line class="st0" x1="832.3" y1="181.1" x2="823.4" y2="181.1"/>
			<line class="st0" x1="832.3" y1="177.8" x2="826" y2="177.8"/>
			<line class="st0" x1="821.1" y1="177.8" x2="817.1" y2="177.8"/>
		</g>
		<g>
			<path class="st0" d="M819.8,182v6.4c0,3-2.5,5.5-5.5,5.5h-10.6l-8.2,6l0.4-6c-3,0-5.5-2.5-5.5-5.5V182c0-3,2.5-5.5,5.5-5.5h18.4
				C817.4,176.5,819.8,179,819.8,182z"/>
			<line class="st0" x1="799.2" y1="181.2" x2="813.9" y2="181.2"/>
			<line class="st0" x1="795.5" y1="188.8" x2="806" y2="188.8"/>
			<line class="st0" x1="795.5" y1="185" x2="802.9" y2="185"/>
			<line class="st0" x1="808.8" y1="185" x2="813.4" y2="185"/>
		</g>
	</g>
	<g>
		<circle class="st0" cx="628.6" cy="192.9" r="13.1"/>
		<circle class="st0" cx="628.6" cy="192.9" r="9.6"/>
		<line class="st0" x1="628.6" y1="179.8" x2="628.6" y2="183.3"/>
		<line class="st0" x1="639.8" y1="186.2" x2="636.9" y2="188"/>
		<line class="st0" x1="620.3" y1="188.2" x2="617.4" y2="186.3"/>
		<line class="st0" x1="619.1" y1="184" x2="621.5" y2="186.5"/>
		<text transform="matrix(1 0 0 1 625.3569 195.7802)" class="st0 st1 st3">%</text>
	</g>
	<g>
		<circle class="st0" cx="1085.3" cy="124.7" r="13.1"/>
		<circle class="st0" cx="1085.3" cy="124.7" r="9.6"/>
		<line class="st0" x1="1085.3" y1="111.6" x2="1085.3" y2="115.1"/>
		<line class="st0" x1="1096.5" y1="118" x2="1093.5" y2="119.8"/>
		<line class="st0" x1="1076.9" y1="120" x2="1074" y2="118.1"/>
		<line class="st0" x1="1075.7" y1="115.8" x2="1078.1" y2="118.3"/>
		<text transform="matrix(1 0 0 1 1081.9917 127.5653)" class="st0 st1 st3">%</text>
	</g>
	<g>
		<g>
			<path class="st0" d="M692.7,214.4v21.5h0.1c1.8,0,3.2-1.3,3.5-3L699,214"/>
			<g>
				<circle class="st0" cx="706.9" cy="209.2" r="4.4"/>
				<path class="st0" d="M704.5,199.8v18.9c0-1.2-0.5-2.3-1.3-3.1c-0.8-0.8-1.9-1.3-3.1-1.3h-7.9c-2.8,0-5.1-2.3-5.1-5
					c0-1.4,0.6-2.7,1.5-3.6c0.9-0.9,2.2-1.5,3.6-1.5h7.9C702.5,204.2,704.5,202.2,704.5,199.8z"/>
				<line class="st0" x1="695.4" y1="204.2" x2="695.4" y2="214"/>
				<path class="st0" d="M705.7,220.7L705.7,220.7c-0.7,0-1.2-0.5-1.2-1.2v-20.9c0-0.7,0.5-1.2,1.2-1.2l0,0c0.7,0,1.2,0.5,1.2,1.2
					v20.9C706.9,220.1,706.4,220.7,705.7,220.7z"/>
			</g>
		</g>
		<g>
			<g>
				<line class="st0" x1="721.5" y1="196.5" x2="725.4" y2="193.5"/>
				<line class="st0" x1="712.5" y1="203.3" x2="718.1" y2="199.1"/>
			</g>
			<g>
				<line class="st0" x1="718" y1="204.8" x2="713.6" y2="207"/>
				<line class="st0" x1="728.1" y1="199.7" x2="721.8" y2="202.9"/>
			</g>
			<g>
				<line class="st0" x1="721.5" y1="221.6" x2="725.4" y2="224.5"/>
				<line class="st0" x1="712.5" y1="214.7" x2="718.1" y2="219"/>
			</g>
			<g>
				<line class="st0" x1="718" y1="213.2" x2="713.6" y2="211.1"/>
				<line class="st0" x1="728.1" y1="218.4" x2="721.8" y2="215.2"/>
			</g>
			<line class="st0" x1="716.4" y1="209.1" x2="719" y2="209.1"/>
			<line class="st0" x1="721.8" y1="209.1" x2="727.3" y2="209.1"/>
			<line class="st0" x1="730.6" y1="209.1" x2="732.8" y2="209.1"/>
		</g>
	</g>
	<g>
		<g>
			<path class="st0" d="M954.5,171.2L954.5,171.2c-0.9,0-1.6-0.7-1.6-1.6v-6.4c0-0.9,0.7-1.6,1.6-1.6l0,0c0.9,0,1.6,0.7,1.6,1.6v6.4
				C956.1,170.4,955.4,171.2,954.5,171.2z"/>
			<path class="st0" d="M979.9,171.2L979.9,171.2c-0.9,0-1.6-0.7-1.6-1.6v-6.4c0-0.9,0.7-1.6,1.6-1.6l0,0c0.9,0,1.6,0.7,1.6,1.6v6.4
				C981.5,170.4,980.8,171.2,979.9,171.2z"/>
		</g>
		<path class="st0" d="M954.5,161.5c0-7,5.7-12.7,12.7-12.7s12.7,5.7,12.7,12.7"/>
		<g>
			<path class="st0" d="M978.8,171.2l-1.6,4.2c-1.4,3.6-5.3,5.6-9,4.5l0,0"/>
			<circle class="st0" cx="967.2" cy="179.2" r="1.9"/>
		</g>
	</g>
	<g>
		<path class="st0" d="M848.5,230.4v1.8c0,1.7,1.4,3,3,3h19.7"/>
		<path class="st0" d="M854.2,230.4V208h19.8v24.5c0,1.5-1.2,2.7-2.7,2.7h0c-1.5,0-2.7-1.2-2.7-2.7v-2.1h-20l0,0"/>
		<g>
			<line class="st0" x1="857.8" y1="213.1" x2="868.5" y2="213.1"/>
			<line class="st0" x1="857.8" y1="223.7" x2="868.5" y2="223.7"/>
			<line class="st0" x1="857.8" y1="220.2" x2="868.5" y2="220.2"/>
			<line class="st0" x1="857.8" y1="216.6" x2="865.1" y2="216.6"/>
		</g>
	</g>
	<g>
		<path class="st0" d="M1058.7,155.1h-31.2c-1,0-1.8-0.8-1.8-1.8v-17.4c0-1,0.8-1.8,1.8-1.8h31.2c1,0,1.8,0.8,1.8,1.8v17.4
			C1060.6,154.3,1059.8,155.1,1058.7,155.1z"/>
		<line class="st0" x1="1029.4" y1="150.9" x2="1038.5" y2="150.9"/>
		<line class="st0" x1="1042.7" y1="150.9" x2="1049.4" y2="150.9"/>
		<line class="st0" x1="1053.6" y1="150.9" x2="1056.9" y2="150.9"/>
		<g>
			<rect x="1030.3" y="138.7" class="st0" width="6.2" height="6.2"/>
			<line class="st0" x1="1034.4" y1="138.7" x2="1034.4" y2="141.2"/>
			<line class="st0" x1="1032.2" y1="141.8" x2="1032.2" y2="144.3"/>
		</g>
		<line class="st0" x1="1056.9" y1="134.1" x2="1056.9" y2="155.1"/>
	</g>
	<g>
		<path class="st0" d="M593.6,199.4h-31.2c-1,0-1.8-0.8-1.8-1.8v-17.4c0-1,0.8-1.8,1.8-1.8h31.2c1,0,1.8,0.8,1.8,1.8v17.4
			C595.4,198.6,594.6,199.4,593.6,199.4z"/>
		<line class="st0" x1="564.3" y1="195.1" x2="573.3" y2="195.1"/>
		<line class="st0" x1="577.6" y1="195.1" x2="584.2" y2="195.1"/>
		<line class="st0" x1="588.5" y1="195.1" x2="591.8" y2="195.1"/>
		<g>
			<rect x="565.1" y="182.9" class="st0" width="6.2" height="6.2"/>
			<line class="st0" x1="569.3" y1="182.9" x2="569.3" y2="185.4"/>
			<line class="st0" x1="567" y1="186.1" x2="567" y2="188.5"/>
		</g>
		<line class="st0" x1="591.8" y1="178.3" x2="591.8" y2="199.4"/>
	</g>
	<path class="st0" d="M906.1,167.2l1.2,2.8c0.4,0.9,1.2,1.5,2.2,1.5c0.2-0.3,0.5-0.6,0.9-0.8c0.4-0.2,0.8-0.2,1.2-0.1
		c0.6,0.1,1.1,0.5,1.4,1.1l1.2,2.8c0.4,1,0,2.1-1,2.6l-0.6,0.3c-2.9,1.2-6.2-0.1-7.5-3l-3.7-8.5c-1.2-2.9,0.1-6.2,3-7.5l0.6-0.3
		c1-0.4,2.1,0,2.6,1l1.2,2.8c0.3,0.6,0.2,1.3-0.1,1.8c-0.2,0.3-0.5,0.6-0.9,0.8c-0.4,0.2-0.8,0.2-1.2,0.1
		C905.9,165.2,905.8,166.3,906.1,167.2z"/>
	<g>
		<g>
			<path class="st0" d="M930.8,182.4C930.8,182.4,930.7,182.4,930.8,182.4l1.3,8.7l6.8-5.6C936.8,183.6,933.9,182.4,930.8,182.4z"/>
			<path class="st0" d="M918.7,192.7h9.9L927,183C922.7,184.4,919.4,188.1,918.7,192.7z"/>
			<path class="st0" d="M936.1,192.7h6.7c-0.2-1.5-0.8-3-1.5-4.3L936.1,192.7z"/>
			<path class="st0" d="M930.8,206.9C930.8,206.9,930.8,206.9,930.8,206.9l-1.4-9l-7.5,5.2C924.1,205.4,927.3,206.9,930.8,206.9z"/>
			<path class="st0" d="M942.9,196.5H933l1.6,9.8C938.9,204.9,942.1,201.1,942.9,196.5z"/>
		</g>
		<g>
			<polyline class="st0" points="918.6,196 917.2,198.7 919.9,200.1 			"/>
			<line class="st0" x1="918.6" y1="198.2" x2="928.4" y2="195.7"/>
		</g>
	</g>
	<g>
		<circle class="st0" cx="1026.1" cy="190" r="1.9"/>
		<circle class="st0" cx="1040.9" cy="189" r="1.6"/>
		<polygon class="st0" points="1041.4,179 1025.7,179 1023.4,168.9 1043.8,168.9 		"/>
		<path class="st0" d="M1026.3,189.8l2.4-2.4h13.1c1.1,0,2-0.9,2-2l0,0c0-1.1-0.9-2-2-2h-15l-5.1-21.5h-4.9"/>
		<line class="st0" x1="1024.2" y1="172.1" x2="1037.3" y2="172.1"/>
		<line class="st0" x1="1024.9" y1="175.5" x2="1033.6" y2="175.5"/>
	</g>
	<g>
		<circle class="st0" cx="819.2" cy="234.7" r="1.9"/>
		<circle class="st0" cx="834" cy="233.7" r="1.6"/>
		<polygon class="st0" points="834.5,223.7 818.9,223.7 816.5,213.6 836.9,213.6 		"/>
		<path class="st0" d="M819.4,234.5l2.4-2.4h13.1c1.1,0,2-0.9,2-2v0c0-1.1-0.9-2-2-2h-15l-5.1-21.5h-4.9"/>
		<line class="st0" x1="817.3" y1="216.8" x2="830.4" y2="216.8"/>
		<line class="st0" x1="818" y1="220.2" x2="826.7" y2="220.2"/>
	</g>
	<g>
		<circle class="st0" cx="585.5" cy="159.4" r="1.9"/>
		<circle class="st0" cx="570.7" cy="158.4" r="1.6"/>
		<polygon class="st0" points="570.2,148.4 585.9,148.4 588.2,138.3 567.8,138.3 		"/>
		<path class="st0" d="M585.3,159.1l-2.4-2.4h-13.1c-1.1,0-2-0.9-2-2l0,0c0-1.1,0.9-2,2-2h15l5.1-21.5h4.9"/>
		<line class="st0" x1="587.4" y1="141.5" x2="574.3" y2="141.5"/>
		<line class="st0" x1="586.7" y1="144.9" x2="578" y2="144.9"/>
	</g>
	<g>
		<path class="st0" d="M748.8,168.6l3.3-0.4l-0.5-3.9l-3.3,0.4c-0.1-0.3-0.2-0.7-0.4-1l2.7-1.9l-2.2-3.2l-2.7,1.9
			c-0.2-0.2-0.5-0.5-0.8-0.7l1.5-3l-3.5-1.8l-1.5,3c-0.5-0.1-1-0.2-1.5-0.3v-3.6H736v3.8c-0.4,0.1-0.7,0.2-1.1,0.3l-1.7-2.9l-3.4,2
			l1.7,2.9c-0.3,0.2-0.5,0.5-0.7,0.7l-2.8-1.8l-2.1,3.3l2.8,1.8c-0.1,0.3-0.2,0.7-0.3,1l-3.3-0.3l-0.3,3.9l3.3,0.3
			c0,0.4,0.1,0.7,0.2,1l-3.1,1.3l1.5,3.6l3.1-1.3c0.2,0.3,0.4,0.6,0.6,0.8l-2.1,2.6l3,2.5l2.1-2.6c0.3,0.2,0.6,0.3,0.9,0.5l-0.7,3.3
			l3.8,0.8l0.7-3.3c0.1,0,0.2,0,0.2,0c0.3,0,0.5,0,0.8,0l0.9,3.2l3.8-1l-0.9-3.2c0.3-0.2,0.6-0.3,0.9-0.5l2.3,2.4l2.9-2.6l-2.3-2.4
			c0.2-0.3,0.4-0.6,0.6-0.9l3.1,1.1l1.3-3.7l-3.1-1.1C748.8,169.3,748.8,169,748.8,168.6z M738.5,173.6c-3.1,0-5.5-2.5-5.5-5.5
			c0-3.1,2.5-5.5,5.5-5.5c3.1,0,5.5,2.5,5.5,5.5C744,171.1,741.5,173.6,738.5,173.6z"/>
		<circle class="st0" cx="738.5" cy="168" r="5.5"/>
	</g>
	<g>
		<path class="st0" d="M898.6,203.5l2.6-0.3l-0.4-3l-2.6,0.3c-0.1-0.3-0.2-0.5-0.3-0.8l2.1-1.5l-1.8-2.5l-2.1,1.5
			c-0.2-0.2-0.4-0.4-0.6-0.5l1.2-2.3l-2.7-1.4l-1.2,2.3c-0.4-0.1-0.8-0.2-1.2-0.3v-2.8h-3.1v3c-0.3,0.1-0.6,0.2-0.9,0.3l-1.3-2.2
			l-2.6,1.6l1.3,2.2c-0.2,0.2-0.4,0.4-0.6,0.6l-2.2-1.4l-1.6,2.6l2.2,1.4c-0.1,0.3-0.2,0.5-0.3,0.8l-2.6-0.2l-0.2,3.1l2.6,0.2
			c0,0.3,0.1,0.5,0.1,0.8l-2.4,1l1.2,2.8l2.4-1c0.2,0.2,0.3,0.4,0.5,0.7l-1.7,2l2.4,1.9l1.7-2c0.2,0.1,0.5,0.3,0.7,0.4l-0.5,2.5
			l3,0.6l0.5-2.6c0.1,0,0.1,0,0.2,0c0.2,0,0.4,0,0.6,0l0.7,2.5l2.9-0.8l-0.7-2.5c0.2-0.1,0.5-0.3,0.7-0.4l1.8,1.9l2.2-2.1l-1.8-1.9
			c0.2-0.2,0.3-0.4,0.5-0.7l2.5,0.9l1-2.9l-2.5-0.9C898.6,204,898.6,203.7,898.6,203.5z M890.5,207.4c-2.4,0-4.3-1.9-4.3-4.3
			c0-2.4,1.9-4.3,4.3-4.3c2.4,0,4.3,1.9,4.3,4.3C894.8,205.4,892.9,207.4,890.5,207.4z"/>
		<circle class="st0" cx="890.5" cy="203" r="4.3"/>
	</g>
	<path class="st0" d="M943.6,161.6l1.6-0.1l-0.1-2.8l-1.7,0.1c-0.1-0.5-0.3-1-0.5-1.5l1.5-0.9l-1.4-2.4l-1.6,1
		c-0.3-0.4-0.7-0.7-1.1-1l1-1.5l-2.3-1.5l-1,1.6c-0.4-0.2-0.8-0.3-1.2-0.4v-1.7h-2.8v1.5c-0.4,0-0.8,0.1-1.2,0.2l-0.6-1.3l-2.5,1.2
		l0.5,1.2c-0.5,0.3-1,0.6-1.5,1l-1-0.8l-1.7,2.2l0.9,0.7c-0.3,0.5-0.6,1.1-0.8,1.7l-1.1-0.2l-0.4,2.7l1,0.2c0,0.2,0,0.3,0,0.5
		c0,0.5,0,0.9,0.1,1.4l-1,0.3l0.9,2.6l1-0.3c0.3,0.6,0.6,1.1,1,1.6l-0.8,0.8l2,1.9l0.8-0.8c0.5,0.4,1,0.7,1.6,0.9l-0.3,1.2l2.7,0.7
		l0.3-1.3c0.3,0,0.6,0.1,1,0.1c0.2,0,0.3,0,0.5,0l0.2,1l2.7-0.4l-0.2-1.2c0.6-0.2,1.1-0.5,1.7-0.8l0.7,0.9l2.2-1.6l-0.8-1.1
		c0.4-0.4,0.7-0.9,1-1.4l1.2,0.6l1.2-2.5l-1.4-0.7C943.5,162.8,943.6,162.2,943.6,161.6z M934.7,162.8c-0.9,0-1.6-0.7-1.6-1.6
		c0-0.9,0.7-1.6,1.6-1.6c0.9,0,1.6,0.7,1.6,1.6C936.3,162.1,935.6,162.8,934.7,162.8z"/>
	<path class="st0" d="M1074.6,200.2l1.6-0.1l-0.1-2.8l-1.7,0.1c-0.1-0.5-0.3-1-0.5-1.5l1.5-0.9l-1.4-2.4l-1.6,1
		c-0.3-0.4-0.7-0.7-1.1-1l1-1.5l-2.3-1.5l-1,1.6c-0.4-0.2-0.8-0.3-1.2-0.4v-1.7h-2.8v1.5c-0.4,0-0.8,0.1-1.2,0.2l-0.6-1.3l-2.5,1.2
		l0.5,1.2c-0.5,0.3-1,0.6-1.5,1l-1-0.8l-1.7,2.2l0.9,0.7c-0.3,0.5-0.6,1.1-0.8,1.7l-1.1-0.2l-0.4,2.7l1,0.2c0,0.2,0,0.3,0,0.5
		c0,0.5,0,0.9,0.1,1.4l-1,0.3l0.9,2.6l1-0.3c0.3,0.6,0.6,1.1,1,1.6l-0.8,0.8l2,1.9l0.8-0.8c0.5,0.4,1,0.7,1.6,0.9l-0.3,1.2l2.7,0.7
		l0.3-1.3c0.3,0,0.6,0.1,1,0.1c0.2,0,0.3,0,0.5,0l0.2,1l2.7-0.4l-0.2-1.2c0.6-0.2,1.1-0.5,1.7-0.8l0.7,0.9l2.2-1.6l-0.8-1.1
		c0.4-0.4,0.7-0.9,1-1.4l1.2,0.6l1.2-2.5l-1.4-0.7C1074.5,201.3,1074.6,200.7,1074.6,200.2z M1065.7,201.3c-0.9,0-1.6-0.7-1.6-1.6
		c0-0.9,0.7-1.6,1.6-1.6c0.9,0,1.6,0.7,1.6,1.6C1067.3,200.6,1066.6,201.3,1065.7,201.3z"/>
	<circle class="st0" cx="917.5" cy="161.8" r="1.3"/>
	<circle class="st0" cx="1021.6" cy="132.7" r="1.3"/>
	<circle class="st0" cx="752.7" cy="188.8" r="1.3"/>
	<circle class="st0" cx="613.3" cy="203" r="1.3"/>
	<circle class="st0" cx="731" cy="132.4" r="1.3"/>
	<circle class="st0" cx="667.6" cy="140.1" r="1.3"/>
	<circle class="st0" cx="711.3" cy="162.5" r="1.3"/>
	<circle class="st0" cx="591.7" cy="219.6" r="1.3"/>
	<circle class="st0" cx="624.7" cy="170" r="1.3"/>
	<circle class="st0" cx="745.9" cy="196.8" r="1.3"/>
	<circle class="st0" cx="1010.4" cy="143.1" r="1.3"/>
	<circle class="st0" cx="952.4" cy="188.5" r="1.3"/>
	<circle class="st0" cx="891.3" cy="167.9" r="1.3"/>
	<circle class="st0" cx="613.3" cy="222.3" r="1.3"/>
	<circle class="st0" cx="677.9" cy="153.4" r="1.3"/>
	<circle class="st0" cx="1063.4" cy="127.4" r="1.3"/>
	<circle class="st0" cx="922.8" cy="216.3" r="1.3"/>
	<circle class="st0" cx="656.2" cy="127.5" r="1.3"/>
	<circle class="st0" cx="1017.4" cy="206.3" r="1.3"/>
	<circle class="st0" cx="1053.6" cy="179.2" r="1.3"/>
	<g>
		<line class="st0" x1="907.6" y1="149.4" x2="922.8" y2="149.4"/>
		<line class="st0" x1="912.8" y1="144.7" x2="922.2" y2="144.7"/>
	</g>
	<g>
		<line class="st0" x1="753.5" y1="143.8" x2="738.3" y2="143.8"/>
		<line class="st0" x1="748.3" y1="139.1" x2="738.9" y2="139.1"/>
	</g>
	<g>
		<line class="st0" x1="581.8" y1="212.9" x2="566.6" y2="212.9"/>
		<line class="st0" x1="576.6" y1="208.2" x2="567.2" y2="208.2"/>
	</g>
	<line class="st0" x1="1020.7" y1="195.7" x2="1016.1" y2="195.7"/>
	<line class="st0" x1="604.7" y1="188" x2="600.1" y2="188"/>
	<line class="st0" x1="594.1" y1="165.4" x2="589.5" y2="165.4"/>
	<line class="st0" x1="1100.3" y1="143.1" x2="1095.7" y2="143.1"/>
	<line class="st0" x1="795.5" y1="143.3" x2="790.8" y2="143.3"/>
	<line class="st0" x1="850.5" y1="170.1" x2="845.9" y2="170.1"/>
	<line class="st0" x1="915.1" y1="209.3" x2="910.5" y2="209.3"/>
	<line class="st0" x1="640.7" y1="126.4" x2="636.1" y2="126.4"/>
	<line class="st0" x1="909.9" y1="188.1" x2="905.3" y2="188.1"/>
	<line class="st0" x1="737.8" y1="206.1" x2="733.2" y2="206.1"/>
	<line class="st0" x1="655.6" y1="141.5" x2="651" y2="141.5"/>
	<line class="st0" x1="744.8" y1="215.9" x2="740.2" y2="215.9"/>
	<line class="st0" x1="1016.1" y1="186.7" x2="1011.5" y2="186.7"/>
	<line class="st0" x1="732.1" y1="190.2" x2="727.5" y2="190.2"/>
	<line class="st0" x1="678.9" y1="129.7" x2="674.3" y2="129.7"/>
	<line class="st0" x1="791.3" y1="213.2" x2="786.7" y2="213.2"/>
	<line class="st0" x1="968.7" y1="171.7" x2="964.1" y2="171.7"/>
	<line class="st0" x1="709.6" y1="229.8" x2="705" y2="229.8"/>
	<line class="st0" x1="654" y1="190.1" x2="649.4" y2="190.1"/>
	<line class="st0" x1="670" y1="207" x2="665.4" y2="207"/>
	<g>
		<line class="st0" x1="938.7" y1="211.6" x2="953.9" y2="211.6"/>
		<line class="st0" x1="943.9" y1="207" x2="953.3" y2="207"/>
	</g>
	<g>
		<line class="st0" x1="613.5" y1="215.9" x2="628.6" y2="215.9"/>
		<line class="st0" x1="618.7" y1="211.2" x2="628" y2="211.2"/>
	</g>
	<g>
		<line class="st0" x1="663.2" y1="177.6" x2="678.4" y2="177.6"/>
		<line class="st0" x1="668.4" y1="172.9" x2="677.8" y2="172.9"/>
	</g>
</g>
</svg>
