<?xml version="1.0" encoding="utf-8"?>
<!-- Generator: Adobe Illustrator 19.2.0, SVG Export Plug-In . SVG Version: 6.00 Build 0)  -->
<svg version="1.1" id="Layer_1" xmlns="http://www.w3.org/2000/svg" xmlns:xlink="http://www.w3.org/1999/xlink" x="0px" y="0px"
	 viewBox="0 0 110.9 112.7" style="enable-background:new 0 0 110.9 112.7;" xml:space="preserve">
<style type="text/css">
	.st0{fill:#221F1F;}
	.st1{fill:#F08021;}
	.st2{fill:#00ACBD;}
	.st3{fill:#93D1BB;}
	.st4{fill:#61C4BA;}
	.st5{fill:#38BDBA;}
	.st6{fill:#00A8B7;}
	.st7{fill:#CAE4BD;}
	.st8{fill:#DFDCBF;}
	.st9{fill:#01B6B8;}
	.st10{fill:#00A3A6;}
	.st11{fill:#7ACABB;}
	.st12{fill:#00B3B8;}
	.st13{fill:#079DB0;}
	.st14{fill:#D44E32;}
	.st15{fill:#4CB3AC;}
	.st16{fill:#59180A;}
	.st17{fill:#F49CB5;}
	.st18{fill:#F17AA2;}
	.st19{fill:#FFFFFF;}
</style>
<g>
	<path class="st0" d="M43.5,96.1c-2-0.4-3-1.8-3.6-3.4c0.4-2.1,0.6-4.4-0.2-6.3c-0.9-1.9-3.2-3.2-5.3-3.9c-2.1-0.7-4.3-0.7-6.4-0.2
		c-2.3,0.6-3.5,2.4-4.4,4.3c0,0,0,0,0,0c-0.6,2.2-1.5,4.1-1.7,6.3c-0.3,2.2,0.1,5.1-1.7,6.9c-0.2,0.2,0,0.5,0.3,0.4
		c0.8-0.4,1.5-0.9,2.1-1.5c-0.4,1.9-0.1,3.9,0.3,5.9c-0.4,0.6-1,1.3-1.7,1.4c-0.2,0-0.4,0.3-0.3,0.4c-0.4,0.2-0.7,0.3-1,0.5
		c-1.2,0.6-2.1,1.9-2.4,3c-0.1,0.6-0.5,1.6,0.3,1.8c0.4,0.1,0.9-0.3,1.1-0.5c0.6-0.6,1.3-0.6,2.1-0.8c-0.1,0.3-0.2,0.7-0.2,1
		c0,0.6,0.2,1,0.9,1c0.4,0,0.7-0.3,1-0.5c0.7-0.5,1.4-0.9,2.2-1.2c-0.1,0.3-0.2,0.5-0.3,0.8c-0.1,0.5,0.3,1.1,1,0.9
		c0.8-0.2,1.4-0.7,2-1.1c1.9-1.1,3.6-0.4,5.5-0.1c1.2,0.2,2.8,0,3.8-0.7c0,0,0,0,0.1-0.1c0.9-0.1,1.8-0.5,2.6-1.2
		c1.3-1.2,1.1-2.6,0.3-3.8c0.4,0.3,0.7,0.6,1,1.1c0.2,0.3,0.6,0,0.6-0.2c0.2-1.2,0.4-2.7,0.1-4c0.1,0,0.2-0.1,0.2-0.2
		c0.2-1.5,0.3-2.6-0.2-4.1c-0.2-0.6-0.5-1.1-0.8-1.5c0.8,0.2,1.6,0.1,2.6,0C43.7,96.7,43.9,96.2,43.5,96.1z"/>
	<path class="st0" d="M65.2,96.7c1,0.1,1.8,0.2,2.6,0c-0.3,0.5-0.6,1-0.8,1.5c-0.5,1.5-0.3,2.6-0.2,4.1c0,0.1,0.1,0.2,0.2,0.2
		c-0.3,1.3-0.1,2.8,0.1,4c0,0.2,0.5,0.5,0.6,0.2c0.3-0.5,0.6-0.8,1-1.1c-0.7,1.2-1,2.6,0.3,3.8c0.8,0.7,1.7,1.1,2.6,1.2
		c0,0,0,0,0.1,0.1c0.9,0.7,2.6,0.9,3.8,0.7c1.9-0.3,3.7-1,5.5,0.1c0.7,0.4,1.3,0.8,2,1.1c0.7,0.2,1.1-0.4,1-0.9
		c-0.1-0.3-0.2-0.6-0.3-0.8c0.8,0.4,1.5,0.7,2.2,1.2c0.3,0.2,0.6,0.5,1,0.5c0.7,0,0.9-0.4,0.9-1c0-0.3-0.1-0.7-0.2-1
		c0.8,0.2,1.5,0.3,2.1,0.8c0.2,0.2,0.7,0.6,1.1,0.5c0.9-0.2,0.5-1.3,0.3-1.8c-0.3-1.2-1.2-2.4-2.4-3c-0.2-0.1-0.6-0.3-1-0.5
		c0.1-0.2-0.1-0.4-0.3-0.4c-0.8-0.1-1.3-0.8-1.7-1.4c0.4-2,0.7-4,0.3-5.9c0.6,0.6,1.3,1,2.1,1.5c0.3,0.2,0.5-0.1,0.3-0.4
		c-1.8-1.8-1.4-4.6-1.7-6.9c-0.3-2.3-1.1-4.2-1.7-6.3c0,0,0,0,0,0c-0.8-1.9-2.1-3.7-4.4-4.3c-2.1-0.6-4.3-0.5-6.4,0.2
		c-2.1,0.7-4.5,1.9-5.3,3.9c-0.9,1.9-0.7,4.2-0.2,6.3C68,94.3,67,95.7,65,96.1C64.6,96.2,64.8,96.7,65.2,96.7z"/>
	<path class="st1" d="M19,110.6c-0.2,0.1-0.4,0.4-0.6,0.5c-0.7,0.7-0.8-0.1-0.7-0.6c0.1-1.5,1.5-3.3,3.3-3.7c0.9,0.2,1.8,0.2,2.6,0
		c-0.2,0.4-0.4,0.8-0.6,1.2c-0.9,0.5-1.6,1.2-2,2.1C20.4,110.2,19.6,110.3,19,110.6z"/>
	<path class="st1" d="M24.9,110.5c0,0-0.1,0-0.2,0c-0.7,0.2-1.4,0.5-2,0.9c-0.3,0.2-0.5,0.4-0.8,0.6c-0.8,0.5-0.6-0.5-0.6-0.7
		c0.1-1.1,0.7-1.9,1.6-2.7c0,0.3,0.4,0.2,0.6,0c1-1.1,2.4-1.3,3.8-1.6c-0.5,0.6-0.8,1.2-1.1,1.8c-0.1,0.1,0,0.2,0,0.3
		C25.7,109.5,25.3,110,24.9,110.5z"/>
	<path class="st1" d="M29.1,110.4c-0.9,0.1-1.7,0.6-2.4,1c-0.8,0.5-1.7,0.7-1.4-0.5c0.2-0.7,0.7-1.3,1.3-1.8c0,0,0.1,0,0.1,0
		c1.7-0.9,3.4-1.8,5.5-1.2c0.1,0,0.1,0,0.2,0c-0.1,0.4-0.2,0.8-0.2,1.1c0,0.2,0.2,0.3,0.5,0.2c0.4-0.2,0.7-0.4,1.1-0.5
		c-0.2,0.5-0.5,0.9-1.1,1.1c-0.2,0.1-0.4,0.4-0.1,0.5c1.2,0.2,2.3,0.5,3.4,0.4C34.2,111.8,30.9,110.2,29.1,110.4z"/>
	<path class="st2" d="M41.9,96.5c-0.3,0-0.6,0-0.9-0.1c0,0-0.1,0-0.1,0c-0.1,0-0.2,0-0.3-0.1c-0.4-0.1-0.8-0.2-1.1-0.4
		c0.4,0.8,1,1.6,1.3,2.5c0.4,1.1,0.3,2,0.3,3c-0.3-0.7-0.7-1.3-1.3-1.7c0,0-0.1,0-0.1,0.1c0.7,0.7,1.2,1.6,1.4,2.5c0,0,0,0,0,0.1
		c0,0.1,0,0.1,0,0.1c0.2,0.9,0.1,1.9-0.1,2.8c0,0.1,0.1,0.2,0.1,0.3c0,0.2-0.2,0.3-0.4,0.2c-0.5-0.5-1.2-0.8-1.9-1
		c0.7,1.1,0.9,2.3,0.7,3.6c0,0.1-0.2,0.2-0.3,0.1c-0.2,0.4-0.6,0.8-1.1,1.1c-1.5,0.9-3.2,0.5-4.9,0.4c0.3-0.4,0.6-0.8,0.7-1.3
		c0.1,0,0.3-0.1,0.4-0.1c0.2,0,0.5-0.4,0.2-0.5c-0.6-0.2-1.2,0.2-1.8,0.5c0-0.2,0-0.4,0.1-0.6c-0.1-0.4,0-0.8,0.1-1.2
		c-0.2,0.2-0.4,0.5-0.6,0.8c0,0,0,0-0.1,0c-1.6-1-3.6-0.2-5.1,0.6c0.1-0.2,0.3-0.5,0.5-0.7c0,0,0-0.1,0-0.2c0.4-0.7,1-1.2,1.7-1.7
		c-0.7,0.1-1.2,0.4-1.7,0.8c0,0-0.1-0.1-0.2-0.1c-1.3,0-2.7,0.5-3.8,1.2c0.4-1,1.1-1.8,2.1-2.4c0.1-0.1,0.1-0.2-0.1-0.2
		c-0.7,0.2-1.3,0.7-1.8,1.2c-0.7,0.1-1.4,0.1-2.1,0.1c1.1-0.7,1.6-2,2-3.2c0-0.2,0-0.4,0-0.6c0,0,0,0,0-0.1c-0.2,0.5-0.5,1-0.8,1.5
		c0-0.7-0.1-1.5-0.1-2.2c0,0,0-0.1,0-0.1c-0.3-1.6-0.2-3.2,0.1-4.7c-0.2,0.4-0.4,0.8-0.5,1.2c-0.5,0.4-0.9,0.8-1.4,1.1
		c0.6-1.2,0.8-2.5,0.8-3.8c0-1.6,0.1-3.1,0.4-4.7c0.3-1.4,1-2.6,1.2-4c0,0,0,0,0,0c1.4-2,2.8-3.5,5.6-3.9c2.1-0.4,4.3,0.2,6.2,1.1
		c1.8,0.8,3.2,2.2,3.7,3.9c0.2,0.8,0.2,1.6,0.1,2.4c-0.1-0.3-0.1-0.6-0.2-0.9c0-0.1-0.1,0-0.1,0c0,0.6,0.1,1.2,0.2,1.8
		c-0.1,0.8-0.1,1.5-0.1,2.3c0,0.3,0.4,0.2,0.6,0c0.3,0.7,0.6,1.3,1.1,1.8c0.4,0.3,0.8,0.6,1.2,0.8C42.2,96.2,42.2,96.5,41.9,96.5z"
		/>
	<path class="st3" d="M41.2,102.5c0,0,0-0.1,0-0.1c0,0,0,0,0-0.1c-0.2-0.9-0.6-1.8-1.4-2.5c0,0,0-0.1,0.1-0.1c0.6,0.5,1,1.1,1.3,1.7
		c0-1,0.1-2-0.3-3c-0.3-0.8-0.9-1.6-1.3-2.4c0,0.7,0,1.5-0.1,2.2c0,0.2-0.2,0.3-0.4,0.1c-0.3-0.3-0.6-0.6-0.9-0.9
		c0.2,2.1,1,4.1,0.6,6.2c0,0.1-0.3,0.3-0.4,0.1c-0.5-0.9-1-1.7-1.7-2.5c0.1,1.2,0.4,2.4-0.2,3.5c-0.1,0.1-0.2,0.1-0.3,0.1
		c-1-0.6-1.7-1.4-2.4-2.3c-0.4,0.7-0.5,1.5-0.8,2.2c-0.1,0.1-0.2,0.2-0.4,0.1c-0.9-1-1.1-2.2-1.6-3.3c-1.3,1.2-2.1,3-4.1,3.5
		c-0.1,0-0.2-0.1-0.2-0.2c0.3-0.9,1-1.7,0.9-2.6c-0.5,0.2-1,0.4-1.5,0.6c-0.1,0-0.2,0-0.2-0.1c-0.1-1,0.5-2.2,0.1-3.1
		c-0.6,0.6-1.2,1.1-2,1.5c-0.1,0.1-0.2,0-0.2-0.1c-0.1-1.8,0.5-3.6,0.3-5.4c-0.8,0.5-1.5,1.1-2.3,1.6c-0.1,0.7-0.3,1.4-0.7,2.1
		c0.5-0.4,0.9-0.7,1.4-1.1c0.1-0.4,0.3-0.8,0.5-1.2c-0.2,1.6-0.4,3.2-0.1,4.7c0,0,0,0.1,0,0.1c0.1,0.7,0.1,1.5,0.1,2.2
		c0.3-0.5,0.6-1,0.8-1.5c0,0,0,0,0,0.1c0,0.2,0,0.4,0,0.6c-0.4,1.2-0.9,2.5-2,3.2c0.7,0,1.3,0,2.1-0.1c0.5-0.5,1.1-1,1.8-1.2
		c0.1,0,0.2,0.1,0.1,0.2c-0.9,0.6-1.7,1.4-2.1,2.4c1.1-0.7,2.5-1.2,3.8-1.2c0.1,0,0.1,0,0.2,0.1c0.4-0.4,1-0.7,1.7-0.8
		c-0.6,0.5-1.2,1-1.7,1.7c0,0.1,0,0.1,0,0.2c-0.2,0.2-0.3,0.4-0.5,0.7c1.6-0.8,3.5-1.6,5.1-0.6c0,0,0,0,0.1,0
		c0.1-0.3,0.3-0.6,0.6-0.8c-0.1,0.4-0.2,0.8-0.1,1.2c0,0.2-0.1,0.4-0.1,0.6c0.5-0.3,1.2-0.7,1.8-0.5c0.3,0.1,0,0.5-0.2,0.5
		c-0.2,0-0.3,0.1-0.4,0.1c-0.1,0.5-0.4,0.9-0.7,1.3c1.7,0.1,3.4,0.5,4.9-0.4c0.6-0.3,0.9-0.7,1.1-1.1c0.1,0,0.3,0,0.3-0.1
		c0.2-1.2,0-2.5-0.7-3.6c0.7,0.3,1.3,0.6,1.9,1c0.2,0.2,0.4,0,0.4-0.2c0-0.1,0-0.2-0.1-0.3C41.3,104.4,41.3,103.4,41.2,102.5z"/>
	<path class="st1" d="M87.4,110.1c-0.4-0.8-1.1-1.5-2-2.1c-0.1-0.4-0.3-0.8-0.6-1.2c0.8,0.2,1.7,0.2,2.6,0c1.8,0.4,3.2,2.2,3.3,3.7
		c0,0.5,0,1.3-0.7,0.6c-0.2-0.2-0.4-0.4-0.6-0.5C88.9,110.3,88.1,110.2,87.4,110.1z"/>
	<path class="st1" d="M82.3,109.1c0.1-0.1,0.1-0.2,0-0.3c-0.3-0.6-0.7-1.3-1.1-1.8c1.4,0.3,2.9,0.6,3.8,1.6c0.1,0.2,0.6,0.2,0.6,0
		c0.8,0.7,1.5,1.6,1.6,2.7c0,0.2,0.1,1.2-0.6,0.7c-0.3-0.2-0.5-0.4-0.8-0.6c-0.6-0.4-1.3-0.7-2-0.9c-0.1,0-0.1,0-0.2,0
		C83.2,110,82.8,109.5,82.3,109.1z"/>
	<path class="st1" d="M72.5,110.8c1.1,0,2.3-0.2,3.4-0.4c0.3-0.1,0.2-0.4-0.1-0.5c-0.6-0.2-0.9-0.7-1.1-1.1c0.4,0.2,0.7,0.3,1.1,0.5
		c0.2,0.1,0.5,0,0.5-0.2c0-0.4,0-0.8-0.2-1.1c0.1,0,0.1,0,0.2,0c2-0.6,3.8,0.3,5.5,1.2c0,0,0.1,0,0.1,0c0.6,0.5,1,1.1,1.3,1.8
		c0.4,1.2-0.5,1-1.4,0.5c-0.7-0.4-1.5-0.9-2.4-1C77.6,110.2,74.3,111.8,72.5,110.8z"/>
	<path class="st2" d="M66.5,96.1c0.4-0.3,0.8-0.5,1.2-0.8c0.5-0.5,0.8-1.1,1.1-1.8c0.2,0.2,0.6,0.3,0.6,0c0.1-0.7,0-1.5-0.1-2.3
		c0.1-0.6,0.1-1.2,0.2-1.8c0,0-0.1-0.1-0.1,0c-0.1,0.3-0.1,0.6-0.2,0.9c-0.1-0.8-0.1-1.6,0.1-2.4c0.5-1.8,1.8-3.1,3.7-3.9
		c1.9-0.8,4.1-1.4,6.2-1.1c2.8,0.5,4.2,1.9,5.6,3.9c0,0,0,0,0,0c0.2,1.4,1,2.6,1.2,4c0.3,1.6,0.4,3.1,0.4,4.7c0,1.3,0.2,2.6,0.8,3.8
		c-0.5-0.4-0.9-0.7-1.4-1.1c-0.1-0.4-0.3-0.8-0.5-1.2c0.2,1.6,0.4,3.2,0.1,4.7c0,0,0,0.1-0.1,0.1c-0.1,0.7-0.1,1.5-0.1,2.2
		c-0.3-0.5-0.5-1-0.8-1.5c0,0,0,0,0,0.1c0,0.2,0,0.4,0,0.6c0.4,1.2,0.9,2.5,2,3.2c-0.7,0-1.3,0-2.1-0.1c-0.5-0.5-1.1-1-1.8-1.2
		c-0.1,0-0.2,0.1-0.1,0.2c0.9,0.6,1.7,1.4,2.1,2.4c-1.1-0.7-2.5-1.2-3.8-1.2c-0.1,0-0.1,0-0.2,0.1c-0.4-0.4-1-0.7-1.7-0.8
		c0.6,0.5,1.2,1,1.7,1.7c0,0.1,0,0.1,0,0.2c0.2,0.2,0.3,0.4,0.5,0.7c-1.6-0.8-3.5-1.6-5.1-0.6c0,0,0,0-0.1,0
		c-0.1-0.3-0.3-0.6-0.6-0.8c0.1,0.4,0.2,0.8,0.1,1.2c0,0.2,0.1,0.4,0.1,0.6c-0.5-0.3-1.2-0.7-1.8-0.5c-0.3,0.1,0,0.5,0.2,0.5
		c0.2,0,0.3,0.1,0.4,0.1c0.1,0.5,0.4,0.9,0.7,1.3c-1.7,0.1-3.4,0.5-4.9-0.4c-0.6-0.3-0.9-0.7-1.1-1.1c-0.1,0-0.3,0-0.3-0.1
		c-0.2-1.2,0-2.5,0.7-3.6c-0.7,0.3-1.3,0.6-1.9,1c-0.2,0.2-0.4,0-0.4-0.2c0-0.1,0-0.2,0.1-0.3c-0.2-0.9-0.2-1.9-0.1-2.8
		c0,0,0-0.1,0-0.1c0,0,0,0,0-0.1c0.2-0.9,0.6-1.8,1.4-2.5c0,0,0-0.1-0.1-0.1c-0.6,0.5-1,1.1-1.3,1.7c0-1-0.1-2,0.3-3
		c0.3-0.9,0.9-1.7,1.3-2.5c-0.3,0.2-0.7,0.3-1.1,0.4c-0.1,0-0.2,0.1-0.3,0.1c0,0-0.1,0-0.1,0c-0.3,0-0.6,0.1-0.9,0.1
		C66.4,96.5,66.3,96.2,66.5,96.1z"/>
	<path class="st4" d="M74,108.5c-0.2,0-0.5-0.4-0.2-0.5c-1.7,0.1-3.4-0.1-5-0.4c0,0.2,0,0.5,0.1,0.7c0,0.1,0.2,0.2,0.3,0.1
		c0.2,0.4,0.6,0.8,1.1,1.1c1.5,0.9,3.2,0.5,4.9,0.4c-0.3-0.4-0.6-0.8-0.7-1.3C74.4,108.6,74.2,108.5,74,108.5z"/>
	<path class="st4" d="M80.7,107.3c-0.3-0.4-0.6-0.8-1-1.1c-0.4,0.3-0.8,0.5-1.3,0.7c-0.1,0.1-0.2,0.1-0.3,0.1
		c1.1,0.1,2.1,0.6,3.1,1.1c-0.1-0.2-0.3-0.5-0.5-0.7C80.7,107.4,80.7,107.4,80.7,107.3z"/>
	<path class="st4" d="M67.8,100.6C67.8,100.6,67.8,100.6,67.8,100.6c0-1.2,0.2-2.3,0.4-3.4c-0.2,0.4-0.4,0.8-0.6,1.2
		c-0.4,1.1-0.3,2-0.3,3C67.5,101.2,67.6,100.9,67.8,100.6z"/>
	<path class="st3" d="M87.3,99.3c-0.6-1.2-0.8-2.5-0.8-3.8c0-0.7-0.1-1.4-0.1-2.1c-0.2,0.5-0.5,1-0.9,1.5c-0.1,0.1-0.3,0.2-0.4,0
		c0-0.1-0.1-0.2-0.1-0.2c-0.7,2.4-1.3,4.8-2.4,7.1c-0.1,0.1-0.3,0.2-0.3,0.1c-0.5-0.8-0.4-1.7-0.7-2.6c-1,1.9-1.6,4-3.2,5.7
		c-0.1,0.1-0.3,0.1-0.3,0c-0.3-0.8-0.4-1.7-1.1-2.3c-0.6,0.7-1,1.5-1.5,2.2c-0.1,0.1-0.4,0.2-0.4,0c-0.1-0.9-0.1-1.8-0.2-2.7
		c-1,1.2-1.9,2.5-2.8,3.8c-0.1,0.1-0.4,0.2-0.4,0c0-1.8,0.7-3.5,1.4-5.2c-1.3,1.2-2.3,2.7-3.9,3.7c-0.1,0.1-0.3,0-0.3-0.1
		c0.1-1.7,0.9-3.2,1-4.9c-0.7,0.4-1.3,0.9-1.9,1.4c0,0-0.1,0-0.1,0c-0.3,0.5-0.5,1-0.6,1.6c0,0,0,0,0,0.1c0,0.1,0,0.1,0,0.1
		c-0.2,0.9-0.1,1.9,0.1,2.8c0,0.1-0.1,0.2-0.1,0.3c0,0.2,0.2,0.3,0.4,0.2c0.5-0.5,1.2-0.8,1.9-1c-0.7,1.1-0.9,2.3-0.7,3.6
		c0,0.1,0.2,0.2,0.3,0.1c0.2,0.4,0.6,0.8,1.1,1.1c1.5,0.9,3.2,0.5,4.9,0.4c-0.3-0.4-0.6-0.8-0.7-1.3c-0.1,0-0.3-0.1-0.4-0.1
		c-0.2,0-0.5-0.4-0.2-0.5c0.6-0.2,1.2,0.2,1.8,0.5c0-0.2,0-0.4-0.1-0.6c0.1-0.4,0-0.8-0.1-1.2c0.2,0.2,0.4,0.5,0.6,0.8
		c0,0,0,0,0.1,0c1.6-1,3.6-0.2,5.1,0.6c-0.1-0.2-0.3-0.5-0.5-0.7c0,0,0-0.1,0-0.2c-0.4-0.7-1-1.2-1.7-1.7c0.7,0.1,1.2,0.4,1.7,0.8
		c0,0,0.1-0.1,0.2-0.1c1.3,0,2.7,0.5,3.8,1.2c-0.4-1-1.1-1.8-2.1-2.4c-0.1-0.1-0.1-0.2,0.1-0.2c0.7,0.2,1.3,0.7,1.8,1.2
		c0.7,0.1,1.4,0.1,2.1,0.1c-1.1-0.7-1.6-2-2-3.2c0-0.2,0-0.4,0-0.6c0,0,0,0,0-0.1c0.2,0.5,0.5,1,0.8,1.5c0-0.7,0.1-1.5,0.1-2.2
		c0,0,0-0.1,0.1-0.1c0.3-1.6,0.2-3.2-0.1-4.7c0.2,0.4,0.4,0.8,0.5,1.2C86.3,98.6,86.8,99,87.3,99.3z"/>
	<path class="st4" d="M42,96.1c-0.4-0.3-0.8-0.5-1.2-0.8c-0.5-0.5-0.8-1.1-1.1-1.8c0,0,0,0-0.1,0.1c0,0.8,0,1.6-0.1,2.4
		c0.3,0.2,0.7,0.3,1.1,0.4c0.1,0,0.2,0.1,0.3,0.1c0,0,0.1,0,0.1,0c0.3,0,0.6,0.1,0.9,0.1C42.2,96.5,42.2,96.2,42,96.1z"/>
	<path class="st0" d="M18.8,67.3c1.6-3.2,2.9-6.6,2.9-10.1c0-1.6-0.5-3.6-2.8-3.6c-1.8,0-4.1,0.9-4.9,2.3c0,0.1,0,0.1,0.1,0.1
		C7.8,61.6,3.1,70.5,4.9,78.5c-0.6,0.3-1.1,0.6-1.6,1.2C2,81.1,1,82.6,0.4,84.2c-0.5,1.2-1,4.8,1.5,4.6c0,0.1,0,0.2,0.1,0.3
		c0.5,1.5,1.7,3.6,3.8,3.3c0,0,0,0,0.1,0c0.8,0.8,1.9,1.2,3.6,0.7c0.1,0,0.1-0.1,0.2-0.1c1.1,0.5,2.7,0.9,3.6,0.1
		c0.9-0.8,0.4-2.1-0.4-2.9c0.6-0.4,0.8-1.1,0.7-1.8c-0.1-1-0.4-1.9-0.1-2.9c0.3-0.8,1.1-1.6,1.6-2.3c0.6-0.8,1.1-2.1,0.8-3
		c-0.2-0.7-0.7-1.3-1.1-1.9c0,0,0.1-0.1,0.1-0.2C14.9,74.1,17.1,70.8,18.8,67.3z"/>
	<path class="st5" d="M14,78.6c0.5,0.9,1,1.8,0.9,2.9c-0.2,1.9-2.5,3.1-2.4,5c0,0.4,0.3,3.8-0.8,2.7c-0.6-0.6-0.9-1.4-1.3-2.1
		c-0.3-0.7-0.5-1.4-0.5-2.1c-0.3-0.8-0.5-1.6-0.6-2.4c-0.1,2.1,0,3.9,1,5.9c0.2,0.5,1,1.8,1.8,1.9c0.3,0.5,0.5,0.9,0.7,1.4
		c0.6,1.9-2.5,0.7-2.8,0.6c-1.2-0.5-2-1.3-2.5-2.3c-0.9-1.8-0.6-3.9-0.5-5.8c0-0.1-0.2-0.1-0.2,0c-0.4,3-0.9,6.3,2.1,8.3
		c-2.1-0.2-3.1-1.1-3.7-3.1c-0.4-1.7-0.4-3.5-0.2-5.3c0-0.1-0.2-0.1-0.3,0c-0.5,1.7-0.7,5.5,0.6,7.6c-1.7-0.5-2.4-2.1-2.8-3.6
		c-0.5-1.8,0.7-3.9,1.3-5.7C3.9,82.3,4,82.1,4,81.9c0,0,0,0,0,0c-1.4,2-2.6,4-2.2,6.4c-2.9-0.5,0.1-5.8,0.9-6.9
		c0.9-1.2,2-2.5,3.6-3.1c0.6-0.2,0.6-0.3,1-0.7c0.1-0.1-0.1-0.3-0.2-0.2c-0.6,0.3-1.1,0.5-1.6,0.7c0-4,0.1-7.6,1.6-11.5
		c1.5-4.1,4.3-7.9,7.6-11.1c0,0,0,0,0,0c1.6-1.1,4-2.3,5.7-0.9c1.1,0.9,0.7,3.2,0.6,4.4c-0.2,1.7-0.8,3.4-1.4,5
		c-1,2.5-2.3,4.8-3.5,7.2c-0.9,1.9-1.9,3.9-1.8,5.9c-0.1-0.3-0.2-0.5-0.3-0.9c0,0,0-0.1,0-0.1C13.8,77.1,13.9,77.8,14,78.6z"/>
	<path class="st6" d="M20.3,54.7c-1.7-1.4-4.1-0.1-5.7,0.9c0,0,0,0,0,0c-3.3,3.2-6,7-7.6,11.1c-0.2,0.4-0.3,0.9-0.4,1.3
		c0,0.2-0.1,0.5-0.1,0.7c1.4-1.9,2.9-3.7,4.7-5.4c0.2-0.1,0.4,0,0.3,0.2c-2.5,4.3-1.8,9.7-0.4,14.2c0.8,2.4,1.1,4.8,1,7.3
		c-0.1,1.4,0,2.6,0.5,3.8c0.2-0.8,0.1-2.1,0-2.4c-0.1-1.9,2.2-3.1,2.4-5c0.1-1.1-0.5-2-0.9-2.9c-0.1-0.7-0.2-1.5-0.2-2.2
		c0,0,0,0,0,0.1c0,0.3,0.2,0.6,0.3,0.9c-0.1-2.1,0.9-4,1.8-5.9c1.2-2.4,2.5-4.7,3.5-7.2c0.6-1.6,1.2-3.3,1.4-5
		C21,58,21.4,55.7,20.3,54.7z"/>
	<path class="st0" d="M96,78.1c0,0.1,0,0.1,0.1,0.2c-0.4,0.6-0.9,1.2-1.1,1.9c-0.2,1,0.3,2.2,0.8,3c0.5,0.7,1.3,1.5,1.6,2.3
		c0.3,1,0,2-0.1,2.9c-0.1,0.7,0.2,1.3,0.7,1.8c-0.7,0.8-1.3,2.1-0.4,2.9c0.9,0.8,2.5,0.4,3.6-0.1c0,0.1,0.1,0.1,0.2,0.1
		c1.7,0.5,2.8,0.1,3.6-0.7c0,0,0,0,0.1,0c2.1,0.3,3.3-1.8,3.8-3.3c0-0.1,0.1-0.2,0.1-0.3c2.5,0.2,1.9-3.4,1.5-4.6
		c-0.6-1.7-1.6-3.1-2.8-4.5c-0.5-0.6-1.1-0.9-1.6-1.2c1.7-8-2.9-16.9-9.2-22.5c0.1,0,0.1,0,0.1-0.1c-0.9-1.5-3.1-2.3-4.9-2.3
		c-2.3,0-2.8,2-2.8,3.6c0,3.6,1.3,6.9,2.9,10.1C93.9,70.8,96.1,74.1,96,78.1z"/>
	<path class="st5" d="M97.1,76.3C97.1,76.3,97.1,76.4,97.1,76.3c-0.1,0.4-0.2,0.7-0.3,0.9c0.1-2.1-0.9-4-1.8-5.9
		c-1.2-2.4-2.5-4.7-3.5-7.2c-0.6-1.6-1.2-3.3-1.4-5c-0.1-1.2-0.5-3.5,0.6-4.4c1.7-1.4,4.1-0.1,5.7,0.9c0,0,0,0,0,0
		c3.3,3.2,6.1,7,7.6,11.1c1.5,3.9,1.6,7.5,1.6,11.5c-0.5-0.2-1-0.4-1.6-0.7c-0.1-0.1-0.3,0.1-0.2,0.2c0.4,0.4,0.4,0.5,1,0.7
		c1.6,0.6,2.6,1.8,3.6,3.1c0.7,1,3.8,6.3,0.9,6.9c0.4-2.3-0.8-4.4-2.2-6.4c0,0,0,0,0,0c0.1,0.2,0.1,0.4,0.2,0.6
		c0.7,1.7,1.8,3.8,1.3,5.7c-0.4,1.5-1.1,3.1-2.8,3.6c1.3-2.1,1.1-5.9,0.6-7.6c0-0.1-0.3-0.1-0.3,0c0.2,1.7,0.2,3.5-0.2,5.3
		c-0.5,2-1.5,3-3.7,3.1c3-2,2.4-5.4,2.1-8.3c0-0.1-0.2-0.2-0.2,0c0.1,1.9,0.4,4-0.5,5.8c-0.5,1-1.3,1.9-2.5,2.3
		c-0.4,0.1-3.5,1.3-2.8-0.6c0.2-0.5,0.4-0.9,0.7-1.4c0.9-0.1,1.6-1.4,1.8-1.9c0.9-2,1-3.8,1-5.9c-0.1,0.8-0.3,1.6-0.6,2.4
		c-0.1,0.7-0.2,1.4-0.5,2.1c-0.3,0.7-0.7,1.5-1.3,2.1c-1.1,1.1-0.8-2.3-0.8-2.7c0.1-1.9-2.2-3.1-2.4-5c-0.1-1.1,0.5-2,0.9-2.9
		C97,77.8,97.1,77.1,97.1,76.3z"/>
	<path class="st6" d="M97,76.4C97.1,76.4,97.1,76.3,97,76.4c0,0.7,0,1.4-0.2,2.2c-0.5,0.9-1,1.8-0.9,2.9c0.2,1.9,2.5,3.1,2.4,5
		c0,0.2-0.1,1.7,0.1,2.4c0.4-0.9,0.6-1.8,0.7-2.9c0-1.7-0.1-3.5,0.1-5.2c0.4-2.1,1.6-4.1,2.2-6.2c0.4-1.2,0.4-2.2,0.3-3.4
		c-0.1-1.1-0.9-6.3,0-8.9c-1.5-2.4-3.3-4.7-5.4-6.6c0,0,0,0,0,0c-1.6-1.1-4-2.3-5.7-0.9c-1.1,0.9-0.7,3.2-0.6,4.4
		c0.2,1.7,0.8,3.4,1.4,5c1,2.5,2.3,4.8,3.5,7.2c0.9,1.9,1.9,3.9,1.8,5.9C96.9,77,97,76.7,97,76.4z"/>
	<path class="st7" d="M12.1,90.4c-0.9-0.1-1.6-1.4-1.8-1.9c-0.9-2-1-3.8-1-5.9c0.1,0.8,0.3,1.6,0.6,2.4c0.1,0.7,0.2,1.4,0.5,2.1
		c0.3,0.7,0.7,1.5,1.3,2.1c1.1,1.1,0.8-2.3,0.8-2.7c-0.1-1,0.6-1.9,1.2-2.7c-0.3,0.2-0.6,0.4-0.9,0.6c-0.1,0.1-0.3,0-0.3-0.2
		c0.1-0.9,0.1-1.9,0-2.8c-0.4,1.1-0.7,2.1-1.2,3.2c-0.1,0.2-0.5,0.2-0.4-0.1c0.1-1.6-0.1-3.1-0.6-4.6c-0.2,0.5-0.4,1.1-0.6,1.6
		c-0.1,0.2-0.3,0.1-0.4,0c-0.3-0.6-0.4-1.2-0.5-1.8c-0.7,1.3-1.1,2.6-1.8,3.9c-0.1,0.2-0.4,0.1-0.4-0.1c0-1.3,0.4-2.6,0.7-3.9
		c-1.1,0.8-2,1.7-2.8,2.7c-0.1,0.2-0.4,0.1-0.4-0.1c0.1-1,0.5-1.8,1-2.7c-0.6,0.2-1.2,0.6-1.7,0.9c-0.3,0.4-0.6,0.7-0.9,1.1
		c-0.7,1-3.8,6.3-0.9,6.9C1.4,86,2.6,84,4,82c0,0,0,0,0,0c-0.1,0.2-0.1,0.4-0.2,0.6c-0.7,1.7-1.8,3.8-1.3,5.7
		c0.4,1.5,1.1,3.1,2.8,3.6c-1.3-2.1-1.1-5.9-0.6-7.6c0-0.1,0.3-0.1,0.3,0c-0.2,1.7-0.2,3.5,0.2,5.3c0.5,2,1.5,3,3.7,3.1
		c-3-2-2.4-5.4-2.1-8.3c0-0.1,0.2-0.2,0.2,0c-0.1,1.9-0.4,4,0.5,5.8c0.5,1,1.3,1.9,2.5,2.3c0.4,0.1,3.5,1.3,2.8-0.6
		C12.7,91.3,12.4,90.9,12.1,90.4z"/>
	<path class="st7" d="M108.3,81.5c-0.4-0.5-0.8-1-1.2-1.4c-0.1,0.9-0.4,1.7-1,2.4c-0.1,0.1-0.4,0.1-0.4,0c-0.2-0.9-0.6-1.7-1.2-2.4
		c0.1,0.7,0.2,1.4-0.1,2.1c-0.1,0.2-0.4,0.2-0.4,0c-0.2-0.7-0.6-1.2-1-1.8c0.1,1,0.1,1.9-0.2,2.8c-0.1,0.2-0.4,0.2-0.4,0
		c-0.3-1.4-0.6-2.7-1.6-3.8c0.1,1,0.3,2-0.2,3c-0.1,0.2-0.4,0.2-0.4,0c-0.2-0.6-0.4-1.1-0.7-1.6c-0.1,1.1-0.2,2.1-0.7,3.1
		c-0.1,0.2-0.4,0.1-0.4,0c-0.5-1.2-0.8-2.4-0.8-3.7c-0.6,1-0.7,2.1-0.7,3.2c0.7,1,1.6,1.9,1.5,3.1c0,0.4-0.3,3.8,0.8,2.7
		c0.6-0.6,0.9-1.4,1.3-2.1c0.3-0.7,0.5-1.4,0.5-2.1c0.3-0.8,0.5-1.6,0.6-2.4c0.1,2.1,0,3.9-1,5.9c-0.2,0.5-1,1.8-1.8,1.9
		c-0.3,0.5-0.5,0.9-0.7,1.4c-0.6,1.9,2.5,0.7,2.8,0.6c1.2-0.5,2-1.3,2.5-2.3c0.9-1.8,0.6-3.9,0.5-5.8c0-0.1,0.2-0.1,0.2,0
		c0.4,3,0.9,6.3-2.1,8.3c2.1-0.2,3.1-1.1,3.7-3.1c0.4-1.7,0.4-3.5,0.2-5.3c0-0.1,0.2-0.1,0.3,0c0.5,1.7,0.7,5.5-0.6,7.6
		c1.7-0.5,2.4-2.1,2.8-3.6c0.4-1.8-0.7-3.9-1.3-5.7c-0.1-0.2-0.1-0.4-0.2-0.6c0,0,0,0,0,0c1.4,2,2.6,4,2.2,6.4
		C112.1,87.9,109,82.5,108.3,81.5z"/>
	<path d="M98,59.5c0.5,0.3,1,0.6,1.6,0.9c0.2,0.1,0.5,0,0.5-0.3c-0.6-4.1-2.8-7.7-4.9-11.3c-0.6-1.1-1.4-2.4-2.4-3.6
		c0.4,0.3,0.7,0.6,1.1,0.9c0.2,0.1,0.5,0,0.5-0.2c0.1-1.4-0.8-2.9-1.9-3.9c-1.6-2.5-3.7-4.8-5.8-6.9c-2-2-4.3-3.7-7-4.7
		c0.8-0.1,1.7-0.4,2.2-0.9c0.1-0.1,0-0.3-0.1-0.2c0-0.1,0-0.2-0.1-0.2c-0.1,0-0.2,0-0.3,0c-0.8-0.4-1.7-0.5-2.5-0.7
		c-0.1,0-0.2,0-0.3-0.1c-0.5-0.6-1-1.2-1.6-1.7c0.2-0.3,0.3-0.7,0.5-1c0,0,0,0,0,0c0.1-0.2,0.1-0.4,0.3-0.6v0
		c0.1-0.2,0.2-0.4,0.2-0.6c0.5-1.2,1.2-2.6,1.2-3.9c2.8,0.1,5.7-0.7,8.1-2.4c0.9-0.7,1.7-1.6,2.3-2.6c0-0.1,0-0.1,0-0.2
		c1.5-2.2,1.4-4.9,0.8-7.4c-0.3-1-0.7-2-1.3-2.9c-2-3-5.8-4.8-9.7-5.1c-2.9-0.2-5.9,1.1-7.9,3c-4.2,4.1-4.9,10-0.5,14.3
		c0.9,0.9,1.9,1.5,3,2.1c-0.2,0.6-0.4,1.1-0.6,1.7c0,0,0,0.1,0,0.1c-0.1,0.1-0.1,0.3-0.2,0.4c0,0.1,0,0.1-0.1,0.2
		c-0.1,0.4-0.3,0.9-0.4,1.3c0,0,0,0,0,0c-0.6-0.5-1.2-0.9-1.9-1.3c0.6,0,1.3,0,1.9,0c0.2,0,0.3-0.3,0.2-0.4c-2.4-1.5-5.1-2.5-8-2.5
		c0.3-0.2,0.7-0.3,1-0.5c0.2-0.1,0.3-0.4,0-0.5c-2.7-0.4-5.5-0.5-8.2,0.1c-0.8,0.2-1.8,0.3-2.6,0.6c0.2-0.8,0.5-1.5,0.5-2.3
		c0-0.2-0.2-0.3-0.3-0.2c-1.2,0.4-3.2,1.5-3.7,2.8c-0.4-0.6-0.8-1.2-1.4-1.6c-0.1-0.1-0.3,0-0.4,0.1c-0.3,0.6-0.4,1.5,0,2.2
		c-2.9-1.4-7-1-9.8,0.4c-0.2,0.1-0.2,0.4,0.1,0.4c0.8,0,1.5,0.2,2.2,0.5c-2.2,0.3-4.3,1-6.2,2c-0.3-0.9-0.6-1.7-0.9-2.6
		c1.1-0.5,2.1-1.2,3-2c4.4-4.3,3.8-10.1-0.5-14.3c-1.9-1.9-5-3.2-7.9-3C25.7,1.1,21.9,3,19.8,6c-0.6,0.9-1.1,1.9-1.3,2.9
		c-0.6,2.4-0.7,5.2,0.8,7.4c0,0.1,0,0.1,0,0.2c0.6,1,1.4,1.9,2.3,2.6c2.4,1.7,5.3,2.5,8.1,2.4c-0.1,1.3,0.7,2.7,1.2,3.9
		c0.1,0.2,0.2,0.4,0.2,0.6c-0.1,0.1-0.2,0.2-0.3,0.3c-2.3,2-4,4.5-5.8,6.8c-2,2.5-5.9,6.2-9.8,5c-0.3-0.1-0.6,0.3-0.3,0.4
		c0.1,0,0.1,0,0.2,0c0.4,0.7,1.9,1.2,2.6,1.3c1.2,0.3,2.5,0.4,3.6,0.2c-5.5,2.6-8.9,6.8-9.7,12.5c0,0.3,0.5,0.2,0.6,0
		c0-0.1,0-0.1,0-0.2c1.1-1.7,3-2.5,5-3.2c-4,2.9-6.7,8-6.3,12.3c0,0,0,0.1,0,0.1c0,0,0.1,0.1,0.1,0c0,0,0,0,0,0
		c0.1,0,0.2-0.1,0.2-0.2c0,0,0,0,0,0c0.7-0.7,1.2-1.6,2-2.2c1-0.9,2.2-1.4,3.4-2c-5.1,4.5-5.7,11.5-5.5,17.9c0,0.2,0.3,0.2,0.4,0
		c0.3-1.4,0.9-2.7,1.6-4C11,76,12.7,83.1,16.1,87.4c0,0,0,0,0,0c0,0.1,0,0.2,0,0.3c0,0.3,0.5,0.2,0.5,0c0-1.8,0.1-3.5,0.6-5.1
		c-1,5.2,1.4,12,7.6,13.8c0.1,0,0.2,0,0.3-0.1c0,0,0.1,0.1,0.1,0.1c0.1,0.1,0.2,0,0.2-0.1c-1.2-2.1-1.3-4.5-0.9-6.8
		c0.1,0.7,0.3,1.5,0.5,2.2c1.1,3.1,4.9,5.8,8.7,5.8c0,0,0,0,0,0c0.1,0,0.1,0,0.1-0.1c0.1-0.1,0.1-0.3-0.1-0.3c-0.1,0-0.1,0-0.2,0
		c-1.7-2.1-2.3-4.3-2.2-7c0-0.3,0-0.5,0.1-0.8c0.1,0.7,0.3,1.4,0.5,2c1.3,3.9,5,6.6,9.4,7.7c0,0,0.1,0.1,0.1,0.1
		c0.1,0.1,0.2,0,0.3-0.1c0.1-0.1,0.1-0.3-0.1-0.4c-0.1,0-0.2-0.1-0.3-0.1c-1.7-1.9-1.6-5.6-1.3-7.7c0.1-1,0.4-1.9,0.7-2.8
		c0.5-1.2-0.1,0.3-0.2,0.7c-0.1,1.2,0.1,2.5,0.6,3.7c1.6,4.5,7.2,7.7,12.4,8c0.2,0,0.4-0.3,0.1-0.3c0,0,0,0,0,0
		c0-1.1-0.5-2.1-0.4-3.3c0.2-1.7,1.2-3.2,2.2-4.6c0.3,2-0.1,4-0.9,5.8c0,0.1,0,0.1,0.1,0.1c2.8-0.3,5.6-1.7,7.3-3.6
		c-0.3,1.6-1.1,3.1-2.2,4c-0.1,0.1-0.2,0.4,0.1,0.4c2.4,0.1,5,0,7-1.3v0c-0.3,0.7-0.6,1.3-1.1,1.8c-0.1,0.1-0.1,0.4,0.1,0.4
		c4,0.1,8.3-1.7,10.9-4.6c-0.6,1.1-1.4,2-2.3,2.9c-0.1,0.1-0.1,0.3,0.1,0.4c4.8,0.5,9.4-3.9,10-8c0.6,1.9,2.8,3.3,5,3.7
		c0.2,0,0.3-0.1,0.3-0.3c-0.1-0.5-0.2-0.9-0.4-1.4c-0.3-0.9-0.1-2,0.1-2.9c0.3-1,0.7-2,1.2-3c0.2,0.8,0.5,1.6,0.9,2.4
		c0.1,0.2,0.5,0.1,0.6-0.1c2.6-2.9,5.1-7,4.9-10.8c0.3,0.4,0.6,0.8,0.9,1.2c0.1,0.2,0.4,0.1,0.5-0.1c1.7-3.4,1.8-7.7-0.1-11
		c0.6,0.7,1.2,1.4,1.8,2.2c0.1,0.2,0.4,0,0.4-0.1C100.8,66.6,100,62.7,98,59.5z"/>
	<path class="st8" d="M71.1,16.2c-3-3.5-3.4-8-0.7-11.5c0,0,0,0,0,0c3.8-0.5,7.9,0.4,11.3,1.8c1.6,0.7,3.1,1.4,4.5,2.4
		c1.5,1,2.5,2.3,3.9,3.4c0,0.2-0.1,0.3-0.1,0.5c0,0,0,0,0,0c-0.7,2.5-2.2,4.7-5.1,5.7C80.2,20.3,74.5,20.1,71.1,16.2z"/>
	<path class="st9" d="M73.8,21.6c0-0.1,0.1-0.1,0.1-0.1c0.2-0.7,0.3-1.4,0.4-2c1.4,0.6,2.8,0.9,4.3,1c-0.2,1.4-0.8,2.8-1.4,4.1
		c-0.2,0.4-0.4,0.9-0.6,1.3c0,0,0,0,0,0c-0.8,1.7-1.9,3.3-3,4.9c0,0,0,0,0,0c0,0.1-0.1,0.1-0.1,0.2c0.3-1,0.5-2.1,0-3.1
		c-0.1-0.2-0.5-0.3-0.5-0.1c-0.1,0-0.2,0-0.3,0.1c-0.3,0.9-0.7,1.8-1.4,2.4c0.1-0.8,0-1.6-0.3-2.4c0-0.1,0.1-0.1,0.1-0.2
		c0,0,0-0.1,0-0.1c0,0,0.1,0,0.1-0.1c0.3-0.4,0.6-0.9,0.9-1.4c0,0,0-0.1,0-0.1C72.9,24.7,73.3,23.1,73.8,21.6z"/>
	<path class="st8" d="M23.8,19.4c-2.9-1.1-4.4-3.2-5.1-5.7c0,0,0,0,0,0c0-0.2-0.1-0.3-0.1-0.5c1.4-1.1,2.4-2.4,3.9-3.4
		c1.4-0.9,2.9-1.7,4.5-2.4c3.4-1.5,7.5-2.4,11.3-1.8c0,0,0,0,0,0c2.7,3.5,2.4,8-0.7,11.5C34.3,21,28.6,21.1,23.8,19.4z"/>
	<path class="st9" d="M30.2,21.4c1.5-0.1,2.9-0.4,4.3-1c0.1,0.6,0.2,1.3,0.4,2c0,0,0.1,0.1,0.1,0.1c0.5,1.5,0.9,3,1.7,4.4
		c0,0,0,0.1,0,0.1c0.3,0.5,0.6,0.9,0.9,1.3c0,0,0.1,0.1,0.1,0.1c0,0,0,0.1,0,0.1c0,0.1,0,0.1,0.1,0.2c-0.3,0.8-0.5,1.6-0.3,2.4
		c-0.7-0.7-1.2-1.5-1.4-2.4c0-0.1-0.2-0.2-0.3-0.1c-0.1-0.2-0.4-0.1-0.5,0.1c-0.5,1-0.4,2.1,0,3.1c0-0.1-0.1-0.1-0.1-0.2
		c0,0,0,0,0,0c-1.1-1.6-2.1-3.2-3-4.9c0,0,0,0,0,0c-0.2-0.4-0.4-0.9-0.6-1.3C31,24.2,30.4,22.7,30.2,21.4z"/>
	<path class="st10" d="M74.3,19.5c0,0.2-0.1,0.4-0.1,0.6c2.8,0.6,1.4,4.7-0.6,8.2c0.3,0.9,0.2,1.8-0.1,2.8c0-0.1,0.1-0.1,0.1-0.2
		c0,0,0,0,0,0c1.1-1.6,2.1-3.2,3-4.9c0,0,0,0,0,0c0.2-0.4,0.4-0.9,0.6-1.3c0.6-1.3,1.2-2.7,1.4-4.1C77.1,20.4,75.7,20.1,74.3,19.5z"
		/>
	<path class="st10" d="M31.2,22.3c0.4,0.2,0.8,0.3,1.1,0.6c0.7,0.8,1.1,1.8,1.6,2.7c0.5,1,1,2.1,1.5,3.1c0.1-0.1,0.4-0.2,0.5,0
		c0.1,0,0.2,0,0.3,0.1c0.3,0.9,0.7,1.8,1.4,2.4c-0.1-0.8,0-1.6,0.3-2.4c0-0.1-0.1-0.1-0.1-0.2c0,0,0-0.1,0-0.1c0,0-0.1,0-0.1-0.1
		c-0.3-0.4-0.6-0.9-0.9-1.3c0,0,0-0.1,0-0.1c-0.8-1.4-1.2-2.9-1.7-4.4c0-0.1-0.1-0.1-0.1-0.1c-0.2-0.7-0.3-1.4-0.4-2
		c-1.4,0.6-2.8,0.9-4.3,1c0,0.3,0.1,0.5,0.2,0.8C30.6,22.2,30.9,22.2,31.2,22.3z"/>
	<path class="st11" d="M97.9,67.2C97.8,67.2,97.8,67.2,97.9,67.2c-0.7-0.9-1.6-1.7-2.5-2.3c0,0,0,0,0,0c4,3.6,5.1,9.1,3,13.7
		c-0.4-0.5-0.8-1-1.3-1.4c0,0,0-0.1,0-0.1c-0.5-0.4-0.9-0.9-1.2-1.4C97,80.4,95,84.3,92,88.2c-0.5-1-0.9-2-0.9-3.2
		c0-0.6,0-1.1-0.1-1.6c0,0.6-0.1,1.4-0.3,2c0,0.1,0,0.3,0,0.4c-0.1,0-0.1,0.1-0.2,0.1c0,0,0,0.1-0.1,0.1c-0.8,1.9-1.7,3.6-1.6,5.7
		c0,0.1,0,0.1,0,0.1c0,0.3,0.1,0.7,0.2,1c0,0.1,0,0.2,0,0.2c0.4,0.9-1.1,0-1.6-0.2c-1.4-0.6-2.3-1.7-2.9-3c0-0.2,0-0.4,0-0.5
		c-0.1-0.3-0.3-0.6-0.4-0.9c0,0,0,0,0,0c0,3.7-2.2,6.6-5.8,8.4c-0.8,0.4-1.8,0.7-2.7,0.9c-1.2,0.2-0.1-0.6,0.2-0.9
		c0.7-0.8,1.1-1.6,1.4-2.5c0.6-0.8,1.1-1.6,1.4-2.6c0.1-0.6,0.1-1.2,0-1.8c-0.2,1.3-0.7,2.5-1.4,3.5c0,0,0,0,0,0c0,0,0,0,0,0
		c-1.6,2.4-4.2,4.1-7.4,5.1c-1.1,0.3-2.3,0.5-3.4,0.5c-0.1,0,0.4-1.1,0.5-1.3c0.5-1.2,0.6-2.6,0.5-3.8c0,0,0,0,0,0
		c0,1-0.2,2.1-0.6,3.2c0,0-0.1-0.1-0.1,0c-2,0.7-4,1.1-6.2,1c1.5-1.6,2.5-4.6,1.6-6.6c-0.2-0.2-0.4-0.5-0.6-0.7
		c0.4,0.8,0.5,1.9,0.4,3c-1.4,1.3-2.8,2.3-4.7,3.1c-0.7,0.3-1.4,0.4-2.1,0.6c-0.4,0.1,0.4-1.2,0.5-1.4c0.8-1.7,1-4,0-5.8
		c-0.3-0.3-0.6-0.6-0.9-0.9c0.3,0.6,0.5,1.3,0.7,2c-2.3,2.5-3.1,5.3-2.1,8.3c-6.8-1.1-12.8-5.5-12.3-11.7c-0.1-0.4-0.1-0.9,0-1.3
		c0,0,0,0,0,0c0,0-0.1,0-0.1,0.1c-1.2,2.1-1.5,4.5-1.4,6.9c0.1,1.2,0.2,3.2,1.1,4.4c-4.7-1.6-8.4-5.2-8.7-9.7
		c-0.1-0.5-0.3-1-0.3-1.4c0-0.1,0-0.1,0-0.2c0,0,0,0,0,0c-0.8,3.1-1.2,7.5,1.6,9.9c-5-0.9-9.6-4.9-8-9.7c0.1-0.2-0.2-0.2-0.3,0
		c-1,2.3-1.7,6.4,0,8.7c-5.8-2.6-8.2-8.4-7.3-13.9c0,0,0-0.1-0.1-0.1c0.2-0.7,0.5-1.3,0.9-1.9c0-0.1-0.1-0.1-0.1,0
		c-1.6,2.1-2,4.5-2.1,6.9c-1.3-2.9-2.6-5.6-3.1-8.6c-0.6-3.4,0.1-6.7,1.9-9.7c0.2-0.4,0.3-0.7,0.5-1.1c0,0-0.1,0-0.1,0.1
		c-1.4,1.7-2.6,3.5-3.4,5.5c-0.1,0.4-0.3,0.9-0.4,1.2c0.1-0.4,0.2-1,0.2-1.6c0-1.4-0.1-2.8,0.1-4.2c0.4-2.8,1.2-5.4,2.7-7.9
		c0.8-1.2,1.8-2.2,2.8-3.1c0.4-0.5,0.7-0.9,1.1-1.4c0.2-0.2,0.4-0.5,0.6-0.7c-0.6,0.4-1.1,0.7-1.6,1.2c0-0.1-0.1-0.1-0.2-0.1
		c-1.3,0.3-2.4,1-3.4,1.7c-1,0.7-1.6,1.6-2.2,2.5c0.5-2.5,1-4.7,2.3-7c1.5-2.6,3.8-4.5,6.4-6.2c0,0,0-0.1,0.1-0.1c0,0,0,0-0.1,0
		c-0.8,0.3-1.5,0.7-2.2,1.1c-2,0.2-4.5,1.6-5.7,3.2c0.8-5.5,4.3-9.4,9.8-11.9c0.3-0.1,0.5-0.1,0.8-0.2c0,0,0.1-0.1,0.1-0.1
		c0.1-0.1,0.2-0.2,0.3-0.3c0,0,0,0,0,0c-0.3,0.1-0.5,0.2-0.8,0.3c-1.2,0.3-2.4,0.4-3.7,0.3c-0.8-0.1-2.5-0.5-3.3-1.1
		c4.6,0.9,8.5-3.6,10.8-6.4c1.5-1.9,3.2-3.8,5.2-5.6c0.7,1.6,1.6,3.2,2.7,4.6c0.2,0.3,0.3,0.7,0.5,1c-1.8-0.7-4-1-5.4,0.1
		c-0.2,0.1-0.2,0.5,0.1,0.5c0.4,0,0.7,0.1,1,0.1c-0.4,0-0.8,0.1-1.1,0.2c-1.3,0.3-2.5,0.8-3.1,1.9c-0.1,0.2,0.1,0.3,0.3,0.2
		c0.9-0.2,1.9-0.5,2.8-0.7c1.1-0.2,2.3,0.2,3.2,0.6c0,0,0.1,0,0-0.1c-0.9-0.4-1.8-0.8-2.8-0.8c-1-0.1-1.9,0.3-2.8,0.5
		c0.7-0.7,1.6-1,2.7-1.1c1.2-0.2,2,0.1,3.1,0.4c0,0,0.1,0,0.1,0c0.2,0.1,0.4,0.3,0.6,0.4c0.2,0.1,0.5-0.1,0.4-0.3
		c-0.5-1-1.8-1.6-3.1-1.9c1.7-0.4,4.1,0.5,5.2,1.3c0.3,0.2,0.7-0.1,0.6-0.4c-0.5-1.3-0.9-2.5-0.7-3.8c0.3,1,1,1.8,1.9,2.3
		c0,0,0,0.1,0,0.1c0,0.1,0.1,0.1,0.2,0.1c0,0,0.1,0,0.1,0.1c0.1,0,0.2-0.1,0.1-0.2c0,0-0.1-0.1-0.1-0.1c0,0,0,0,0,0
		c-0.2-1.6,0.4-3.2,1.5-4.5c0,1,0,1.9,0.2,2.9c0,0.3,0.5,0.1,0.6,0c0.5-0.9,1.1-1.6,1.9-2.2c0.6-0.7,1.4-1.2,2.2-1.7
		c-1.7,0.5-3.2,1.6-4.2,2.9c-0.1-0.9-0.1-1.8-0.1-2.7c0-0.2-0.4-0.2-0.5-0.1c-0.5,0.5-1,1.1-1.4,1.8c0-0.1-0.1-0.1-0.2-0.2
		c-0.6-1.2-1.2-2.4-1.7-3.6c-0.1-0.3-0.3-0.7-0.4-1c1.9-1.1,4.1-1.9,6.4-2.3c0.1,0,0.1,0,0.2,0c1-0.1,2-0.2,3.1-0.1
		c0,0,0.1-0.1,0-0.1c-1-0.1-2.1-0.1-3.1,0c0,0,0,0-0.1-0.1c-0.7-0.4-1.3-0.6-2.1-0.7c0.5,0.1,2.2-0.6,2.9-0.7
		c2.8-0.5,5.3,0.2,7.6,1.4c0.1,0,0.1,0,0.1-0.1c-0.3-0.2-0.6-0.4-0.9-0.6c0,0,0-0.1,0-0.2c-0.3-0.6-0.5-1.3-0.3-1.9
		c0.6,0.5,1,1.1,1.4,1.7c0,0,0,0,0,0c0,0.2,0,0.3,0.1,0.5c0,0.1,0.2,0,0.2,0c0.4-1.5,1.7-2.6,3.3-3.3c-0.1,0.7-0.5,1.4-0.6,2.2
		c-0.4,0.2-0.8,0.5-1,0.9c0,0.1,0.1,0.1,0.2,0.1c0.2-0.2,0.5-0.4,0.9-0.6c0.1,0.1,0.4,0,0.4-0.2c0,0,0,0,0-0.1
		c1.1-0.4,2.5-0.6,3.6-0.8c2.1-0.3,4.4-0.3,6.5,0c-0.4,0.2-0.8,0.4-1.2,0.6c0,0,0,0,0,0c-0.8,0.1-1.5,0.3-2.3,0.5
		c-0.1,0-0.2,0.3,0,0.2c3.5-0.5,7.3,0.1,10.5,1.7c-0.6,0-1.3,0-1.9,0c-0.7-0.2-1.4-0.4-2.2-0.3h0l0,0c1.6,0.4,2.9,1.2,4.2,2.2
		c0.2,0.1,0.3,0.2,0.5,0.3c-0.5,1.2-1.1,2.3-1.6,3.5c-0.1,0.1-0.1,0.1-0.2,0.2c-0.4-0.7-0.9-1.3-1.4-1.8c-0.1-0.1-0.5-0.1-0.5,0.1
		c0,0.9-0.1,1.8-0.1,2.7c-1-1.4-2.5-2.4-4.2-2.9c0.8,0.5,1.5,1.1,2.2,1.7c0.8,0.5,1.5,1.2,1.9,2.2c0.1,0.2,0.5,0.4,0.6,0.1
		c0.1-1,0.2-1.9,0.2-2.9c1.1,1.3,1.6,2.9,1.5,4.5c0,0,0,0,0,0c0,0-0.1,0.1-0.1,0.1c-0.1,0.1,0,0.2,0.1,0.2c0,0,0.1,0,0.1-0.1
		c0.1,0,0.2,0.1,0.2-0.1c0,0,0-0.1,0-0.1c0.9-0.6,1.6-1.4,1.9-2.3c0.2,1.3-0.2,2.5-0.7,3.8c0,0,0,0.1,0,0.1c0.9-0.4,1.9-0.7,2.9-0.9
		c0.1,0,0.1,0,0.2,0c0.9-0.3,1.9-0.4,2.8-0.2c-1.2,0.2-2.5,0.8-3.1,1.8c0.8-0.2,1.7-0.4,2.6-0.5c0.1,0,0.1,0,0.1,0
		c0.4-0.1,0.9-0.1,1.4,0c1,0.1,2,0.4,2.7,1.1c-0.9-0.2-1.9-0.6-2.8-0.5c-1,0.1-1.9,0.4-2.8,0.8c0,0,0,0.1,0,0.1
		c1-0.4,2.2-0.7,3.2-0.6c1,0.2,1.9,0.5,2.8,0.7c0.2,0,0.3-0.1,0.3-0.2c-0.5-1.1-1.8-1.6-3.1-1.9c-0.3-0.1-0.7-0.1-1.1-0.2
		c0.3-0.1,0.7-0.1,1-0.1c0.3,0,0.3-0.4,0.1-0.5c-1.4-1.1-3.6-0.8-5.4-0.1c0.2-0.3,0.4-0.7,0.5-1c0.8-0.9,1.4-2,2-3
		c0.4,0.3,0.7,0.6,1.1,1c-0.3-0.1-0.6-0.2-0.8-0.2c0.1,0.1,0.2,0.2,0.3,0.4c0.3,0.1,0.6,0.3,0.7,0.3c0.4,0.2,0.8,0.4,1.3,0.5
		c0.1,0,0.2,0.1,0.2,0.2c0.6,0.1,1.1,0.2,1.8,0.2c0,0,0,0,0,0c-1,0.3-2.1,0.2-3.1,0.4c0,0,0,0,0,0c-0.3-0.1-0.6-0.1-0.9-0.2
		c0,0,0,0,0,0c0.8,0.5,1.7,0.9,2.6,1.3c1.3,0.7,2.6,1.5,3.8,2.3c1.8,1.2,3.3,2.6,4.6,4.2c1.4,1.5,2.7,3,3.9,4.5
		c0.4,1.1,1.2,2,1.6,3.1c-0.5-0.4-1.1-0.7-1.7-1c-1.2-1.3-2.6-2.3-4.1-2.8c0,0-0.1,0,0,0.1c3.2,1.4,5.6,4.9,7.2,7.6
		c1.9,3.2,4.3,6.9,4.6,10.6c-0.2-0.2-0.5-0.3-0.8-0.5c-0.1,0-0.1,0-0.2,0c-0.8-0.2-1.6-0.7-2.4-1.2c2.4,3.7,3.7,7.4,4,11.6
		C99.4,68.8,98.8,67.9,97.9,67.2z"/>
	<path class="st11" d="M27,34.7c0.6-0.1,1.2-0.3,1.8-0.4c-0.3,0-0.7,0-1,0c-0.1,0-0.1,0-0.2,0C27.4,34.4,27.2,34.5,27,34.7z"/>
	<path class="st12" d="M35.9,33.6c-1.2-0.8-3.6-1.8-5.2-1.3c1.3,0.2,2.6,0.9,3.1,1.9c0.1,0.2-0.2,0.4-0.4,0.3
		c-0.2-0.1-0.4-0.3-0.6-0.4c0,0-0.1,0-0.1,0c-1.1-0.2-1.9-0.5-3.1-0.4c-0.5,0.1-0.9,0.2-1.3,0.3c0.9,0,1.8,0.1,2.6,0.2
		c0.2,0,0.2,0.2,0.1,0.3c0.6,0.2,1.1,0.4,1.6,0.6c0,0,0,0.1,0,0.1c-0.6-0.2-1.2-0.4-1.8-0.5c-0.8,0.6-1.6,1.1-2.4,1.7
		c2-0.1,3.9,0,5.9,0.3c-0.3-0.3-0.7-0.5-1.2-0.8c-0.2-0.1,0-0.3,0.2-0.3c1.1-0.2,2.2,0,3.3,0.2c-0.1-0.5-0.5-0.8-0.8-1.2
		c-0.1-0.1,0.1-0.3,0.2-0.3c0.8,0.1,1.4,0.4,2,0.8c0.6-1.1,1.2-2.2,2.2-3.1c0.1-0.1,0.2-0.1,0.3,0c0.4,0.6,0.5,1.2,0.6,1.8
		c1.1-2,2.5-3.8,4.6-5.1c0.2-0.1,0.3,0,0.3,0.2c-0.3,0.5-0.5,1-0.8,1.5c1.2-0.9,2.4-1.7,3.4-2.8c-2.4,0-4.3,1.6-6.3,2.6
		c-0.1,0-0.2,0-0.2-0.1c-0.3-1.1,0.3-2.1,1-2.9c-0.2,0.2-0.5,0.4-0.7,0.6c-0.8,0.5-1.5,1.2-1.9,2.2c-0.1,0.2-0.5,0.4-0.6,0
		c-0.1-1-0.2-1.9-0.2-2.9c-1.1,1.3-1.6,2.9-1.5,4.5c0,0,0,0,0,0c0,0,0.1,0.1,0.1,0.1c0.1,0.1-0.1,0.2-0.1,0.2c0,0-0.1,0-0.1-0.1
		c-0.1,0-0.2,0.1-0.2-0.1c0,0,0-0.1,0-0.1c-0.9-0.6-1.6-1.4-1.9-2.3c-0.2,1.3,0.2,2.5,0.7,3.8C36.6,33.5,36.2,33.8,35.9,33.6z"/>
	<path class="st12" d="M71.1,30.8C71.1,30.8,71.1,30.9,71.1,30.8C71,31,70.9,31,70.9,30.9c0,0-0.1,0-0.1,0.1c-0.1,0-0.2-0.1-0.1-0.2
		c0,0,0.1-0.1,0.1-0.1c0,0,0,0,0,0c0.2-1.6-0.4-3.2-1.5-4.5c0,1,0,1.9-0.2,2.9c0,0.3-0.5,0.1-0.6-0.1c-0.5-0.9-1.1-1.6-1.9-2.2
		c-0.3-0.3-0.6-0.6-0.9-0.8c0.2,0.7,0.4,1.3,0.5,2c0,0.1-0.2,0.3-0.3,0.2c-1-0.8-2.2-1.3-3.6-1.6c1.5,1.2,2.8,2.4,3.6,4.1
		c0.1,0.2-0.1,0.4-0.3,0.3c-0.8-0.7-1.8-1.1-2.9-1.4c1.3,1.1,2.2,2.5,3.3,3.9c0.8-0.8,1.2-1.7,1.7-2.6c0.1-0.1,0.3-0.2,0.4,0
		c0.3,0.9,0.5,1.6,0.3,2.5c1.6-0.2,3.1,0,4.7-0.2c0,0,0,0,0,0c0.1-0.1,0.2-0.1,0.2,0c0,0,0.1,0,0.1,0c0.3,0,0.2,0.3,0,0.4
		c-0.1,0-0.1,0-0.2,0c-0.9,0.6-1.7,1.2-2.6,1.8c1.9-0.2,3.8-0.5,5.7,0.2c0.2,0.1,0.1,0.3-0.1,0.3c-1,0.4-2,0.6-3,1
		c2.7-0.2,5.3-0.3,7.9,0.3c-0.7-0.5-1.5-0.9-2.3-1.3c-0.2-0.1,0-0.4,0.2-0.4c1.2,0.1,2.4,0.2,3.5,0.4c-1.5-1-3.1-1.9-5.1-1.9
		c-0.1,0-0.1,0-0.1-0.1c-0.3,0.1-0.6,0.2-0.9,0.3c0,0-0.1,0,0-0.1c0.3-0.2,0.7-0.3,1-0.4c0-0.1,0.1-0.1,0.2-0.1c0,0,0.1,0,0.1,0
		c0.5-0.2,1-0.3,1.5-0.3c1-0.1,1.9,0.3,2.8,0.5c-0.7-0.7-1.6-1-2.7-1.1c-0.5-0.1-0.9,0-1.4,0c0,0-0.1,0-0.1,0
		c-0.9,0-1.7,0.2-2.6,0.5c0.5-1,1.8-1.5,3.1-1.8c-0.8-0.2-1.8-0.1-2.8,0.2c-0.1,0-0.1,0-0.2,0c-0.9,0.2-2,0.5-2.9,0.9
		c0,0,0-0.1,0-0.1c0.5-1.3,0.9-2.5,0.7-3.8C72.8,29.4,72.1,30.2,71.1,30.8z"/>
	<path class="st12" d="M95.3,64.9c1,0.7,1.8,1.5,2.4,2.3c0,0,0.1,0,0.1,0c0.9,0.7,1.6,1.5,2.2,2.3c-0.3-4.2-1.5-8-4-11.6
		c0.7,0.6,1.6,1,2.4,1.2c0.1,0,0.1,0,0.2,0c0.3,0.2,0.5,0.3,0.8,0.5c-0.3-3.7-2.7-7.4-4.6-10.6c-1.6-2.7-3.9-6.2-7.2-7.6
		c0,0,0-0.1,0-0.1c1.6,0.4,2.9,1.5,4.1,2.8c0.6,0.3,1.1,0.7,1.7,1c-0.4-1.1-1.2-2-1.6-3.1c-0.4-0.6-0.9-1.2-1.4-1.7
		c-2.5-1.9-4.3-4.6-7.6-5.1c1.4,1.3,3,2.4,3.7,4.2c0.1,0.1-0.2,0.3-0.3,0.2c-2.1-1-4.3-1.6-6.6-1.8c3.8,2.4,7.5,5.5,8.1,9.6
		c0,0.1-0.2,0.3-0.3,0.2c-1.1-0.9-2.2-1.9-3.3-2.7c3.3,3.3,6,7.3,5.6,11.7c0,0.1-0.2,0.3-0.3,0.2c-0.5-0.5-0.9-1-1.4-1.5
		c0.4,1.3,0.6,2.7,0.5,4.1c1.6,2.7,2.7,5.8,0.8,8.2c-0.1,0.1-0.3,0.2-0.3,0.1c-1-2-2.3-5.4-5-5.9c1,2.4,3.2,4.1,3.5,6.7
		c0.3,2.1,0.2,4.6-1.5,6.3c-0.1,0.1-0.3,0.1-0.3,0c-0.4-1.5-0.9-3-1.6-4.3c-0.1-0.1-0.1-0.2-0.2-0.3c0.6,3.6,0.4,7.4-2.4,10.3
		c-0.1,0.1-0.3,0.1-0.3-0.1c-0.3-2.9-0.2-7.8-3.5-9.5c0.9,3.5,3.8,7.9,0.1,10.7c-0.1,0.1-0.2,0.1-0.3,0c-0.8-1.6-1-3.6-1.9-5.2
		c0.1,1.9,0,3.9-0.5,5.7c-0.7,2.7-2,5.4-4.9,6.7c-0.1,0.1-0.2,0-0.2-0.1c0-3,0.9-6.1-0.4-9c-0.7,1.4-0.5,3-1.4,4.3
		c-0.1,0.1-0.3,0.2-0.3,0.1c-2.2-3.8-1.6-8.6-6-11.2c-0.8,3.4,1.2,7-0.5,10.3c0,0,0,0,0,0c0,0.1,0,0.2-0.1,0.2
		c-0.1,0.1-0.1,0.2-0.2,0.3c-0.1,0.2-0.5,0.1-0.3-0.1c0.1-0.1,0.2-0.3,0.2-0.4c-0.9-3.8-2.4-7.7-6-10.1c0.2,3.5,1.8,7.2-0.5,10.4
		c-0.1,0.1-0.3,0.2-0.4,0c-0.4-1.8-0.9-3.6-1.7-5.3c-0.1,1.9-0.3,3.8-0.8,5.6c-0.6,2.5-1.5,5.1-3.7,6.8c-0.1,0-0.2,0.1-0.2,0
		c-3.3-3.4-4.8-8.3-4.6-12.8c-0.4,0.9-0.8,1.7-1.2,2.6c-0.1,0.1-0.4,0.3-0.4,0.1c-0.2-1.4-0.3-2.7-0.3-4.1c-2.4,2.9-4.9,5.7-6.8,8.9
		c-0.1,0.2-0.4,0.2-0.4,0c-0.3-3.5,0.4-6.9,2.1-10c-3,2.4-5.2,5.3-7,8.5c-0.1,0.1-0.3,0.2-0.4,0c-0.1-0.9-0.1-1.8-0.1-2.7
		c-1,2-1.5,4.2-2.2,6.3c0,0.2-0.3,0.2-0.4,0.1c-1.9-5.2-1.6-10.5-0.3-15.8c-2.9,2.5-4.9,5.6-5.4,9.2c0,0.2-0.4,0.3-0.4,0.1v0
		c-0.8-2-0.6-4-0.1-6.1c0.3-1.8,0.8-3.6,1.5-5.3c0,0,0-0.1,0-0.1c-2.1,2.3-4.4,4.7-5,7.6c0,0.2-0.4,0.2-0.4,0
		c0.6-3.4,0.6-6.8,1.2-10.1c0.6-3,1.7-5.8,3.8-8.3c-1.9,1.2-3.7,2.6-5.1,4.2c-0.1,0.1-0.4,0.1-0.3-0.1c1.7-4.4,3.8-8.4,7.5-11.7
		c-2.3,0.5-4.5,1.4-6.5,2.5c-0.2,0.1-0.4,0-0.3-0.2c2.3-3.7,5.8-6.3,9.5-8.8c-2.9,0.4-5.6,1.3-8.4,1.7c-0.2,0-0.2-0.1-0.2-0.2
		c2.5-3.6,7.6-5.7,9.1-9.8c-2,0.7-4.1,1.9-6.3,1.4c-1.5,0.8-3.1,1.2-4.7,0.9c0.8,0.7,2.5,1.1,3.3,1.1c1.3,0.1,2.5,0.1,3.7-0.3
		c0.2-0.1,0.5-0.2,0.8-0.3c0,0,0,0,0,0c-0.1,0.1-0.2,0.2-0.3,0.3c0,0-0.1,0.1-0.1,0.1c-0.3,0.1-0.5,0.2-0.8,0.2
		c-5.5,2.5-9,6.4-9.8,11.9c1.2-1.6,3.7-3,5.7-3.2c0.7-0.5,1.4-0.8,2.2-1.1c0,0,0,0,0.1,0c0,0,0,0.1-0.1,0.1
		c-2.6,1.7-4.8,3.6-6.4,6.2c-1.3,2.3-1.8,4.6-2.3,7c0.6-0.9,1.2-1.8,2.2-2.5c1-0.7,2.1-1.4,3.4-1.7c0.1,0,0.2,0,0.2,0.1
		c0.5-0.4,1.1-0.8,1.6-1.2c-0.2,0.2-0.4,0.5-0.6,0.7c-0.4,0.5-0.8,0.9-1.1,1.4c-1,0.9-2,1.8-2.8,3.1c-1.5,2.4-2.4,5.1-2.7,7.9
		c-0.2,1.4-0.2,2.8-0.1,4.2c0,0.6-0.1,1.2-0.2,1.6c0.1-0.4,0.2-0.9,0.4-1.2c0.8-2,2-3.8,3.4-5.5c0,0,0.1-0.1,0.1-0.1
		c-0.2,0.4-0.3,0.7-0.5,1.1c-1.8,3-2.5,6.3-1.9,9.7c0.5,3.1,1.9,5.8,3.1,8.6c0.1-2.5,0.5-4.8,2.1-6.9c0-0.1,0.2,0,0.1,0
		c-0.4,0.6-0.7,1.3-0.9,1.9c0,0,0.1,0,0.1,0.1c-0.9,5.6,1.4,11.3,7.3,13.9c-1.7-2.4-1.1-6.4,0-8.7c0.1-0.1,0.3-0.1,0.3,0
		c-1.5,4.8,3.1,8.8,8,9.7c-2.8-2.4-2.4-6.8-1.6-9.9c0,0,0,0,0,0c0,0.1,0,0.1,0,0.2c0.1,0.5,0.2,0.9,0.3,1.4c0.4,4.5,4,8,8.7,9.7
		c-0.9-1.2-1-3.2-1.1-4.4c-0.1-2.4,0.2-4.7,1.4-6.9c0,0,0.1-0.1,0.1-0.1c0,0,0,0,0,0c-0.1,0.4,0,0.9,0,1.3
		c-0.5,6.3,5.6,10.6,12.3,11.7c-1-3.1-0.2-5.8,2.1-8.3c-0.1-0.7-0.3-1.4-0.7-2c0.3,0.3,0.6,0.6,0.9,0.9c1,1.7,0.9,4,0,5.8
		c-0.1,0.1-0.8,1.4-0.5,1.4c0.7-0.2,1.4-0.4,2.1-0.6c1.9-0.7,3.3-1.8,4.7-3.1c0.1-1.1,0-2.1-0.4-3c0.2,0.2,0.4,0.4,0.6,0.7
		c0.9,2-0.1,5-1.6,6.6c2.2,0,4.2-0.3,6.2-1c0.1,0,0.1,0,0.1,0c0.4-1,0.6-2.2,0.6-3.2c0,0,0,0,0,0c0.1,1.3,0,2.6-0.5,3.8
		c-0.1,0.2-0.7,1.3-0.5,1.3c1.2-0.1,2.3-0.2,3.4-0.5c3.2-1,5.9-2.7,7.4-5.1c0,0,0,0,0,0c0,0,0,0,0,0c0.7-1.1,1.2-2.2,1.4-3.5
		c0.1,0.6,0.1,1.2,0,1.8c-0.3,0.9-0.8,1.8-1.4,2.6c-0.3,0.9-0.8,1.7-1.4,2.5c-0.3,0.3-1.5,1.2-0.2,0.9c0.9-0.2,1.9-0.4,2.7-0.9
		c3.7-1.8,5.8-4.7,5.8-8.4c0,0,0,0,0,0c0.1,0.3,0.2,0.6,0.4,0.9c0,0.2,0,0.4,0,0.5c0.6,1.2,1.5,2.3,2.9,3c0.5,0.2,2,1.1,1.6,0.2
		c0-0.1,0.1-0.1,0-0.2c-0.1-0.3-0.2-0.7-0.2-1c0,0,0-0.1,0-0.1c-0.2-2.1,0.8-3.8,1.6-5.7c0,0,0-0.1,0.1-0.1c0,0,0.1-0.1,0.2-0.1
		c0-0.1,0-0.3,0-0.4c0.2-0.6,0.3-1.3,0.3-2c0.2,0.5,0.1,1,0.1,1.6c0,1.1,0.4,2.2,0.9,3.2c3-3.9,5-7.8,3.7-12.5
		c0.3,0.5,0.8,1,1.2,1.4c0,0,0,0.1,0,0.1c0.5,0.4,0.9,0.9,1.3,1.4C100.4,74,99.3,68.5,95.3,64.9C95.3,64.9,95.3,64.9,95.3,64.9z"/>
	<path class="st12" d="M95.3,64.9c1,0.7,1.8,1.5,2.4,2.3c0,0,0.1,0,0.1,0c0.9,0.7,1.6,1.5,2.2,2.3c-0.3-4.2-1.5-8-4-11.6
		c0.7,0.6,1.6,1,2.4,1.2c0.1,0,0.1,0,0.2,0c0.3,0.2,0.5,0.3,0.8,0.5c-0.3-3.7-2.7-7.4-4.6-10.6c-1.6-2.7-3.9-6.2-7.2-7.6
		c0,0,0-0.1,0-0.1c1.6,0.4,2.9,1.5,4.1,2.8c0.6,0.3,1.1,0.7,1.7,1c-0.4-1.1-1.2-2-1.6-3.1c-0.4-0.6-0.9-1.2-1.4-1.7
		c-2.5-1.9-4.3-4.6-7.6-5.1c1.4,1.3,3,2.4,3.7,4.2c0.1,0.1-0.2,0.3-0.3,0.2c-2.1-1-4.3-1.6-6.6-1.8c3.8,2.4,7.5,5.5,8.1,9.6
		c0,0.1-0.2,0.3-0.3,0.2c-1.1-0.9-2.2-1.9-3.3-2.7c3.3,3.3,6,7.3,5.6,11.7c0,0.1-0.2,0.3-0.3,0.2c-0.5-0.5-0.9-1-1.4-1.5
		c0.4,1.3,0.6,2.7,0.5,4.1c1.6,2.7,2.7,5.8,0.8,8.2c-0.1,0.1-0.3,0.2-0.3,0.1c-1-2-2.3-5.4-5-5.9c1,2.4,3.2,4.1,3.5,6.7
		c0.3,2.1,0.2,4.6-1.5,6.3c-0.1,0.1-0.3,0.1-0.3,0c-0.4-1.5-0.9-3-1.6-4.3c-0.1-0.1-0.1-0.2-0.2-0.3c0.6,3.6,0.4,7.4-2.4,10.3
		c-0.1,0.1-0.3,0.1-0.3-0.1c-0.3-2.9-0.2-7.8-3.5-9.5c0.9,3.5,3.8,7.9,0.1,10.7c-0.1,0.1-0.2,0.1-0.3,0c-0.8-1.6-1-3.6-1.9-5.2
		c0.1,1.9,0,3.9-0.5,5.7c-0.7,2.7-2,5.4-4.9,6.7c-0.1,0.1-0.2,0-0.2-0.1c0-3,0.9-6.1-0.4-9c-0.7,1.4-0.5,3-1.4,4.3
		c-0.1,0.1-0.3,0.2-0.3,0.1c-2.2-3.8-1.6-8.6-6-11.2c-0.8,3.4,1.2,7-0.5,10.3c0,0,0,0,0,0c0,0.1,0,0.2-0.1,0.2
		c-0.1,0.1-0.1,0.2-0.2,0.3c-0.1,0.2-0.5,0.1-0.3-0.1c0.1-0.1,0.2-0.3,0.2-0.4c-0.9-3.8-2.4-7.7-6-10.1c0.2,3.5,1.8,7.2-0.5,10.4
		c-0.1,0.1-0.3,0.2-0.4,0c-0.4-1.8-0.9-3.6-1.7-5.3c-0.1,1.9-0.3,3.8-0.8,5.6c-0.6,2.5-1.5,5.1-3.7,6.8c-0.1,0-0.2,0.1-0.2,0
		c-3.3-3.4-4.8-8.3-4.6-12.8c-0.4,0.9-0.8,1.7-1.2,2.6c-0.1,0.1-0.4,0.3-0.4,0.1c-0.2-1.4-0.3-2.7-0.3-4.1c-2.4,2.9-4.9,5.7-6.8,8.9
		c-0.1,0.2-0.4,0.2-0.4,0c-0.3-3.5,0.4-6.9,2.1-10c-3,2.4-5.2,5.3-7,8.5c-0.1,0.1-0.3,0.2-0.4,0c-0.1-0.9-0.1-1.8-0.1-2.7
		c-1,2-1.5,4.2-2.2,6.3c0,0.2-0.3,0.2-0.4,0.1c-1.9-5.2-1.6-10.5-0.3-15.8c-2.9,2.5-4.9,5.6-5.4,9.2c0,0.2-0.4,0.3-0.4,0.1v0
		c-0.8-2-0.6-4-0.1-6.1c0.3-1.8,0.8-3.6,1.5-5.3c0,0,0-0.1,0-0.1c-2.1,2.3-4.4,4.7-5,7.6c0,0.2-0.4,0.2-0.4,0
		c0.6-3.4,0.6-6.8,1.2-10.1c0.6-3,1.7-5.8,3.8-8.3c-1.9,1.2-3.7,2.6-5.1,4.2c-0.1,0.1-0.4,0.1-0.3-0.1c1.7-4.4,3.8-8.4,7.5-11.7
		c-2.3,0.5-4.5,1.4-6.5,2.5c-0.2,0.1-0.4,0-0.3-0.2c2.3-3.7,5.8-6.3,9.5-8.8c-2.9,0.4-5.6,1.3-8.4,1.7c-0.2,0-0.2-0.1-0.2-0.2
		c2.5-3.6,7.6-5.7,9.1-9.8c-2,0.7-4.1,1.9-6.3,1.4c-1.5,0.8-3.1,1.2-4.7,0.9c0.8,0.7,2.5,1.1,3.3,1.1c1.3,0.1,2.5,0.1,3.7-0.3
		c0.2-0.1,0.5-0.2,0.8-0.3c0,0,0,0,0,0c-0.1,0.1-0.2,0.2-0.3,0.3c0,0-0.1,0.1-0.1,0.1c-0.3,0.1-0.5,0.2-0.8,0.2
		c-5.5,2.5-9,6.4-9.8,11.9c1.2-1.6,3.7-3,5.7-3.2c0.7-0.5,1.4-0.8,2.2-1.1c0,0,0,0,0.1,0c0,0,0,0.1-0.1,0.1
		c-2.6,1.7-4.8,3.6-6.4,6.2c-1.3,2.3-1.8,4.6-2.3,7c0.6-0.9,1.2-1.8,2.2-2.5c1-0.7,2.1-1.4,3.4-1.7c0.1,0,0.2,0,0.2,0.1
		c0.5-0.4,1.1-0.8,1.6-1.2c-0.2,0.2-0.4,0.5-0.6,0.7c-0.4,0.5-0.8,0.9-1.1,1.4c-1,0.9-2,1.8-2.8,3.1c-1.5,2.4-2.4,5.1-2.7,7.9
		c-0.2,1.4-0.2,2.8-0.1,4.2c0,0.6-0.1,1.2-0.2,1.6c0.1-0.4,0.2-0.9,0.4-1.2c0.8-2,2-3.8,3.4-5.5c0,0,0.1-0.1,0.1-0.1
		c-0.2,0.4-0.3,0.7-0.5,1.1c-1.8,3-2.5,6.3-1.9,9.7c0.5,3.1,1.9,5.8,3.1,8.6c0.1-2.5,0.5-4.8,2.1-6.9c0-0.1,0.2,0,0.1,0
		c-0.4,0.6-0.7,1.3-0.9,1.9c0,0,0.1,0,0.1,0.1c-0.9,5.6,1.4,11.3,7.3,13.9c-1.7-2.4-1.1-6.4,0-8.7c0.1-0.1,0.3-0.1,0.3,0
		c-1.5,4.8,3.1,8.8,8,9.7c-2.8-2.4-2.4-6.8-1.6-9.9c0,0,0,0,0,0c0,0.1,0,0.1,0,0.2c0.1,0.5,0.2,0.9,0.3,1.4c0.4,4.5,4,8,8.7,9.7
		c-0.9-1.2-1-3.2-1.1-4.4c-0.1-2.4,0.2-4.7,1.4-6.9c0,0,0.1-0.1,0.1-0.1c0,0,0,0,0,0c-0.1,0.4,0,0.9,0,1.3
		c-0.5,6.3,5.6,10.6,12.3,11.7c-1-3.1-0.2-5.8,2.1-8.3c-0.1-0.7-0.3-1.4-0.7-2c0.3,0.3,0.6,0.6,0.9,0.9c1,1.7,0.9,4,0,5.8
		c-0.1,0.1-0.8,1.4-0.5,1.4c0.7-0.2,1.4-0.4,2.1-0.6c1.9-0.7,3.3-1.8,4.7-3.1c0.1-1.1,0-2.1-0.4-3c0.2,0.2,0.4,0.4,0.6,0.7
		c0.9,2-0.1,5-1.6,6.6c2.2,0,4.2-0.3,6.2-1c0.1,0,0.1,0,0.1,0c0.4-1,0.6-2.2,0.6-3.2c0,0,0,0,0,0c0.1,1.3,0,2.6-0.5,3.8
		c-0.1,0.2-0.7,1.3-0.5,1.3c1.2-0.1,2.3-0.2,3.4-0.5c3.2-1,5.9-2.7,7.4-5.1c0,0,0,0,0,0c0,0,0,0,0,0c0.7-1.1,1.2-2.2,1.4-3.5
		c0.1,0.6,0.1,1.2,0,1.8c-0.3,0.9-0.8,1.8-1.4,2.6c-0.3,0.9-0.8,1.7-1.4,2.5c-0.3,0.3-1.5,1.2-0.2,0.9c0.9-0.2,1.9-0.4,2.7-0.9
		c3.7-1.8,5.8-4.7,5.8-8.4c0,0,0,0,0,0c0.1,0.3,0.2,0.6,0.4,0.9c0,0.2,0,0.4,0,0.5c0.6,1.2,1.5,2.3,2.9,3c0.5,0.2,2,1.1,1.6,0.2
		c0-0.1,0.1-0.1,0-0.2c-0.1-0.3-0.2-0.7-0.2-1c0,0,0-0.1,0-0.1c-0.2-2.1,0.8-3.8,1.6-5.7c0,0,0-0.1,0.1-0.1c0,0,0.1-0.1,0.2-0.1
		c0-0.1,0-0.3,0-0.4c0.2-0.6,0.3-1.3,0.3-2c0.2,0.5,0.1,1,0.1,1.6c0,1.1,0.4,2.2,0.9,3.2c3-3.9,5-7.8,3.7-12.5
		c0.3,0.5,0.8,1,1.2,1.4c0,0,0,0.1,0,0.1c0.5,0.4,0.9,0.9,1.3,1.4C100.4,74,99.3,68.5,95.3,64.9C95.3,64.9,95.3,64.9,95.3,64.9z"/>
	<path class="st12" d="M18.4,79.9c-0.4,0.6-0.7,1.3-0.9,1.9c0,0,0.1,0,0.1,0.1c-0.4,2.2-0.2,4.4,0.5,6.5c0.4-1.3,0.9-2.6,1.3-3.9
		c0.1-0.2,0.4-0.2,0.4,0c0.2,2.3,0.7,4.7,1.8,6.8c0.7-3,1.4-6.1,3.3-8.8c0-0.1,0.1-0.1,0.2-0.1c-0.4-3.5,0.1-7,1-10.4
		c-2.9,2.5-4.9,5.6-5.4,9.2c0,0.2-0.4,0.3-0.4,0.1v0c-0.8-2-0.6-4-0.1-6.1c0.3-1.8,0.8-3.6,1.5-5.3c0,0,0-0.1,0-0.1
		c-2.1,2.3-4.4,4.7-5,7.6c0,0.2-0.4,0.2-0.4,0c0.6-3.4,0.6-6.8,1.2-10.1c0.6-3,1.7-5.8,3.8-8.3c-1.9,1.2-3.7,2.6-5.1,4.2
		c-0.1,0.1-0.4,0.1-0.3-0.1c1.7-4.4,3.8-8.4,7.5-11.7c-2.3,0.5-4.5,1.4-6.5,2.5c-0.2,0.1-0.4,0-0.3-0.2c2.3-3.7,5.8-6.3,9.5-8.8
		c-2.9,0.4-5.6,1.3-8.4,1.7c-0.2,0-0.2-0.1-0.2-0.2c2.5-3.6,7.6-5.7,9.1-9.8c-2,0.7-4.1,1.9-6.3,1.4c-1.5,0.8-3.1,1.2-4.7,0.9
		c0.8,0.7,2.5,1.1,3.3,1.1c1.3,0.1,2.5,0.1,3.7-0.3c0.2-0.1,0.5-0.2,0.8-0.3c0,0,0,0,0,0c-0.1,0.1-0.2,0.2-0.3,0.3
		c0,0-0.1,0.1-0.1,0.1c-0.3,0.1-0.5,0.2-0.8,0.2c-5.5,2.5-9,6.4-9.8,11.9c1.2-1.6,3.7-3,5.7-3.2c0.7-0.5,1.4-0.8,2.2-1.1
		c0,0,0,0,0.1,0c0,0,0,0.1-0.1,0.1c-2.6,1.7-4.8,3.6-6.4,6.2c-1.3,2.3-1.8,4.6-2.3,7c0.6-0.9,1.2-1.8,2.2-2.5c1-0.7,2.1-1.4,3.4-1.7
		c0.1,0,0.2,0,0.2,0.1c0.5-0.4,1.1-0.8,1.6-1.2c-0.2,0.2-0.4,0.5-0.6,0.7c-0.4,0.5-0.8,0.9-1.1,1.4c-1,0.9-2,1.8-2.8,3.1
		c-1.5,2.4-2.4,5.1-2.7,7.9c-0.2,1.4-0.2,2.8-0.1,4.2c0,0.6-0.1,1.2-0.2,1.6c0.1-0.4,0.2-0.9,0.4-1.2c0.8-2,2-3.8,3.4-5.5
		c0,0,0.1-0.1,0.1-0.1c-0.2,0.4-0.3,0.7-0.5,1.1c-1.8,3-2.5,6.3-1.9,9.7c0.5,3.1,1.9,5.8,3.1,8.6c0.1-2.5,0.5-4.8,2.1-6.9
		C18.3,79.8,18.4,79.8,18.4,79.9z"/>
	<path class="st13" d="M77.3,93.6C77.3,93.6,77.3,93.6,77.3,93.6C77.3,93.6,77.3,93.6,77.3,93.6c0.2-0.4,0.4-0.7,0.6-1.1
		c-0.4,0.4-0.9,0.8-1.4,1.1c-2.5,1.8-5.5,3.3-8.5,4.3c-0.2,0-0.3,0-0.2-0.2c0.5-1.9,1.5-3.9,0.7-5.8c-1.5,1.7-2.8,3.6-4.9,4.8
		c-0.1,0.1-0.3,0-0.3-0.2c1-3.2-0.3-6.9-3.4-9c-0.1,2.2-0.2,4.5-1.8,6.3c-0.1,0.1-0.3,0.1-0.3,0c-0.6-2.5-1.6-5.3-3.8-7
		c-0.6,3.8-1.3,7.6-2.8,11.3c0,0.1-0.2,0.2-0.3,0.2c-7.4-2.1-8.2-8.9-9.3-14.7c-2.7,2.9-3.4,6.8-4.6,10.3c0,0.1-0.2,0.2-0.3,0.1
		c-2.5-2.6-4.2-5.8-4.9-9.1c-1.8,2.2-2.2,5.1-3,7.7c0,0.1-0.3,0.2-0.4,0.1c-2-2.9-3.1-6.2-3.7-9.6c-1.8,2.7-2.4,5.8-3.1,8.8
		c0,0.1-0.3,0.3-0.4,0.1c-1.2-2-1.8-4.2-2-6.5c-0.4,1.2-0.8,2.4-1.1,3.6c1.1,2.9,3.3,5.4,6.6,6.9c-1.7-2.4-1.1-6.4,0-8.7
		c0.1-0.1,0.3-0.1,0.3,0c-1.5,4.8,3.1,8.8,8,9.7c-2.8-2.4-2.4-6.8-1.6-9.9c0,0,0,0,0,0c0,0.1,0,0.1,0,0.2c0.1,0.5,0.2,0.9,0.3,1.4
		c0.4,4.5,4,8,8.7,9.7c-0.9-1.2-1-3.2-1.1-4.4c-0.1-2.4,0.2-4.7,1.4-6.9c0,0,0.1-0.1,0.1-0.1c0,0,0,0,0,0c-0.1,0.4,0,0.9,0,1.3
		c-0.5,6.3,5.6,10.6,12.3,11.7c-1-3.1-0.2-5.8,2.1-8.3c-0.1-0.7-0.3-1.4-0.7-2c0.3,0.3,0.6,0.6,0.9,0.9c1,1.7,0.9,4,0,5.8
		c-0.1,0.1-0.8,1.4-0.5,1.4c0.7-0.2,1.4-0.4,2.1-0.6c1.9-0.7,3.3-1.8,4.7-3.1c0.1-1.1,0-2.1-0.4-3c0.2,0.2,0.4,0.4,0.6,0.7
		c0.9,2-0.1,5-1.6,6.6c2.2,0,4.2-0.3,6.2-1c0.1,0,0.1,0,0.1,0c0.4-1,0.6-2.2,0.6-3.2c0,0,0,0,0,0c0.1,1.3,0,2.6-0.5,3.8
		c-0.1,0.2-0.7,1.3-0.5,1.3c1.2-0.1,2.3-0.2,3.4-0.5C73.1,97.7,75.8,96,77.3,93.6z"/>
	<path class="st13" d="M94.7,74.2c-0.1,0.1-0.3,0.2-0.4,0c-0.2-0.4-0.3-0.9-0.5-1.3c-0.4-0.5-0.8-0.9-1.2-1.3c0,0-0.1-0.1,0-0.2
		c0,0,0,0,0,0c0.3,3.7,1.6,8-1.3,11.1c-0.1,0.1-0.3,0.1-0.3,0c-0.1-0.9-0.4-1.7-1-2.5c-1.1,2.9-1.8,6-2.7,9c0,0.1-0.2,0.2-0.3,0.1
		c-1.3-1.3-2-3-3.4-4.2c0,3.7-1.6,8.1-5.5,9.9c-0.1,0.1-0.3-0.1-0.2-0.2c0.1-0.4,0.2-0.8,0.3-1.2c-0.2,0.4-0.5,0.8-0.8,1.1
		c-0.3,0.9-0.8,1.7-1.4,2.5c-0.3,0.3-1.5,1.2-0.2,0.9c0.9-0.2,1.9-0.4,2.7-0.9c3.7-1.8,5.8-4.7,5.8-8.4c0,0,0,0,0,0
		c0.1,0.3,0.2,0.6,0.4,0.9c0,0.2,0,0.4,0,0.5c0.6,1.2,1.5,2.3,2.9,3c0.5,0.2,2,1.1,1.6,0.2c0-0.1,0.1-0.1,0-0.2
		c-0.1-0.3-0.2-0.7-0.2-1c0,0,0-0.1,0-0.1c-0.2-2.1,0.8-3.8,1.6-5.7c0,0,0-0.1,0.1-0.1c0,0,0.1-0.1,0.2-0.1c0-0.1,0-0.3,0-0.4
		c0.2-0.6,0.3-1.3,0.3-2c0.2,0.5,0.1,1,0.1,1.6c0,1.1,0.4,2.2,0.9,3.2c2.9-3.7,4.8-7.5,3.9-11.9C95.6,75.6,95.2,74.9,94.7,74.2z"/>
	<path class="st13" d="M95.3,64.9c1,0.7,1.8,1.5,2.4,2.3c0,0,0.1,0,0.1,0c0.9,0.7,1.6,1.5,2.2,2.3c-0.3-4.2-1.5-8-4-11.6
		c0.7,0.6,1.6,1,2.4,1.2c0.1,0,0.1,0,0.2,0c0.3,0.2,0.5,0.3,0.8,0.5c-0.3-3.1-2-6.2-3.6-9c0.4,2,0.7,4,0.7,6c0,0.1-0.2,0.3-0.3,0.2
		c-1.1-0.9-2.1-2-3.2-2.9c1.7,3.4,3.9,6.7,4.4,10.5c0,0.1-0.1,0.3-0.3,0.2c-1.3-0.6-2.3-1.5-3.4-2.3c0.8,2.5,2,4.8,2.7,7.3
		c0.3,1.2,0.6,2.4,0.6,3.6c0.1,0.5,0.2,0.9,0.3,1.4c0.1,0,0.3,0,0.2,0.2c0,0.1-0.1,0.3-0.1,0.4c0.1,0.8,0.2,1.7,0.2,2.6
		c0.2,0.2,0.4,0.5,0.6,0.7C100.4,74,99.3,68.5,95.3,64.9C95.3,64.9,95.3,64.9,95.3,64.9z"/>
	<path class="st14" d="M35.3,8.7c-1.1-1.6-3-2.5-5-2.7c-1.2,0.3-2.4,0.7-3.5,1.2c-0.9,0.4-1.8,0.8-2.6,1.3c-0.2,0.1-0.4,0.2-0.6,0.3
		c-1.5,2.5-0.9,6.1,2,7.6c3.8,1.9,9.2-0.3,10.1-4C36.1,11.3,35.9,9.6,35.3,8.7z"/>
	<path class="st14" d="M86.1,8.7C84.7,8,83.4,7.1,82,6.5c-1.5-0.7-3.2-1.1-4.8-1.7c-0.4,0.1-0.9,0.3-1.3,0.6
		c-2.7,1.7-3.9,5.4-1.7,7.9c2.6,3.1,8.6,2.9,11.1-0.3c0.7-0.8,1.3-2.4,1.1-3.5C86.3,9.2,86.2,9,86.1,8.7z"/>
	<path class="st11" d="M72.2,3c2.2-1.7,4.5-2.4,6.8-2.3c2.8-0.1,6.2,1,7.9,2.8c1.3,1,2.2,2.4,2.7,3.9c0.4,1.3,0.8,2.9,0.7,4.4
		c-2.5-2.6-5.2-4.6-8.9-6c-3.3-1.3-6.8-2.1-10.4-1.7C71.3,3.8,71.7,3.4,72.2,3z"/>
	<path class="st15" d="M89.6,7.5c-0.2-0.6-0.4-1.1-0.7-1.7c-0.2,0.3-0.4,0.5-0.7,0.7c-1.3,0.9-3,0.5-4.4-0.1c-2.3-1-4.4-2.1-7-2.4
		c-1.8-0.3-3.6-0.3-5.4-0.2C71.1,4,71,4.1,70.9,4.2c3.6-0.4,7.2,0.4,10.4,1.7c3.7,1.4,6.3,3.4,8.9,6C90.4,10.4,90,8.8,89.6,7.5z"/>
	<path class="st11" d="M19.3,8.3c0.5-1.5,1.4-3,2.7-3.9c1.7-1.8,5.1-2.9,7.9-2.8c2.3-0.1,4.6,0.5,6.8,2.3c0.5,0.4,0.9,0.8,1.3,1.2
		c-3.6-0.4-7.2,0.4-10.4,1.7c-3.7,1.4-6.3,3.4-8.9,6C18.4,11.2,18.8,9.7,19.3,8.3z"/>
	<path class="st15" d="M36.7,3.9c-0.7-0.6-1.5-1.1-2.3-1.4c0,0.3-0.2,0.7-0.4,1c-0.6,0.7-1.7,1-2.6,1.2c-1.6,0.4-3.1,0.9-4.6,1.5
		c-1.5,0.6-2.8,1.3-4,2.1c-1,0.7-2.2,1.8-3.4,2.2c-0.2,0.1-0.5,0.1-0.6,0.1c-0.1,0.7-0.2,1.4-0.1,2.1c2.5-2.6,5.2-4.6,8.9-6
		c3.3-1.3,6.8-2.1,10.4-1.7C37.5,4.6,37.1,4.2,36.7,3.9z"/>
	<path class="st16" d="M29.2,7.4c-1.5,0-2.9,0.6-3.8,1.8c-1.3,1.8-0.8,4.5,1.3,5.6c2.7,1.4,6.6-0.2,7.2-2.9c0.2-0.7,0.1-1.9-0.4-2.5
		C32.8,8.1,31,7.4,29.2,7.4z"/>
	<path class="st8" d="M31,7.2c-0.9,0-1.8,0.4-2.4,1.1c-0.8,1.1-0.5,2.8,0.8,3.5c1.7,0.9,4.1-0.1,4.5-1.8c0.1-0.4,0-1.2-0.2-1.6
		C33.2,7.6,32.1,7.2,31,7.2z"/>
	<path class="st16" d="M79.8,6.2c-1.4,0-2.8,0.5-3.6,1.6c-1.2,1.6-0.9,4.2,1.1,5.3c2.5,1.4,6.2,0,6.9-2.5c0.2-0.7,0.1-1.8-0.3-2.4
		C83.1,6.9,81.5,6.2,79.8,6.2z"/>
	<path class="st8" d="M83.8,7.4c-0.7-0.2-1.5-0.2-2.2,0.2c-1,0.6-1.4,2-0.6,2.9c1,1.1,3.1,1.1,4-0.1c0.2-0.3,0.5-0.9,0.4-1.3
		C85.4,8.3,84.7,7.7,83.8,7.4z"/>
	<path class="st8" d="M81.9,11.9c-0.4-0.1-0.9-0.1-1.2,0.1c-0.6,0.4-0.8,1.1-0.4,1.6c0.5,0.6,1.8,0.6,2.3-0.1
		c0.1-0.2,0.3-0.5,0.2-0.7C82.8,12.4,82.4,12.1,81.9,11.9z"/>
	<path class="st8" d="M32.8,12.8c-0.4-0.1-0.9-0.1-1.2,0.1c-0.6,0.4-0.8,1.1-0.4,1.6c0.5,0.6,1.8,0.6,2.3-0.1
		c0.1-0.2,0.3-0.5,0.2-0.7C33.6,13.3,33.2,13,32.8,12.8z"/>
	<path class="st9" d="M52.1,38.1c-0.1,0-0.1,0.1-0.2,0.1c-1.8,0.3-3.3,1.2-3.2,3.1c0.1,2.2,4,2.5,5.8,2.3c2.1-0.2,4.1-1.2,4-3.3
		C58.4,37.8,54.3,37.4,52.1,38.1z"/>
	<path class="st8" d="M50.9,40.7C50.8,40.7,50.8,40.7,50.9,40.7c-0.4,0.1-0.7,0.3-0.7,0.7c0,0.5,0.8,0.5,1.2,0.5
		c0.4,0,0.8-0.2,0.8-0.7C52.1,40.7,51.3,40.6,50.9,40.7z"/>
	<path class="st8" d="M55,40.7C55,40.7,55,40.7,55,40.7c-0.4,0.1-0.7,0.3-0.7,0.7c0,0.5,0.8,0.5,1.2,0.5c0.4,0,0.8-0.2,0.8-0.7
		C56.3,40.7,55.5,40.6,55,40.7z"/>
	<path d="M58.5,39.7c-0.6-1.2-2.1-1.8-3.6-1.9c0.1-0.3,0.1-0.7,0.1-1c0-0.6,0.2-1.2,0.4-1.8c0.1-0.3-0.4-0.4-0.5-0.2
		c-0.3,0.5-0.5,1-0.5,1.6c0,0.4-0.1,0.9,0,1.3c-0.3,0-0.6,0-1,0c-0.2,0-0.4,0-0.5,0c0.3-1,0-2.1-0.3-3.1c-0.1-0.3-0.5-0.1-0.5,0.1
		c0.2,1,0.4,2,0.3,3c-1.7,0.3-3.3,1.1-3.7,2.6c-0.5,1.9,1.4,3.2,3.2,3.5c0.1,0,0.2-0.2,0.1-0.2c-1.8-0.4-3.5-2-2.5-3.7
		c0.7-1.1,2.5-1.4,3.8-1.5c1.3-0.1,2.8,0.1,3.8,0.9c1.8,1.4-0.1,3.1-1.5,3.9c-0.2,0.1-0.2,0.5,0.1,0.4
		C57.6,43.1,59.4,41.5,58.5,39.7z"/>
	<path class="st12" d="M70.9,48.2c-2.4-0.6-5-0.1-7.3,0.4c-2,0.4-4,0.6-6,0.6c-1.7,0.3-3.3,0.4-5,0.5c-3.8,0.2-7.7,0-11.3-1.1
		c-0.3,0-0.5-0.1-0.8-0.1c-1.7-0.2-3.9-0.6-5.6,0.2c-3,1.4-2.8,4.9-1.5,7.2c1.7,3,5.3,5.1,8.6,6.6c3.6,1.7,7.4,2.8,11.5,2.9
		c3.3,0.1,6.5-0.5,9.7-1.1c2.4-0.4,4.7-0.8,7-1.7c3.7-1.4,6.1-4.4,6.3-7.9C76.7,51.6,74.3,49,70.9,48.2z"/>
	<path class="st12" d="M45.2,49.4c0.5,0.1,1,0.1,1.5,0.2C46.2,49.5,45.7,49.4,45.2,49.4z"/>
	<g>
		<path d="M74.9,52.5c-1.5-4.9-8.8-3.4-12.9-2.6c-2.6,0.5-5.1,1.1-7.7,1.3c-3.5,0.3-7.1,0-10.6-0.3c-2.2-0.2-4.4-0.5-6.6-0.4
			c-3.8,0.3-2.7,4.3-1.3,6.1c2.7,3.7,7.9,5.5,12.6,6.4c7.1,1.4,16.9,1.6,23-2.3C74.4,58.9,75.9,55.6,74.9,52.5z"/>
		<path class="st17" d="M68.2,61.7c-5.9,2.2-13.4,1.8-19.5,0.7c-4.3-0.8-8.4-2.4-11.4-5.3c-1.8-1.7-4.3-6,0.3-6.3
			c1.9-0.1,4,0.5,5.9,0.9c4.4,0.8,8.9,0.5,13.3-0.1c4.9-0.8,9.6-2.4,14.6-1.5c2.2,0.7,3.2,2.6,3.2,4.7
			C74.6,58.1,71.4,60.5,68.2,61.7z"/>
		<path class="st18" d="M71.4,50c-5-0.9-9.7,0.8-14.6,1.5c-4.4,0.7-8.9,0.9-13.3,0.1c-1.9-0.3-3.9-1-5.9-0.9
			c-4.6,0.3-2.1,4.7-0.3,6.3c3,2.9,7.1,4.5,11.4,5.3c6.1,1.1,13.6,1.5,19.5-0.7c3.2-1.2,6.3-3.6,6.4-7C74.6,52.7,73.5,50.7,71.4,50z
			 M65.1,60.3c-1,1.2-3,1.8-4.6,2c-3.4,0.5-7.4,0.5-10.8-0.3c-1.1-0.3-2.8-0.8-3.2-1.9c-0.4-1.2,0.6-1.6,1.8-1.4
			c2.7,0.5,5.8,0.4,8.5,0.2c1.6-0.1,3.3-0.3,4.9-0.7c1.3-0.3,2.5-0.8,3.8-1.1c0.1,0,0.2,0,0.2,0.1c0,0,0.1,0,0.1,0
			C66.9,57.9,65.6,59.7,65.1,60.3z M69.4,51.1c0.1,0.7-1,1.6-1.4,2c-0.8,0.9-2.4,1.3-3.6,1.7c-2.3,0.7-4.7,1-7.1,1.3
			c-4.1,0.5-8.5,0.2-12.6-0.8c-0.8-0.2-1.7-0.4-2.3-0.9c-0.4-0.3-1.1-0.9-0.7-1.3c0.3-0.5,1.4-0.5,2-0.5c2.7,0.1,5.2,0.8,7.9,0.9
			c2.7,0.1,5.5-0.1,8.2-0.6c2-0.4,3.8-1.1,5.7-1.7c0.7-0.2,3.5-1.3,3.9-0.3C69.4,51,69.4,51.1,69.4,51.1z M72.4,54.7
			c-2,0.2-3.1-3.3-1.2-4c0.1,0,0.2,0,0.2,0.1C73.1,51.1,74.6,54.5,72.4,54.7z"/>
		<path class="st18" d="M74,52.2c0,0.8-0.2,1.5-0.6,2.3c-1.9,4-6.5,6.4-11.1,7.4c-0.6,0.2-1.2,0.3-1.7,0.4c-0.6,0.1-1.2,0.2-1.8,0.2
			c-5.4,0.6-10.8,0-15.6-2.3c-2-0.9-3.9-2.1-5.3-3.6c-1-1.2-1.7-3-0.9-4.4c1.1-1.7,3.6-0.8,5.5-0.7c-1.6-0.3-3.3-0.8-4.9-0.7
			c-4.6,0.3-2.1,4.7-0.3,6.3c3,2.9,7.1,4.5,11.4,5.3c6.1,1.1,13.6,1.5,19.5-0.7c3.2-1.2,6.3-3.6,6.4-7C74.6,53.8,74.4,53,74,52.2z"
			/>
		<path d="M71.7,55.1c-1-0.3-1.7-1.2-1.9-2.1c-0.1-0.2-0.2-0.4-0.1-0.6c0-0.2,0-0.3,0-0.5c-0.7,0.5-0.7,1.1-0.4,1.6
			c-4.8,3.1-10.9,4.2-16.8,4c-3-0.1-6-0.3-8.8-1.2C42,55.7,38,54.5,38,52.7c0-0.1-0.1-0.1-0.1,0c-0.1,1.4,1.8,2.2,3,2.7
			c0.5,0.2,0.9,0.4,1.4,0.6c-0.3,1,0,2.2,0.7,3c0.1,0.1,0.3,0.1,0.3,0c0.2-0.3,0.4-0.7,0.6-1c0.2-0.4,0.5-0.7,0.8-1.1
			c1.9,0.6,3.8,1.1,5.8,1.3c5.2,0.5,11,0,15.7-2.2c0.1,0.2,0.6,0.9,0.7,1c0.3,0.5,0.4,1.2,0.6,1.8c0,0.2,0.3,0.1,0.4,0
			c0.6-0.7,1-1.5,1.2-2.3c0.1-0.6,0.2-1.4-0.3-1.9c0.3-0.2,0.5-0.4,0.8-0.5C70,54.5,71,55,71.7,55.1C71.7,55.2,71.7,55.1,71.7,55.1z
			"/>
		<path class="st19" d="M43,58.6c-0.6-0.6-0.7-1.7-0.6-2.5c0.6,0.2,1.2,0.5,1.7,0.7C43.6,57.1,43.2,57.9,43,58.6z"/>
		<path class="st19" d="M68.4,56.4c-0.1,0.6-0.3,1.2-0.6,1.7c-0.2-0.8-0.6-1.7-1.3-2.3c0.6-0.3,1.2-0.6,1.7-1
			C68.3,55.3,68.5,55.8,68.4,56.4z"/>
	</g>
	<path class="st19" d="M32.1,17.8c-1-0.2-2,0-3-0.1c-1.1-0.1-2.2-0.4-3.3-0.8c-2.1-0.8-3.3-2.5-4.1-4.4c-0.1-0.3-0.6-0.1-0.7,0.1
		c-1,2.5,0.3,4.8,2.8,6.1c2.3,1.2,6.3,1.6,8.4,0.1C32.8,18.6,32.7,17.9,32.1,17.8z"/>
	<path class="st19" d="M78,16.2c-2.2-0.8-4.1-1.2-5.4-3.2c-1.3-2-0.1-4.5-0.1-6.6c0-0.3-0.4-0.4-0.6-0.2c-1.8,1.9-3.1,5.2-1.9,7.6
		c1.2,2.4,4.2,4.5,7.3,4.2C78.1,18.1,79.1,16.6,78,16.2z"/>
	<path class="st19" d="M36.5,14.3c-0.7,0.4-0.8,0.9-1.1,1.5c-0.3,0.5-0.6,0.6-1.1,1c-0.2,0.2-0.4,0.6-0.1,0.7c0.8,0.5,1.8,0,2.4-0.6
		c0.6-0.5,1.4-1.4,1.3-2.2C37.9,14.1,37,14,36.5,14.3z"/>
	<path class="st19" d="M82.9,16.2c-0.5,0-0.9,0.2-1.3,0.4c-0.3,0.2-0.8,0.3-1.1,0.2c-0.7-0.2-1.4,0.9-0.6,1.2
		c1.2,0.5,2.9,0.3,3.7-0.7C83.9,16.8,83.6,16.1,82.9,16.2z"/>
	<path class="st3" d="M11.4,90.2c-0.9-0.8-1.6-1.4-2.2-2.5c-0.7-1.1-0.7-2.5-0.7-3.8c0-0.2-0.3-0.1-0.3,0c-0.3,2.3-1.5,6.6,2,7.6
		C11,91.9,12.2,90.9,11.4,90.2z"/>
	<path class="st3" d="M6.8,89.5c-0.6-1.4-0.4-2.8-0.9-4.2c-0.1-0.2-0.5-0.1-0.4,0.1C5.7,87,5.1,88.5,5.8,90C6.1,90.5,7,90,6.8,89.5z
		"/>
	<path class="st3" d="M4.6,89.5c-0.6-1.7-0.8-3.2-0.2-4.9c0.1-0.3-0.4-0.4-0.5-0.2C2.6,86,2.4,88.3,3.4,90C3.7,90.5,4.7,90,4.6,89.5
		z"/>
	<path class="st3" d="M102.8,84c-0.3-0.4-1,0-0.8,0.5c1,2.1-1.1,4.5-2.2,6.2c-0.3,0.4,0,1.1,0.7,0.8C103,90.5,104.4,86.1,102.8,84z"
		/>
	<path class="st3" d="M105.5,85.8c-0.1-0.2-0.4-0.2-0.5,0c-0.2,0.6-0.3,1.3-0.5,1.9c-0.1,0.6-0.4,1.2-0.4,1.9c0.1,0.5,0.8,0.3,1,0
		C106,88.7,105.9,86.9,105.5,85.8z"/>
	<path class="st3" d="M107.6,85.7c-0.1-0.3-0.7,0-0.6,0.3c0.2,0.6,0,1.3,0.1,1.9c0.1,0.5,0.8,0.2,0.9-0.2
		C108.1,87,107.8,86.3,107.6,85.7z"/>
	<path class="st1" d="M22.4,107.4c-0.3,0-0.7,0-1,0c-0.4,0-0.7,0.2-1.1,0.3c-0.7,0.3-1.4,1-1.4,1.7c0,0.6,0.7,0.5,1,0.2
		c0.3-0.4,0.5-0.8,0.9-1.1c0.4-0.3,1-0.7,1.5-0.8C22.5,107.6,22.6,107.4,22.4,107.4z"/>
	<path class="st1" d="M24.2,108.7c-0.5,0-1,0.3-1.4,0.6c-0.4,0.3-0.9,0.8-0.9,1.3c0,0.5,0.6,0.6,1,0.3c0.3-0.3,0.4-0.7,0.7-1
		c0.2-0.3,0.5-0.6,0.8-0.8C24.4,108.9,24.4,108.7,24.2,108.7z"/>
	<path class="st1" d="M31.3,108.4c-1.7-0.4-4,0.1-4.8,1.6c-0.3,0.5,0.2,1.3,0.9,0.8c0.6-0.4,1.1-1,1.8-1.3c0.7-0.3,1.4-0.4,2.1-0.8
		C31.5,108.6,31.5,108.4,31.3,108.4z"/>
	<path class="st1" d="M80.8,109c-0.6-0.8-2.1-0.9-3.2-0.8c-0.3,0-0.8,0.5-0.4,0.8c0.4,0.3,0.8,0.4,1.2,0.5c0.5,0.2,1,0.4,1.6,0.6
		C80.7,110.2,81.2,109.4,80.8,109z"/>
	<path class="st1" d="M85.4,109.2c-0.3-0.2-0.7-0.4-1-0.6c-0.4-0.2-0.8-0.4-1.2-0.6c-0.4-0.2-0.8,0.3-0.5,0.6
		c0.6,0.6,1.3,1.3,2.3,1.3C85.3,110,85.7,109.5,85.4,109.2z"/>
	<path class="st1" d="M89.4,108.1c-0.2-0.2-0.4-0.3-0.6-0.5c-0.5-0.3-1-0.4-1.6-0.3c-0.3,0.1-0.5,0.5-0.2,0.6
		c0.4,0.1,0.6,0.4,0.9,0.7c0.1,0.1,0.2,0.3,0.3,0.4c0.2,0.3,0.4,0.3,0.7,0.4c0.4,0,0.8-0.3,0.8-0.7
		C89.7,108.5,89.6,108.3,89.4,108.1z"/>
</g>
</svg>
