<?xml version="1.0" encoding="utf-8"?>
<!-- Generator: Adobe Illustrator 19.2.0, SVG Export Plug-In . SVG Version: 6.00 Build 0)  -->
<svg version="1.1" id="Capa_1" xmlns="http://www.w3.org/2000/svg" xmlns:xlink="http://www.w3.org/1999/xlink" x="0px" y="0px"
	 viewBox="0 0 1048 109.7" style="enable-background:new 0 0 1048 109.7;" xml:space="preserve">
<style type="text/css">
	.st0{fill:none;stroke:#162555;stroke-width:1.5344;stroke-miterlimit:10;}
	.st1{font-family:'AntipastoPro-DemiBold';}
	.st2{font-size:10.2367px;}
	.st3{font-size:9.2259px;}
</style>
<g>
	<g>
		<path class="st0" d="M147.5,82.2c0.9-1.5,1.5-3.2,1.5-5c0-5.2-4.2-9.5-9.5-9.5c-5.2,0-9.5,4.2-9.5,9.5c0,5.2,4.2,9.5,9.5,9.5
			c1.5,0,2.9-0.4,4.2-1c1.9,1.5,4.5,1.3,6.2-0.4c0.1-0.1,0.2-0.2,0.3-0.3L147.5,82.2z"/>
		<path class="st0" d="M128.3,73.9c-5.2,0-9.5,4.2-9.5,9.5c0,1.9,0.5,3.6,1.5,5l-2.7,2.7c0.1,0.1,0.2,0.2,0.3,0.3
			c1.7,1.7,4.4,1.8,6.2,0.4c1.3,0.6,2.7,1,4.2,1c5.2,0,9.5-4.2,9.5-9.5C137.7,78.1,133.5,73.9,128.3,73.9z"/>
		<g>
			<circle class="st0" cx="124.1" cy="83.7" r="1.1"/>
			<circle class="st0" cx="128.3" cy="83.7" r="1.1"/>
			<circle class="st0" cx="132.5" cy="83.7" r="1.1"/>
		</g>
		<g>
			<circle class="st0" cx="135.9" cy="77.1" r="0.9"/>
			<circle class="st0" cx="139.2" cy="77.1" r="0.9"/>
			<circle class="st0" cx="142.6" cy="77.1" r="0.9"/>
		</g>
	</g>
	<path class="st0" d="M60.9,32.1c-3.8,0-6.8,3.1-6.8,6.8c0,1.3,0.4,2.6,1.1,3.6l-2,2c0.1,0.1,0.1,0.1,0.2,0.2
		c1.2,1.2,3.2,1.3,4.5,0.3c0.9,0.5,2,0.7,3.1,0.7c3.8,0,6.8-3.1,6.8-6.8S64.7,32.1,60.9,32.1z"/>
	<path class="st0" d="M50.3,27.6c3.8,0,6.8,3.1,6.8,6.8c0,1.3-0.4,2.6-1.1,3.6l2,2c-0.1,0.1-0.1,0.1-0.2,0.2
		c-1.2,1.2-3.2,1.3-4.5,0.3c-0.9,0.5-2,0.7-3.1,0.7c-3.8,0-6.8-3.1-6.8-6.8S46.5,27.6,50.3,27.6z"/>
	<g>
		<path class="st0" d="M440.8,71.3c0,4.8-3.9,8.6-8.6,8.6s-8.6-3.9-8.6-8.6s3.9-12.4,8.6-12.4S440.8,66.5,440.8,71.3z"/>
		<path class="st0" d="M436.9,58.4l0.9-4.5c0.2-0.9-0.6-1.7-1.4-1.5l-3,1c-0.8,0.3-1.6,0.3-2.4,0l-3.1-1c-0.8-0.3-1.6,0.5-1.4,1.5
			l0.9,4.5"/>
		<path class="st0" d="M436.4,61.4h-8.5c-0.8,0-1.5-0.7-1.5-1.5l0,0c0-0.8,0.7-1.5,1.5-1.5h8.5c0.8,0,1.5,0.7,1.5,1.5l0,0
			C437.9,60.8,437.2,61.4,436.4,61.4z"/>
		<text transform="matrix(1 0 0 1 429.584 74.1699)" class="st0 st1 st2">$</text>
	</g>
	<g>
		<path class="st0" d="M310.6,50.2c0,4.8-3.9,8.6-8.6,8.6s-8.6-3.9-8.6-8.6s3.9-12.4,8.6-12.4S310.6,45.4,310.6,50.2z"/>
		<path class="st0" d="M306.7,37.3l0.9-4.5c0.2-0.9-0.6-1.7-1.4-1.5l-3,1c-0.8,0.3-1.6,0.3-2.4,0l-3.1-1c-0.8-0.3-1.6,0.5-1.4,1.5
			l0.9,4.5"/>
		<path class="st0" d="M306.2,40.3h-8.5c-0.8,0-1.5-0.7-1.5-1.5l0,0c0-0.8,0.7-1.5,1.5-1.5h8.5c0.8,0,1.5,0.7,1.5,1.5l0,0
			C307.7,39.6,307,40.3,306.2,40.3z"/>
		<text transform="matrix(1 0 0 1 299.3965 53.0625)" class="st0 st1 st2">$</text>
	</g>
	<g>
		<path class="st0" d="M93.3,71.7H67.8c-1.1,0-2-0.9-2-2V49.3c0-1.1,0.9-2,2-2h25.5c1.1,0,2,0.9,2,2v20.4
			C95.3,70.8,94.4,71.7,93.3,71.7z"/>
		<line class="st0" x1="65.8" y1="65.2" x2="95.3" y2="65.2"/>
		<circle class="st0" cx="80.6" cy="68.6" r="1.2"/>
		<rect x="77" y="71.7" class="st0" width="7.1" height="3.8"/>
		<path class="st0" d="M87.3,78.7H73.8c-0.7,0-1.2-0.5-1.2-1.2v-0.8c0-0.7,0.5-1.2,1.2-1.2h13.5c0.7,0,1.2,0.5,1.2,1.2v0.8
			C88.5,78.1,88,78.7,87.3,78.7z"/>
	</g>
	<g>
		<path class="st0" d="M529,75.1h-25.5c-1.1,0-2-0.9-2-2V52.8c0-1.1,0.9-2,2-2H529c1.1,0,2,0.9,2,2v20.4
			C530.9,74.2,530.1,75.1,529,75.1z"/>
		<line class="st0" x1="501.5" y1="68.7" x2="530.9" y2="68.7"/>
		<circle class="st0" cx="516.2" cy="72.1" r="1.2"/>
		<rect x="512.7" y="75.1" class="st0" width="7.1" height="3.8"/>
		<path class="st0" d="M522.9,82.1h-13.5c-0.7,0-1.2-0.5-1.2-1.2v-0.8c0-0.7,0.5-1.2,1.2-1.2h13.5c0.7,0,1.2,0.5,1.2,1.2v0.8
			C524.1,81.6,523.6,82.1,522.9,82.1z"/>
	</g>
	<g>
		<path class="st0" d="M100.8,97.2c-0.5,0-1-0.2-1.3-0.6l-6-6c-0.7-0.7-0.7-1.9,0-2.7c0.7-0.7,1.9-0.7,2.7,0l4.5,4.5l7-9
			c0.6-0.8,1.8-1,2.7-0.3c0.8,0.6,1,1.8,0.3,2.7l-8.3,10.7c-0.3,0.4-0.8,0.7-1.4,0.7C100.9,97.2,100.8,97.2,100.8,97.2z"/>
	</g>
	<g>
		<path class="st0" d="M231.7,65.9c-0.5,0-1-0.2-1.3-0.6l-6-6c-0.7-0.7-0.7-1.9,0-2.7c0.7-0.7,1.9-0.7,2.7,0l4.5,4.5l7-9
			c0.6-0.8,1.8-1,2.7-0.3c0.8,0.6,1,1.8,0.3,2.7l-8.3,10.7c-0.3,0.4-0.8,0.7-1.4,0.7C231.8,65.9,231.8,65.9,231.7,65.9z"/>
	</g>
	<g>
		<path class="st0" d="M284.7,99.4c-0.5,0-1-0.2-1.3-0.6l-6-6c-0.7-0.7-0.7-1.9,0-2.7c0.7-0.7,1.9-0.7,2.7,0l4.5,4.5l7-9
			c0.6-0.8,1.8-1,2.7-0.3c0.8,0.6,1,1.8,0.3,2.7l-8.3,10.7c-0.3,0.4-0.8,0.7-1.4,0.7C284.8,99.4,284.8,99.4,284.7,99.4z"/>
	</g>
	<g>
		<rect x="184.8" y="107.6" class="st0" width="4" height="11.4"/>
		<rect x="192.6" y="104.6" class="st0" width="4" height="14.5"/>
		<rect x="200.3" y="101.3" class="st0" width="4" height="17.7"/>
		<rect x="208" y="96.3" class="st0" width="4" height="22.7"/>
		<path class="st0" d="M211.8,85.1c-6.4,7.6-12.4,14.4-26.9,14.4"/>
		<polyline class="st0" points="207.1,85.1 211.8,85.1 211.8,89.8 		"/>
	</g>
	<g>
		
			<rect x="281.4" y="46.6" transform="matrix(-1 -1.224647e-016 1.224647e-016 -1 566.11 102.5758)" class="st0" width="3.3" height="9.3"/>
		
			<rect x="275.1" y="44.1" transform="matrix(-1 -1.224647e-016 1.224647e-016 -1 553.4242 100.0428)" class="st0" width="3.3" height="11.9"/>
		
			<rect x="268.7" y="41.4" transform="matrix(-1 -1.224647e-016 1.224647e-016 -1 540.7383 97.3466)" class="st0" width="3.3" height="14.6"/>
		
			<rect x="262.4" y="37.3" transform="matrix(-1 -1.224647e-016 1.224647e-016 -1 528.0526 93.234)" class="st0" width="3.3" height="18.7"/>
		<path class="st0" d="M262.6,28.1c5.2,6.2,10.2,11.8,22.1,11.8"/>
		<polyline class="st0" points="266.4,28.1 262.6,28.1 262.6,31.9 		"/>
	</g>
	<path class="st0" d="M324.3,32.8c-3.7,0-6.7,3-6.7,6.7c0,4,6.7,13.4,6.7,13.4s6.7-9.5,6.7-13.4C331,35.8,328,32.8,324.3,32.8z
		 M324.3,41.3c-1.4,0-2.5-1.1-2.5-2.5s1.1-2.5,2.5-2.5c1.4,0,2.5,1.1,2.5,2.5S325.7,41.3,324.3,41.3z"/>
	<path class="st0" d="M204.6,57.6c-3.7,0-6.7,3-6.7,6.7c0,4,6.7,13.4,6.7,13.4s6.7-9.5,6.7-13.4C211.3,60.6,208.3,57.6,204.6,57.6z
		 M204.6,66.1c-1.4,0-2.5-1.1-2.5-2.5c0-1.4,1.1-2.5,2.5-2.5c1.4,0,2.5,1.1,2.5,2.5C207.1,64.9,206,66.1,204.6,66.1z"/>
	<path class="st0" d="M41.2,51c-3.7,0-6.7,3-6.7,6.7c0,4,6.7,13.4,6.7,13.4s6.7-9.5,6.7-13.4C47.9,54,44.9,51,41.2,51z M41.2,59.5
		c-1.4,0-2.5-1.1-2.5-2.5s1.1-2.5,2.5-2.5c1.4,0,2.5,1.1,2.5,2.5S42.6,59.5,41.2,59.5z"/>
	<path class="st0" d="M473,96.3c-3.7,0-6.7,3-6.7,6.7c0,4,6.7,13.4,6.7,13.4s6.7-9.5,6.7-13.4C479.6,99.3,476.6,96.3,473,96.3z
		 M473,104.7c-1.4,0-2.5-1.1-2.5-2.5c0-1.4,1.1-2.5,2.5-2.5c1.4,0,2.5,1.1,2.5,2.5C475.5,103.6,474.3,104.7,473,104.7z"/>
	<path class="st0" d="M307.7,68.7c-3.7,0-6.7,3-6.7,6.7c0,4,6.7,13.4,6.7,13.4s6.7-9.5,6.7-13.4C314.4,71.6,311.4,68.7,307.7,68.7z
		 M307.7,77.1c-1.4,0-2.5-1.1-2.5-2.5c0-1.4,1.1-2.5,2.5-2.5c1.4,0,2.5,1.1,2.5,2.5C310.2,76,309.1,77.1,307.7,77.1z"/>
	<g>
		<g>
			<path class="st0" d="M412.2,92.7v5.4c0,2.6,2.1,4.6,4.6,4.6h9l7,5.1l-0.4-5.1c2.6,0,4.6-2.1,4.6-4.6v-5.4c0-2.6-2.1-4.6-4.6-4.6
				h-15.6C414.3,88.1,412.2,90.2,412.2,92.7z"/>
			<line class="st0" x1="429.7" y1="92.1" x2="417.2" y2="92.1"/>
			<line class="st0" x1="432.8" y1="98.5" x2="423.9" y2="98.5"/>
			<line class="st0" x1="432.8" y1="95.3" x2="426.6" y2="95.3"/>
			<line class="st0" x1="421.6" y1="95.3" x2="417.6" y2="95.3"/>
		</g>
		<g>
			<path class="st0" d="M420.4,99.5v6.4c0,3-2.5,5.5-5.5,5.5h-10.6l-8.2,6l0.4-6c-3,0-5.5-2.5-5.5-5.5v-6.4c0-3,2.5-5.5,5.5-5.5
				h18.4C417.9,94,420.4,96.4,420.4,99.5z"/>
			<line class="st0" x1="399.8" y1="98.7" x2="414.5" y2="98.7"/>
			<line class="st0" x1="396.1" y1="106.3" x2="406.6" y2="106.3"/>
			<line class="st0" x1="396.1" y1="102.5" x2="403.4" y2="102.5"/>
			<line class="st0" x1="409.3" y1="102.5" x2="414" y2="102.5"/>
		</g>
	</g>
	<g>
		<g>
			<path class="st0" d="M243.8,73.9v5.4c0,2.6,2.1,4.6,4.6,4.6h9l7,5.1l-0.4-5.1c2.6,0,4.6-2.1,4.6-4.6v-5.4c0-2.6-2.1-4.6-4.6-4.6
				h-15.6C245.9,69.2,243.8,71.3,243.8,73.9z"/>
			<line class="st0" x1="261.2" y1="73.2" x2="248.8" y2="73.2"/>
			<line class="st0" x1="264.4" y1="79.7" x2="255.5" y2="79.7"/>
			<line class="st0" x1="264.4" y1="76.5" x2="258.1" y2="76.5"/>
			<line class="st0" x1="253.1" y1="76.5" x2="249.2" y2="76.5"/>
		</g>
		<g>
			<path class="st0" d="M251.9,80.6V87c0,3-2.5,5.5-5.5,5.5h-10.6l-8.2,6l0.4-6c-3,0-5.5-2.5-5.5-5.5v-6.4c0-3,2.5-5.5,5.5-5.5h18.4
				C249.5,75.1,251.9,77.6,251.9,80.6z"/>
			<line class="st0" x1="231.3" y1="79.8" x2="246" y2="79.8"/>
			<line class="st0" x1="227.6" y1="87.4" x2="238.1" y2="87.4"/>
			<line class="st0" x1="227.6" y1="83.6" x2="235" y2="83.6"/>
			<line class="st0" x1="240.9" y1="83.6" x2="245.5" y2="83.6"/>
		</g>
	</g>
	<g>
		<circle class="st0" cx="60.7" cy="91.5" r="13.1"/>
		<circle class="st0" cx="60.7" cy="91.5" r="9.6"/>
		<line class="st0" x1="60.7" y1="78.4" x2="60.7" y2="81.9"/>
		<line class="st0" x1="71.9" y1="84.8" x2="69" y2="86.6"/>
		<line class="st0" x1="52.4" y1="86.8" x2="49.5" y2="84.9"/>
		<line class="st0" x1="51.2" y1="82.6" x2="53.6" y2="85.1"/>
		<text transform="matrix(1 0 0 1 57.4482 94.3867)" class="st0 st1 st3">%</text>
	</g>
	<g>
		<circle class="st0" cx="517.4" cy="23.3" r="13.1"/>
		<circle class="st0" cx="517.4" cy="23.3" r="9.6"/>
		<line class="st0" x1="517.4" y1="10.2" x2="517.4" y2="13.7"/>
		<line class="st0" x1="528.6" y1="16.6" x2="525.6" y2="18.4"/>
		<line class="st0" x1="509" y1="18.6" x2="506.1" y2="16.7"/>
		<line class="st0" x1="507.8" y1="14.4" x2="510.2" y2="16.9"/>
		<text transform="matrix(1 0 0 1 514.083 26.1719)" class="st0 st1 st3">%</text>
	</g>
	<g>
		<g>
			<path class="st0" d="M124.8,113v21.5h0.1c1.8,0,3.2-1.3,3.5-3l2.7-18.9"/>
			<g>
				<circle class="st0" cx="139" cy="107.8" r="4.4"/>
				<path class="st0" d="M136.6,98.4v18.9c0-1.2-0.5-2.3-1.3-3.1c-0.8-0.8-1.9-1.3-3.1-1.3h-7.9c-2.8,0-5.1-2.3-5.1-5
					c0-1.4,0.6-2.7,1.5-3.6c0.9-0.9,2.2-1.5,3.6-1.5h7.9C134.6,102.8,136.6,100.8,136.6,98.4z"/>
				<line class="st0" x1="127.5" y1="102.8" x2="127.5" y2="112.6"/>
				<path class="st0" d="M137.8,119.3L137.8,119.3c-0.7,0-1.2-0.5-1.2-1.2V97.2c0-0.7,0.5-1.2,1.2-1.2l0,0c0.7,0,1.2,0.5,1.2,1.2
					v20.9C139,118.7,138.5,119.3,137.8,119.3z"/>
			</g>
		</g>
		<g>
			<g>
				<line class="st0" x1="153.6" y1="95.1" x2="157.5" y2="92.1"/>
				<line class="st0" x1="144.6" y1="101.9" x2="150.2" y2="97.7"/>
			</g>
			<g>
				<line class="st0" x1="150" y1="103.4" x2="145.7" y2="105.6"/>
				<line class="st0" x1="160.2" y1="98.3" x2="153.9" y2="101.5"/>
			</g>
			<g>
				<line class="st0" x1="153.6" y1="120.2" x2="157.5" y2="123.2"/>
				<line class="st0" x1="144.6" y1="113.3" x2="150.2" y2="117.6"/>
			</g>
			<g>
				<line class="st0" x1="150" y1="111.9" x2="145.7" y2="109.7"/>
				<line class="st0" x1="160.2" y1="117" x2="153.9" y2="113.8"/>
			</g>
			<line class="st0" x1="148.5" y1="107.7" x2="151.1" y2="107.7"/>
			<line class="st0" x1="153.9" y1="107.7" x2="159.4" y2="107.7"/>
			<line class="st0" x1="162.7" y1="107.7" x2="164.9" y2="107.7"/>
		</g>
	</g>
	<g>
		<g>
			<path class="st0" d="M386.6,69.8L386.6,69.8c-0.9,0-1.6-0.7-1.6-1.6v-6.4c0-0.9,0.7-1.6,1.6-1.6l0,0c0.9,0,1.6,0.7,1.6,1.6v6.4
				C388.2,69,387.5,69.8,386.6,69.8z"/>
			<path class="st0" d="M412,69.8L412,69.8c-0.9,0-1.6-0.7-1.6-1.6v-6.4c0-0.9,0.7-1.6,1.6-1.6l0,0c0.9,0,1.6,0.7,1.6,1.6v6.4
				C413.6,69,412.9,69.8,412,69.8z"/>
		</g>
		<path class="st0" d="M386.6,60.1c0-7,5.7-12.7,12.7-12.7S412,53.1,412,60.1"/>
		<g>
			<path class="st0" d="M410.9,69.8l-1.6,4.2c-1.4,3.6-5.3,5.6-9,4.5l0,0"/>
			<circle class="st0" cx="399.3" cy="77.8" r="1.9"/>
		</g>
	</g>
	<g>
		<path class="st0" d="M280.6,129v1.8c0,1.7,1.4,3,3,3h19.7"/>
		<path class="st0" d="M286.3,129v-22.4H306v24.5c0,1.5-1.2,2.7-2.7,2.7h0c-1.5,0-2.7-1.2-2.7-2.7V129h-20l0,0"/>
		<g>
			<line class="st0" x1="289.9" y1="111.7" x2="300.6" y2="111.7"/>
			<line class="st0" x1="289.9" y1="122.4" x2="300.6" y2="122.4"/>
			<line class="st0" x1="289.9" y1="118.8" x2="300.6" y2="118.8"/>
			<line class="st0" x1="289.9" y1="115.3" x2="297.2" y2="115.3"/>
		</g>
	</g>
	<g>
		<path class="st0" d="M490.8,53.8h-31.2c-1,0-1.8-0.8-1.8-1.8V34.5c0-1,0.8-1.8,1.8-1.8h31.2c1,0,1.8,0.8,1.8,1.8v17.4
			C492.7,52.9,491.8,53.8,490.8,53.8z"/>
		<line class="st0" x1="461.5" y1="49.5" x2="470.6" y2="49.5"/>
		<line class="st0" x1="474.8" y1="49.5" x2="481.4" y2="49.5"/>
		<line class="st0" x1="485.7" y1="49.5" x2="489" y2="49.5"/>
		<g>
			<rect x="462.4" y="37.3" class="st0" width="6.2" height="6.2"/>
			<line class="st0" x1="466.5" y1="37.3" x2="466.5" y2="39.8"/>
			<line class="st0" x1="464.3" y1="40.4" x2="464.3" y2="42.9"/>
		</g>
		<line class="st0" x1="489" y1="32.7" x2="489" y2="53.8"/>
	</g>
	<g>
		<path class="st0" d="M25.7,98H-5.5c-1,0-1.8-0.8-1.8-1.8V78.7c0-1,0.8-1.8,1.8-1.8h31.2c1,0,1.8,0.8,1.8,1.8v17.4
			C27.5,97.2,26.7,98,25.7,98z"/>
		<line class="st0" x1="-3.6" y1="93.7" x2="5.4" y2="93.7"/>
		<line class="st0" x1="9.6" y1="93.7" x2="16.3" y2="93.7"/>
		<line class="st0" x1="20.5" y1="93.7" x2="23.9" y2="93.7"/>
		<g>
			<rect x="-2.8" y="81.6" class="st0" width="6.2" height="6.2"/>
			<line class="st0" x1="1.4" y1="81.6" x2="1.4" y2="84"/>
			<line class="st0" x1="-0.9" y1="84.7" x2="-0.9" y2="87.1"/>
		</g>
		<line class="st0" x1="23.9" y1="76.9" x2="23.9" y2="98"/>
	</g>
	<path class="st0" d="M338.2,65.8l1.2,2.8c0.4,0.9,1.2,1.5,2.2,1.5c0.2-0.3,0.5-0.6,0.9-0.8c0.4-0.2,0.8-0.2,1.2-0.1
		c0.6,0.1,1.1,0.5,1.4,1.1l1.2,2.8c0.4,1,0,2.1-1,2.6l-0.6,0.3c-2.9,1.2-6.2-0.1-7.5-3l-3.7-8.5c-1.2-2.9,0.1-6.2,3-7.5l0.6-0.3
		c1-0.4,2.1,0,2.6,1l1.2,2.8c0.3,0.6,0.2,1.3-0.1,1.8c-0.2,0.3-0.5,0.6-0.9,0.8c-0.4,0.2-0.8,0.2-1.2,0.1
		C338,63.9,337.8,64.9,338.2,65.8z"/>
	<g>
		<g>
			<path class="st0" d="M362.9,81C362.9,81,362.8,81,362.9,81l1.3,8.7l6.8-5.6C368.9,82.2,366,81,362.9,81z"/>
			<path class="st0" d="M350.8,91.3h9.9l-1.6-9.8C354.8,83,351.5,86.8,350.8,91.3z"/>
			<path class="st0" d="M368.2,91.3h6.7c-0.2-1.5-0.8-3-1.5-4.3L368.2,91.3z"/>
			<path class="st0" d="M362.9,105.5C362.9,105.5,362.9,105.5,362.9,105.5l-1.4-9l-7.5,5.2C356.2,104,359.4,105.5,362.9,105.5z"/>
			<path class="st0" d="M375,95.1h-9.9l1.6,9.8C371,103.5,374.2,99.7,375,95.1z"/>
		</g>
		<g>
			<polyline class="st0" points="350.7,94.6 349.3,97.3 352,98.7 			"/>
			<line class="st0" x1="350.6" y1="96.8" x2="360.5" y2="94.3"/>
		</g>
	</g>
	<g>
		<circle class="st0" cx="458.2" cy="88.6" r="1.9"/>
		<circle class="st0" cx="473" cy="87.6" r="1.6"/>
		<polygon class="st0" points="473.4,77.6 457.8,77.6 455.4,67.5 475.9,67.5 		"/>
		<path class="st0" d="M458.4,88.4l2.4-2.4h13.1c1.1,0,2-0.9,2-2l0,0c0-1.1-0.9-2-2-2h-15l-5.1-21.5h-4.9"/>
		<line class="st0" x1="456.3" y1="70.7" x2="469.3" y2="70.7"/>
		<line class="st0" x1="457" y1="74.1" x2="465.7" y2="74.1"/>
	</g>
	<g>
		<circle class="st0" cx="251.3" cy="133.3" r="1.9"/>
		<circle class="st0" cx="266.1" cy="132.4" r="1.6"/>
		<polygon class="st0" points="266.6,122.3 250.9,122.3 248.6,112.2 269,112.2 		"/>
		<path class="st0" d="M251.5,133.1l2.4-2.4H267c1.1,0,2-0.9,2-2v0c0-1.1-0.9-2-2-2h-15l-5.1-21.5h-4.9"/>
		<line class="st0" x1="249.4" y1="115.5" x2="262.5" y2="115.5"/>
		<line class="st0" x1="250.1" y1="118.8" x2="258.8" y2="118.8"/>
	</g>
	<g>
		<circle class="st0" cx="17.6" cy="58" r="1.9"/>
		<circle class="st0" cx="2.8" cy="57" r="1.6"/>
		<polygon class="st0" points="2.3,47 17.9,47 20.3,36.9 -0.1,36.9 		"/>
		<path class="st0" d="M17.4,57.7L15,55.4H1.9c-1.1,0-2-0.9-2-2l0,0c0-1.1,0.9-2,2-2h15L22,29.8h4.9"/>
		<line class="st0" x1="19.5" y1="40.1" x2="6.4" y2="40.1"/>
		<line class="st0" x1="18.8" y1="43.5" x2="10.1" y2="43.5"/>
	</g>
	<g>
		<path class="st0" d="M180.9,67.2l3.3-0.4l-0.5-3.9l-3.3,0.4c-0.1-0.3-0.2-0.7-0.4-1l2.7-1.9l-2.2-3.2l-2.7,1.9
			c-0.2-0.2-0.5-0.5-0.8-0.7l1.5-3l-3.5-1.8l-1.5,3c-0.5-0.1-1-0.2-1.5-0.3v-3.6h-3.9v3.8c-0.4,0.1-0.7,0.2-1.1,0.3l-1.7-2.9l-3.4,2
			l1.7,2.9c-0.3,0.2-0.5,0.5-0.7,0.7l-2.8-1.8l-2.1,3.3l2.8,1.8c-0.1,0.3-0.2,0.7-0.3,1l-3.3-0.3l-0.3,3.9l3.3,0.3
			c0,0.4,0.1,0.7,0.2,1l-3.1,1.3l1.5,3.6l3.1-1.3c0.2,0.3,0.4,0.6,0.6,0.8l-2.1,2.6l3,2.5l2.1-2.6c0.3,0.2,0.6,0.3,0.9,0.5l-0.7,3.3
			l3.8,0.8l0.7-3.3c0.1,0,0.2,0,0.2,0c0.3,0,0.5,0,0.8,0l0.9,3.2l3.8-1l-0.9-3.2c0.3-0.2,0.6-0.3,0.9-0.5l2.3,2.4l2.9-2.6l-2.3-2.4
			c0.2-0.3,0.4-0.6,0.6-0.9l3.1,1.1l1.3-3.7l-3.1-1.1C180.9,67.9,180.9,67.6,180.9,67.2z M170.5,72.2c-3.1,0-5.5-2.5-5.5-5.5
			c0-3.1,2.5-5.5,5.5-5.5c3.1,0,5.5,2.5,5.5,5.5C176.1,69.7,173.6,72.2,170.5,72.2z"/>
		<circle class="st0" cx="170.5" cy="66.6" r="5.5"/>
	</g>
	<g>
		<path class="st0" d="M330.7,102.1l2.6-0.3l-0.4-3l-2.6,0.3c-0.1-0.3-0.2-0.5-0.3-0.8l2.1-1.5l-1.8-2.5l-2.1,1.5
			c-0.2-0.2-0.4-0.4-0.6-0.5l1.2-2.3l-2.7-1.4l-1.2,2.3c-0.4-0.1-0.8-0.2-1.2-0.3v-2.8h-3.1v3c-0.3,0.1-0.6,0.2-0.9,0.3l-1.3-2.2
			l-2.6,1.6l1.3,2.2c-0.2,0.2-0.4,0.4-0.6,0.6l-2.2-1.4l-1.6,2.6l2.2,1.4c-0.1,0.3-0.2,0.5-0.3,0.8l-2.6-0.2l-0.2,3.1l2.6,0.2
			c0,0.3,0.1,0.5,0.1,0.8l-2.4,1l1.2,2.8l2.4-1c0.2,0.2,0.3,0.4,0.5,0.7l-1.7,2l2.4,1.9l1.7-2c0.2,0.1,0.5,0.3,0.7,0.4l-0.5,2.5
			l3,0.6l0.5-2.6c0.1,0,0.1,0,0.2,0c0.2,0,0.4,0,0.6,0l0.7,2.5l2.9-0.8l-0.7-2.5c0.2-0.1,0.5-0.3,0.7-0.4l1.8,1.9l2.2-2.1l-1.8-1.9
			c0.2-0.2,0.3-0.4,0.5-0.7l2.5,0.9l1-2.9l-2.5-0.9C330.7,102.6,330.7,102.4,330.7,102.1z M322.6,106c-2.4,0-4.3-1.9-4.3-4.3
			c0-2.4,1.9-4.3,4.3-4.3c2.4,0,4.3,1.9,4.3,4.3C326.9,104,325,106,322.6,106z"/>
		<circle class="st0" cx="322.6" cy="101.6" r="4.3"/>
	</g>
	<path class="st0" d="M375.7,60.3l1.6-0.1l-0.1-2.8l-1.7,0.1c-0.1-0.5-0.3-1-0.5-1.5l1.5-0.9l-1.4-2.4l-1.6,1
		c-0.3-0.4-0.7-0.7-1.1-1l1-1.5l-2.3-1.5l-1,1.6c-0.4-0.2-0.8-0.3-1.2-0.4v-1.7h-2.8v1.5c-0.4,0-0.8,0.1-1.2,0.2l-0.6-1.3l-2.5,1.2
		l0.5,1.2c-0.5,0.3-1,0.6-1.5,1l-1-0.8l-1.7,2.2l0.9,0.7c-0.3,0.5-0.6,1.1-0.8,1.7l-1.1-0.2l-0.4,2.7l1,0.2c0,0.2,0,0.3,0,0.5
		c0,0.5,0,0.9,0.1,1.4l-1,0.3l0.9,2.6l1-0.3c0.3,0.6,0.6,1.1,1,1.6l-0.8,0.8l2,1.9l0.8-0.8c0.5,0.4,1,0.7,1.6,0.9l-0.3,1.2l2.7,0.7
		l0.3-1.3c0.3,0,0.6,0.1,1,0.1c0.2,0,0.3,0,0.5,0l0.2,1l2.7-0.4l-0.2-1.2c0.6-0.2,1.1-0.5,1.7-0.8l0.7,0.9l2.2-1.6l-0.8-1.1
		c0.4-0.4,0.7-0.9,1-1.4l1.2,0.6l1.2-2.5l-1.4-0.7C375.6,61.4,375.7,60.8,375.7,60.3z M366.8,61.4c-0.9,0-1.6-0.7-1.6-1.6
		c0-0.9,0.7-1.6,1.6-1.6c0.9,0,1.6,0.7,1.6,1.6C368.4,60.7,367.7,61.4,366.8,61.4z"/>
	<path class="st0" d="M506.7,98.8l1.6-0.1l-0.1-2.8l-1.7,0.1c-0.1-0.5-0.3-1-0.5-1.5l1.5-0.9l-1.4-2.4l-1.6,1
		c-0.3-0.4-0.7-0.7-1.1-1l1-1.5l-2.3-1.5l-1,1.6c-0.4-0.2-0.8-0.3-1.2-0.4v-1.7h-2.8v1.5c-0.4,0-0.8,0.1-1.2,0.2l-0.6-1.3l-2.5,1.2
		l0.5,1.2c-0.5,0.3-1,0.6-1.5,1l-1-0.8l-1.7,2.2l0.9,0.7c-0.3,0.5-0.6,1.1-0.8,1.7l-1.1-0.2l-0.4,2.7l1,0.2c0,0.2,0,0.3,0,0.5
		c0,0.5,0,0.9,0.1,1.4l-1,0.3l0.9,2.6l1-0.3c0.3,0.6,0.6,1.1,1,1.6l-0.8,0.8l2,1.9l0.8-0.8c0.5,0.4,1,0.7,1.6,0.9l-0.3,1.2l2.7,0.7
		l0.3-1.3c0.3,0,0.6,0.1,1,0.1c0.2,0,0.3,0,0.5,0l0.2,1l2.7-0.4l-0.2-1.2c0.6-0.2,1.1-0.5,1.7-0.8l0.7,0.9l2.2-1.6l-0.8-1.1
		c0.4-0.4,0.7-0.9,1-1.4l1.2,0.6l1.2-2.5l-1.4-0.7C506.6,99.9,506.7,99.3,506.7,98.8z M497.8,99.9c-0.9,0-1.6-0.7-1.6-1.6
		c0-0.9,0.7-1.6,1.6-1.6c0.9,0,1.6,0.7,1.6,1.6C499.4,99.2,498.7,99.9,497.8,99.9z"/>
	<circle class="st0" cx="349.6" cy="60.4" r="1.3"/>
	<circle class="st0" cx="453.7" cy="31.4" r="1.3"/>
	<circle class="st0" cx="184.8" cy="87.4" r="1.3"/>
	<circle class="st0" cx="45.4" cy="101.6" r="1.3"/>
	<circle class="st0" cx="163.1" cy="31" r="1.3"/>
	<circle class="st0" cx="99.7" cy="38.8" r="1.3"/>
	<circle class="st0" cx="143.4" cy="61.1" r="1.3"/>
	<circle class="st0" cx="23.8" cy="118.3" r="1.3"/>
	<circle class="st0" cx="56.8" cy="68.6" r="1.3"/>
	<circle class="st0" cx="178" cy="95.4" r="1.3"/>
	<circle class="st0" cx="442.5" cy="41.7" r="1.3"/>
	<circle class="st0" cx="384.5" cy="87.1" r="1.3"/>
	<circle class="st0" cx="323.3" cy="66.5" r="1.3"/>
	<circle class="st0" cx="45.4" cy="120.9" r="1.3"/>
	<circle class="st0" cx="110" cy="52" r="1.3"/>
	<circle class="st0" cx="495.4" cy="26" r="1.3"/>
	<circle class="st0" cx="354.8" cy="114.9" r="1.3"/>
	<circle class="st0" cx="88.3" cy="26.2" r="1.3"/>
	<circle class="st0" cx="449.5" cy="104.9" r="1.3"/>
	<circle class="st0" cx="485.7" cy="77.8" r="1.3"/>
	<g>
		<line class="st0" x1="339.7" y1="48" x2="354.8" y2="48"/>
		<line class="st0" x1="344.9" y1="43.3" x2="354.2" y2="43.3"/>
	</g>
	<g>
		<line class="st0" x1="185.6" y1="42.4" x2="170.4" y2="42.4"/>
		<line class="st0" x1="180.4" y1="37.7" x2="171" y2="37.7"/>
	</g>
	<g>
		<line class="st0" x1="13.9" y1="111.5" x2="-1.3" y2="111.5"/>
		<line class="st0" x1="8.7" y1="106.8" x2="-0.7" y2="106.8"/>
	</g>
	<line class="st0" x1="452.8" y1="94.3" x2="448.2" y2="94.3"/>
	<line class="st0" x1="36.8" y1="86.6" x2="32.2" y2="86.6"/>
	<line class="st0" x1="26.2" y1="64" x2="21.6" y2="64"/>
	<line class="st0" x1="532.4" y1="41.7" x2="527.8" y2="41.7"/>
	<line class="st0" x1="227.5" y1="41.9" x2="222.9" y2="41.9"/>
	<line class="st0" x1="282.6" y1="68.7" x2="278" y2="68.7"/>
	<line class="st0" x1="347.2" y1="107.9" x2="342.6" y2="107.9"/>
	<line class="st0" x1="72.8" y1="25" x2="68.2" y2="25"/>
	<line class="st0" x1="342" y1="86.7" x2="337.4" y2="86.7"/>
	<line class="st0" x1="169.9" y1="104.7" x2="165.3" y2="104.7"/>
	<line class="st0" x1="87.7" y1="40.1" x2="83" y2="40.1"/>
	<line class="st0" x1="176.9" y1="114.5" x2="172.3" y2="114.5"/>
	<line class="st0" x1="448.2" y1="85.3" x2="443.6" y2="85.3"/>
	<line class="st0" x1="164.2" y1="88.8" x2="159.6" y2="88.8"/>
	<line class="st0" x1="111" y1="28.3" x2="106.4" y2="28.3"/>
	<line class="st0" x1="223.4" y1="111.8" x2="218.8" y2="111.8"/>
	<line class="st0" x1="400.8" y1="70.3" x2="396.2" y2="70.3"/>
	<line class="st0" x1="141.7" y1="128.4" x2="137" y2="128.4"/>
	<line class="st0" x1="86.1" y1="88.7" x2="81.5" y2="88.7"/>
	<line class="st0" x1="102.1" y1="105.6" x2="97.5" y2="105.6"/>
	<g>
		<line class="st0" x1="370.8" y1="110.2" x2="386" y2="110.2"/>
		<line class="st0" x1="376" y1="105.6" x2="385.4" y2="105.6"/>
	</g>
	<g>
		<line class="st0" x1="45.5" y1="114.5" x2="60.7" y2="114.5"/>
		<line class="st0" x1="50.8" y1="109.8" x2="60.1" y2="109.8"/>
	</g>
	<g>
		<line class="st0" x1="95.3" y1="76.2" x2="110.5" y2="76.2"/>
		<line class="st0" x1="100.5" y1="71.5" x2="109.9" y2="71.5"/>
	</g>
</g>
<g>
	<g>
		<path class="st0" d="M695,74.4c0.9-1.5,1.5-3.2,1.5-5c0-5.2-4.2-9.5-9.5-9.5s-9.5,4.2-9.5,9.5c0,5.2,4.2,9.5,9.5,9.5
			c1.5,0,2.9-0.4,4.2-1c1.9,1.5,4.5,1.3,6.2-0.4c0.1-0.1,0.2-0.2,0.3-0.3L695,74.4z"/>
		<path class="st0" d="M675.7,66c-5.2,0-9.5,4.2-9.5,9.5c0,1.9,0.5,3.6,1.5,5l-2.7,2.7c0.1,0.1,0.2,0.2,0.3,0.3
			c1.7,1.7,4.4,1.8,6.2,0.4c1.3,0.6,2.7,1,4.2,1c5.2,0,9.5-4.2,9.5-9.5C685.2,70.3,680.9,66,675.7,66z"/>
		<g>
			<circle class="st0" cx="671.5" cy="75.9" r="1.1"/>
			<circle class="st0" cx="675.7" cy="75.9" r="1.1"/>
			<circle class="st0" cx="679.9" cy="75.9" r="1.1"/>
		</g>
		<g>
			<circle class="st0" cx="683.4" cy="69.3" r="0.9"/>
			<circle class="st0" cx="686.7" cy="69.3" r="0.9"/>
			<circle class="st0" cx="690" cy="69.3" r="0.9"/>
		</g>
	</g>
	<path class="st0" d="M608.4,24.3c-3.8,0-6.8,3.1-6.8,6.8c0,1.3,0.4,2.6,1.1,3.6l-2,2c0.1,0.1,0.1,0.1,0.2,0.2
		c1.2,1.2,3.2,1.3,4.5,0.3c0.9,0.5,2,0.7,3.1,0.7c3.8,0,6.8-3.1,6.8-6.8S612.1,24.3,608.4,24.3z"/>
	<path class="st0" d="M597.7,19.8c3.8,0,6.8,3.1,6.8,6.8c0,1.3-0.4,2.6-1.1,3.6l2,2c-0.1,0.1-0.1,0.1-0.2,0.2
		c-1.2,1.2-3.2,1.3-4.5,0.3c-0.9,0.5-2,0.7-3.1,0.7c-3.8,0-6.8-3.1-6.8-6.8S593.9,19.8,597.7,19.8z"/>
	<g>
		<path class="st0" d="M988.2,63.5c0,4.8-3.9,8.6-8.6,8.6s-8.6-3.9-8.6-8.6s3.9-12.4,8.6-12.4S988.2,58.7,988.2,63.5z"/>
		<path class="st0" d="M984.3,50.6l0.9-4.5c0.2-0.9-0.6-1.7-1.4-1.5l-3,1c-0.8,0.3-1.6,0.3-2.4,0l-3.1-1c-0.8-0.3-1.6,0.5-1.4,1.5
			l0.9,4.5"/>
		<path class="st0" d="M983.8,53.6h-8.5c-0.8,0-1.5-0.7-1.5-1.5l0,0c0-0.8,0.7-1.5,1.5-1.5h8.5c0.8,0,1.5,0.7,1.5,1.5l0,0
			C985.3,52.9,984.6,53.6,983.8,53.6z"/>
		<text transform="matrix(1 0 0 1 977.0228 66.3573)" class="st0 st1 st2">$</text>
	</g>
	<g>
		<path class="st0" d="M858,42.4c0,4.8-3.9,8.6-8.6,8.6s-8.6-3.9-8.6-8.6s3.9-12.4,8.6-12.4S858,37.6,858,42.4z"/>
		<path class="st0" d="M854.1,29.5l0.9-4.5c0.2-0.9-0.6-1.7-1.4-1.5l-3,1c-0.8,0.3-1.6,0.3-2.4,0l-3.1-1c-0.8-0.3-1.6,0.5-1.4,1.5
			l0.9,4.5"/>
		<path class="st0" d="M853.6,32.5h-8.5c-0.8,0-1.5-0.7-1.5-1.5l0,0c0-0.8,0.7-1.5,1.5-1.5h8.5c0.8,0,1.5,0.7,1.5,1.5l0,0
			C855.1,31.8,854.5,32.5,853.6,32.5z"/>
		<text transform="matrix(1 0 0 1 846.8353 45.2499)" class="st0 st1 st2">$</text>
	</g>
	<g>
		<path class="st0" d="M640.8,63.9h-25.5c-1.1,0-2-0.9-2-2V41.5c0-1.1,0.9-2,2-2h25.5c1.1,0,2,0.9,2,2v20.4
			C642.8,63,641.9,63.9,640.8,63.9z"/>
		<line class="st0" x1="613.3" y1="57.4" x2="642.8" y2="57.4"/>
		<circle class="st0" cx="628" cy="60.8" r="1.2"/>
		<rect x="624.5" y="63.9" class="st0" width="7.1" height="3.8"/>
		<path class="st0" d="M634.8,70.9h-13.5c-0.7,0-1.2-0.5-1.2-1.2v-0.8c0-0.7,0.5-1.2,1.2-1.2h13.5c0.7,0,1.2,0.5,1.2,1.2v0.8
			C635.9,70.3,635.4,70.9,634.8,70.9z"/>
	</g>
	<g>
		<path class="st0" d="M1076.4,67.3h-25.5c-1.1,0-2-0.9-2-2V45c0-1.1,0.9-2,2-2h25.5c1.1,0,2,0.9,2,2v20.4
			C1078.4,66.4,1077.5,67.3,1076.4,67.3z"/>
		<line class="st0" x1="1048.9" y1="60.9" x2="1078.4" y2="60.9"/>
		<circle class="st0" cx="1063.7" cy="64.2" r="1.2"/>
		<rect x="1060.1" y="67.3" class="st0" width="7.1" height="3.8"/>
		<path class="st0" d="M1070.4,74.3h-13.5c-0.7,0-1.2-0.5-1.2-1.2v-0.8c0-0.7,0.5-1.2,1.2-1.2h13.5c0.7,0,1.2,0.5,1.2,1.2v0.8
			C1071.6,73.8,1071,74.3,1070.4,74.3z"/>
	</g>
	<g>
		<path class="st0" d="M648.2,89.4c-0.5,0-1-0.2-1.3-0.6l-6-6c-0.7-0.7-0.7-1.9,0-2.7c0.7-0.7,1.9-0.7,2.7,0l4.5,4.5l7-9
			c0.6-0.8,1.8-1,2.7-0.3c0.8,0.6,1,1.8,0.3,2.7l-8.3,10.7c-0.3,0.4-0.8,0.7-1.4,0.7C648.3,89.4,648.3,89.4,648.2,89.4z"/>
	</g>
	<g>
		<path class="st0" d="M779.2,58.1c-0.5,0-1-0.2-1.3-0.6l-6-6c-0.7-0.7-0.7-1.9,0-2.7c0.7-0.7,1.9-0.7,2.7,0l4.5,4.5l7-9
			c0.6-0.8,1.8-1,2.7-0.3c0.8,0.6,1,1.8,0.3,2.7l-8.3,10.7c-0.3,0.4-0.8,0.7-1.4,0.7C779.2,58.1,779.2,58.1,779.2,58.1z"/>
	</g>
	<g>
		<path class="st0" d="M832.2,91.6c-0.5,0-1-0.2-1.3-0.6l-6-6c-0.7-0.7-0.7-1.9,0-2.7c0.7-0.7,1.9-0.7,2.7,0l4.5,4.5l7-9
			c0.6-0.8,1.8-1,2.7-0.3c0.8,0.6,1,1.8,0.3,2.7l-8.3,10.7c-0.3,0.4-0.8,0.7-1.4,0.7C832.2,91.6,832.2,91.6,832.2,91.6z"/>
	</g>
	<g>
		<rect x="732.3" y="99.8" class="st0" width="4" height="11.4"/>
		<rect x="740" y="96.8" class="st0" width="4" height="14.5"/>
		<rect x="747.7" y="93.5" class="st0" width="4" height="17.7"/>
		<rect x="755.4" y="88.5" class="st0" width="4" height="22.7"/>
		<path class="st0" d="M759.2,77.3c-6.4,7.6-12.4,14.4-26.9,14.4"/>
		<polyline class="st0" points="754.6,77.3 759.2,77.3 759.2,81.9 		"/>
	</g>
	<g>
		
			<rect x="828.9" y="38.8" transform="matrix(-1 -1.224647e-016 1.224647e-016 -1 1660.9877 86.9505)" class="st0" width="3.3" height="9.3"/>
		
			<rect x="822.5" y="36.3" transform="matrix(-1 -1.224647e-016 1.224647e-016 -1 1648.3019 84.4176)" class="st0" width="3.3" height="11.9"/>
		
			<rect x="816.2" y="33.6" transform="matrix(-1 -1.224647e-016 1.224647e-016 -1 1635.616 81.7214)" class="st0" width="3.3" height="14.6"/>
		
			<rect x="809.8" y="29.5" transform="matrix(-1 -1.224647e-016 1.224647e-016 -1 1622.9302 77.6087)" class="st0" width="3.3" height="18.7"/>
		<path class="st0" d="M810,20.3c5.2,6.2,10.2,11.8,22.1,11.8"/>
		<polyline class="st0" points="813.8,20.3 810,20.3 810,24.1 		"/>
	</g>
	<path class="st0" d="M871.8,25c-3.7,0-6.7,3-6.7,6.7c0,4,6.7,13.4,6.7,13.4s6.7-9.5,6.7-13.4C878.4,28,875.5,25,871.8,25z
		 M871.8,33.5c-1.4,0-2.5-1.1-2.5-2.5c0-1.4,1.1-2.5,2.5-2.5c1.4,0,2.5,1.1,2.5,2.5C874.3,32.3,873.1,33.5,871.8,33.5z"/>
	<path class="st0" d="M752,49.8c-3.7,0-6.7,3-6.7,6.7c0,4,6.7,13.4,6.7,13.4s6.7-9.5,6.7-13.4C758.7,52.8,755.7,49.8,752,49.8z
		 M752,58.3c-1.4,0-2.5-1.1-2.5-2.5c0-1.4,1.1-2.5,2.5-2.5c1.4,0,2.5,1.1,2.5,2.5C754.5,57.1,753.4,58.3,752,58.3z"/>
	<path class="st0" d="M588.6,43.2c-3.7,0-6.7,3-6.7,6.7c0,4,6.7,13.4,6.7,13.4s6.7-9.5,6.7-13.4C595.3,46.2,592.3,43.2,588.6,43.2z
		 M588.6,51.7c-1.4,0-2.5-1.1-2.5-2.5c0-1.4,1.1-2.5,2.5-2.5c1.4,0,2.5,1.1,2.5,2.5C591.1,50.5,590,51.7,588.6,51.7z"/>
	<path class="st0" d="M1020.4,88.5c-3.7,0-6.7,3-6.7,6.7c0,4,6.7,13.4,6.7,13.4s6.7-9.5,6.7-13.4
		C1027.1,91.5,1024.1,88.5,1020.4,88.5z M1020.4,96.9c-1.4,0-2.5-1.1-2.5-2.5c0-1.4,1.1-2.5,2.5-2.5c1.4,0,2.5,1.1,2.5,2.5
		C1022.9,95.8,1021.8,96.9,1020.4,96.9z"/>
	<path class="st0" d="M855.1,60.8c-3.7,0-6.7,3-6.7,6.7c0,4,6.7,13.4,6.7,13.4s6.7-9.5,6.7-13.4C861.8,63.8,858.8,60.8,855.1,60.8z
		 M855.1,69.3c-1.4,0-2.5-1.1-2.5-2.5c0-1.4,1.1-2.5,2.5-2.5c1.4,0,2.5,1.1,2.5,2.5C857.6,68.2,856.5,69.3,855.1,69.3z"/>
	<g>
		<g>
			<path class="st0" d="M959.7,84.9v5.4c0,2.6,2.1,4.6,4.6,4.6h9l7,5.1l-0.4-5.1c2.6,0,4.6-2.1,4.6-4.6v-5.4c0-2.6-2.1-4.6-4.6-4.6
				h-15.6C961.8,80.3,959.7,82.4,959.7,84.9z"/>
			<line class="st0" x1="977.1" y1="84.3" x2="964.7" y2="84.3"/>
			<line class="st0" x1="980.3" y1="90.7" x2="971.4" y2="90.7"/>
			<line class="st0" x1="980.3" y1="87.5" x2="974" y2="87.5"/>
			<line class="st0" x1="969" y1="87.5" x2="965.1" y2="87.5"/>
		</g>
		<g>
			<path class="st0" d="M967.8,91.7v6.4c0,3-2.5,5.5-5.5,5.5h-10.6l-8.2,6l0.4-6c-3,0-5.5-2.5-5.5-5.5v-6.4c0-3,2.5-5.5,5.5-5.5
				h18.4C965.4,86.2,967.8,88.6,967.8,91.7z"/>
			<line class="st0" x1="947.2" y1="90.9" x2="961.9" y2="90.9"/>
			<line class="st0" x1="943.5" y1="98.5" x2="954" y2="98.5"/>
			<line class="st0" x1="943.5" y1="94.7" x2="950.9" y2="94.7"/>
			<line class="st0" x1="956.7" y1="94.7" x2="961.4" y2="94.7"/>
		</g>
	</g>
	<g>
		<g>
			<path class="st0" d="M791.2,66.1v5.4c0,2.6,2.1,4.6,4.6,4.6h9l7,5.1l-0.4-5.1c2.6,0,4.6-2.1,4.6-4.6v-5.4c0-2.6-2.1-4.6-4.6-4.6
				h-15.6C793.3,61.4,791.2,63.5,791.2,66.1z"/>
			<line class="st0" x1="808.7" y1="65.4" x2="796.2" y2="65.4"/>
			<line class="st0" x1="811.8" y1="71.8" x2="802.9" y2="71.8"/>
			<line class="st0" x1="811.8" y1="68.6" x2="805.6" y2="68.6"/>
			<line class="st0" x1="800.6" y1="68.6" x2="796.6" y2="68.6"/>
		</g>
		<g>
			<path class="st0" d="M799.4,72.8v6.4c0,3-2.5,5.5-5.5,5.5h-10.6l-8.2,6l0.4-6c-3,0-5.5-2.5-5.5-5.5v-6.4c0-3,2.5-5.5,5.5-5.5
				h18.4C796.9,67.3,799.4,69.8,799.4,72.8z"/>
			<line class="st0" x1="778.7" y1="72" x2="793.4" y2="72"/>
			<line class="st0" x1="775" y1="79.6" x2="785.5" y2="79.6"/>
			<line class="st0" x1="775" y1="75.8" x2="782.4" y2="75.8"/>
			<line class="st0" x1="788.3" y1="75.8" x2="793" y2="75.8"/>
		</g>
	</g>
	<g>
		<circle class="st0" cx="608.2" cy="83.7" r="13.1"/>
		<circle class="st0" cx="608.2" cy="83.7" r="9.6"/>
		<line class="st0" x1="608.2" y1="70.6" x2="608.2" y2="74.1"/>
		<line class="st0" x1="619.4" y1="77" x2="616.4" y2="78.8"/>
		<line class="st0" x1="599.8" y1="79" x2="596.9" y2="77.1"/>
		<line class="st0" x1="598.6" y1="74.8" x2="601" y2="77.3"/>
		<text transform="matrix(1 0 0 1 604.8871 86.5741)" class="st0 st1 st3">%</text>
	</g>
	<g>
		<circle class="st0" cx="1064.8" cy="15.5" r="13.1"/>
		<circle class="st0" cx="1064.8" cy="15.5" r="9.6"/>
		<line class="st0" x1="1064.8" y1="2.4" x2="1064.8" y2="5.9"/>
		<line class="st0" x1="1076" y1="8.8" x2="1073.1" y2="10.6"/>
		<line class="st0" x1="1056.5" y1="10.8" x2="1053.5" y2="8.9"/>
		<line class="st0" x1="1055.2" y1="6.6" x2="1057.7" y2="9.1"/>
		<text transform="matrix(1 0 0 1 1061.5219 18.3593)" class="st0 st1 st3">%</text>
	</g>
	<g>
		<g>
			<path class="st0" d="M672.2,105.2v21.5h0.1c1.8,0,3.2-1.3,3.5-3l2.7-18.9"/>
			<g>
				<circle class="st0" cx="686.4" cy="100" r="4.4"/>
				<path class="st0" d="M684,90.6v18.9c0-1.2-0.5-2.3-1.3-3.1c-0.8-0.8-1.9-1.3-3.1-1.3h-7.9c-2.8,0-5.1-2.3-5.1-5
					c0-1.4,0.6-2.7,1.5-3.6c0.9-0.9,2.2-1.5,3.6-1.5h7.9C682.1,95,684,93,684,90.6z"/>
				<line class="st0" x1="674.9" y1="95" x2="674.9" y2="104.8"/>
				<path class="st0" d="M685.2,111.5L685.2,111.5c-0.7,0-1.2-0.5-1.2-1.2V89.4c0-0.7,0.5-1.2,1.2-1.2l0,0c0.7,0,1.2,0.5,1.2,1.2
					v20.9C686.4,110.9,685.9,111.5,685.2,111.5z"/>
			</g>
		</g>
		<g>
			<g>
				<line class="st0" x1="701.1" y1="87.2" x2="704.9" y2="84.3"/>
				<line class="st0" x1="692" y1="94.1" x2="697.6" y2="89.8"/>
			</g>
			<g>
				<line class="st0" x1="697.5" y1="95.6" x2="693.2" y2="97.8"/>
				<line class="st0" x1="707.6" y1="90.5" x2="701.3" y2="93.7"/>
			</g>
			<g>
				<line class="st0" x1="701.1" y1="112.4" x2="704.9" y2="115.3"/>
				<line class="st0" x1="692" y1="105.5" x2="697.6" y2="109.8"/>
			</g>
			<g>
				<line class="st0" x1="697.5" y1="104" x2="693.2" y2="101.8"/>
				<line class="st0" x1="707.6" y1="109.2" x2="701.3" y2="106"/>
			</g>
			<line class="st0" x1="695.9" y1="99.8" x2="698.5" y2="99.8"/>
			<line class="st0" x1="701.3" y1="99.8" x2="706.8" y2="99.8"/>
			<line class="st0" x1="710.1" y1="99.9" x2="712.4" y2="99.9"/>
		</g>
	</g>
	<g>
		<g>
			<path class="st0" d="M934,62L934,62c-0.9,0-1.6-0.7-1.6-1.6v-6.4c0-0.9,0.7-1.6,1.6-1.6l0,0c0.9,0,1.6,0.7,1.6,1.6v6.4
				C935.6,61.2,934.9,62,934,62z"/>
			<path class="st0" d="M959.4,62L959.4,62c-0.9,0-1.6-0.7-1.6-1.6v-6.4c0-0.9,0.7-1.6,1.6-1.6l0,0c0.9,0,1.6,0.7,1.6,1.6v6.4
				C961,61.2,960.3,62,959.4,62z"/>
		</g>
		<path class="st0" d="M934,52.3c0-7,5.7-12.7,12.7-12.7s12.7,5.7,12.7,12.7"/>
		<g>
			<path class="st0" d="M958.4,62l-1.6,4.2c-1.4,3.6-5.3,5.6-9,4.5l0,0"/>
			<circle class="st0" cx="946.7" cy="69.9" r="1.9"/>
		</g>
	</g>
	<g>
		<path class="st0" d="M828,121.2v1.8c0,1.7,1.4,3,3,3h19.7"/>
		<path class="st0" d="M833.7,121.2V98.8h19.8v24.5c0,1.5-1.2,2.7-2.7,2.7h0c-1.5,0-2.7-1.2-2.7-2.7v-2.1h-20l0,0"/>
		<g>
			<line class="st0" x1="837.3" y1="103.9" x2="848" y2="103.9"/>
			<line class="st0" x1="837.3" y1="114.5" x2="848" y2="114.5"/>
			<line class="st0" x1="837.3" y1="111" x2="848" y2="111"/>
			<line class="st0" x1="837.3" y1="107.4" x2="844.6" y2="107.4"/>
		</g>
	</g>
	<g>
		<path class="st0" d="M1038.3,45.9h-31.2c-1,0-1.8-0.8-1.8-1.8V26.7c0-1,0.8-1.8,1.8-1.8h31.2c1,0,1.8,0.8,1.8,1.8v17.4
			C1040.1,45.1,1039.3,45.9,1038.3,45.9z"/>
		<line class="st0" x1="1009" y1="41.7" x2="1018" y2="41.7"/>
		<line class="st0" x1="1022.2" y1="41.7" x2="1028.9" y2="41.7"/>
		<line class="st0" x1="1033.1" y1="41.7" x2="1036.5" y2="41.7"/>
		<g>
			<rect x="1009.8" y="29.5" class="st0" width="6.2" height="6.2"/>
			<line class="st0" x1="1014" y1="29.5" x2="1014" y2="32"/>
			<line class="st0" x1="1011.7" y1="32.6" x2="1011.7" y2="35.1"/>
		</g>
		<line class="st0" x1="1036.5" y1="24.9" x2="1036.5" y2="45.9"/>
	</g>
	<g>
		<path class="st0" d="M573.1,90.2h-31.2c-1,0-1.8-0.8-1.8-1.8V70.9c0-1,0.8-1.8,1.8-1.8h31.2c1,0,1.8,0.8,1.8,1.8v17.4
			C575,89.4,574.1,90.2,573.1,90.2z"/>
		<line class="st0" x1="543.8" y1="85.9" x2="552.9" y2="85.9"/>
		<line class="st0" x1="557.1" y1="85.9" x2="563.7" y2="85.9"/>
		<line class="st0" x1="568" y1="85.9" x2="571.3" y2="85.9"/>
		<g>
			<rect x="544.7" y="73.7" class="st0" width="6.2" height="6.2"/>
			<line class="st0" x1="548.8" y1="73.7" x2="548.8" y2="76.2"/>
			<line class="st0" x1="546.6" y1="76.9" x2="546.6" y2="79.3"/>
		</g>
		<line class="st0" x1="571.3" y1="69.1" x2="571.3" y2="90.2"/>
	</g>
	<path class="st0" d="M885.7,57.9l1.2,2.8c0.4,0.9,1.2,1.5,2.2,1.5c0.2-0.3,0.5-0.6,0.9-0.8c0.4-0.2,0.8-0.2,1.2-0.1
		c0.6,0.1,1.1,0.5,1.4,1.1l1.2,2.8c0.4,1,0,2.1-1,2.6l-0.6,0.3c-2.9,1.2-6.2-0.1-7.5-3l-3.7-8.5c-1.2-2.9,0.1-6.2,3-7.5l0.6-0.3
		c1-0.4,2.1,0,2.6,1l1.2,2.8c0.3,0.6,0.2,1.3-0.1,1.8c-0.2,0.3-0.5,0.6-0.9,0.8c-0.4,0.2-0.8,0.2-1.2,0.1
		C885.5,56,885.3,57,885.7,57.9z"/>
	<g>
		<g>
			<path class="st0" d="M910.3,73.2C910.3,73.2,910.3,73.2,910.3,73.2l1.3,8.7l6.8-5.6C916.3,74.4,913.5,73.2,910.3,73.2z"/>
			<path class="st0" d="M898.3,83.5h9.9l-1.6-9.8C902.2,75.2,899,78.9,898.3,83.5z"/>
			<path class="st0" d="M915.6,83.5h6.7c-0.2-1.5-0.8-3-1.5-4.3L915.6,83.5z"/>
			<path class="st0" d="M910.3,97.7C910.3,97.7,910.4,97.7,910.3,97.7l-1.4-9l-7.5,5.2C903.7,96.2,906.8,97.7,910.3,97.7z"/>
			<path class="st0" d="M922.4,87.3h-9.9l1.6,9.8C918.4,95.7,921.7,91.9,922.4,87.3z"/>
		</g>
		<g>
			<polyline class="st0" points="898.2,86.8 896.7,89.5 899.4,90.9 			"/>
			<line class="st0" x1="898.1" y1="89" x2="907.9" y2="86.5"/>
		</g>
	</g>
	<g>
		<circle class="st0" cx="1005.7" cy="80.8" r="1.9"/>
		<circle class="st0" cx="1020.4" cy="79.8" r="1.6"/>
		<polygon class="st0" points="1020.9,69.8 1005.3,69.8 1002.9,59.7 1023.3,59.7 		"/>
		<path class="st0" d="M1005.8,80.5l2.4-2.4h13.1c1.1,0,2-0.9,2-2l0,0c0-1.1-0.9-2-2-2h-15l-5.1-21.5h-4.9"/>
		<line class="st0" x1="1003.7" y1="62.9" x2="1016.8" y2="62.9"/>
		<line class="st0" x1="1004.4" y1="66.3" x2="1013.1" y2="66.3"/>
	</g>
	<g>
		<circle class="st0" cx="798.8" cy="125.5" r="1.9"/>
		<circle class="st0" cx="813.5" cy="124.5" r="1.6"/>
		<polygon class="st0" points="814,114.5 798.4,114.5 796,104.4 816.5,104.4 		"/>
		<path class="st0" d="M799,125.3l2.4-2.4h13.1c1.1,0,2-0.9,2-2v0c0-1.1-0.9-2-2-2h-15l-5.1-21.5h-4.9"/>
		<line class="st0" x1="796.8" y1="107.6" x2="809.9" y2="107.6"/>
		<line class="st0" x1="797.6" y1="111" x2="806.2" y2="111"/>
	</g>
	<g>
		<circle class="st0" cx="565" cy="50.2" r="1.9"/>
		<circle class="st0" cx="550.3" cy="49.2" r="1.6"/>
		<polygon class="st0" points="549.8,39.2 565.4,39.2 567.8,29.1 547.3,29.1 		"/>
		<path class="st0" d="M564.8,49.9l-2.4-2.4h-13.1c-1.1,0-2-0.9-2-2l0,0c0-1.1,0.9-2,2-2h15l5.1-21.5h4.9"/>
		<line class="st0" x1="566.9" y1="32.3" x2="553.9" y2="32.3"/>
		<line class="st0" x1="566.2" y1="35.7" x2="557.5" y2="35.7"/>
	</g>
	<g>
		<path class="st0" d="M728.4,59.4l3.3-0.4l-0.5-3.9l-3.3,0.4c-0.1-0.3-0.2-0.7-0.4-1l2.7-1.9l-2.2-3.2l-2.7,1.9
			c-0.2-0.2-0.5-0.5-0.8-0.7l1.5-3l-3.5-1.8l-1.5,3c-0.5-0.1-1-0.2-1.5-0.3V45h-3.9v3.8c-0.4,0.1-0.7,0.2-1.1,0.3l-1.7-2.9l-3.4,2
			l1.7,2.9c-0.3,0.2-0.5,0.5-0.7,0.7l-2.8-1.8l-2.1,3.3l2.8,1.8c-0.1,0.3-0.2,0.7-0.3,1l-3.3-0.3l-0.3,3.9l3.3,0.3
			c0,0.4,0.1,0.7,0.2,1l-3.1,1.3l1.5,3.6l3.1-1.3c0.2,0.3,0.4,0.6,0.6,0.8l-2.1,2.6l3,2.5l2.1-2.6c0.3,0.2,0.6,0.3,0.9,0.5l-0.7,3.3
			l3.8,0.8l0.7-3.3c0.1,0,0.2,0,0.2,0c0.3,0,0.5,0,0.8,0l0.9,3.2l3.8-1l-0.9-3.2c0.3-0.2,0.6-0.3,0.9-0.5l2.3,2.4l2.9-2.6l-2.3-2.4
			c0.2-0.3,0.4-0.6,0.6-0.9l3.1,1.1l1.3-3.7l-3.1-1.1C728.3,60.1,728.3,59.8,728.4,59.4z M718,64.4c-3.1,0-5.5-2.5-5.5-5.5
			c0-3.1,2.5-5.5,5.5-5.5c3.1,0,5.5,2.5,5.5,5.5C723.5,61.9,721,64.4,718,64.4z"/>
		<circle class="st0" cx="718" cy="58.8" r="5.5"/>
	</g>
	<g>
		<path class="st0" d="M878.1,94.3l2.6-0.3l-0.4-3l-2.6,0.3c-0.1-0.3-0.2-0.5-0.3-0.8l2.1-1.5l-1.8-2.5l-2.1,1.5
			c-0.2-0.2-0.4-0.4-0.6-0.5l1.2-2.3l-2.7-1.4l-1.2,2.3c-0.4-0.1-0.8-0.2-1.2-0.3v-2.8h-3.1v3c-0.3,0.1-0.6,0.2-0.9,0.3l-1.3-2.2
			l-2.6,1.6l1.3,2.2c-0.2,0.2-0.4,0.4-0.6,0.6l-2.2-1.4l-1.6,2.6l2.2,1.4c-0.1,0.3-0.2,0.5-0.3,0.8l-2.6-0.2l-0.2,3.1l2.6,0.2
			c0,0.3,0.1,0.5,0.1,0.8l-2.4,1l1.2,2.8l2.4-1c0.2,0.2,0.3,0.4,0.5,0.7l-1.7,2l2.4,1.9l1.7-2c0.2,0.1,0.5,0.3,0.7,0.4l-0.5,2.5
			l3,0.6l0.5-2.6c0.1,0,0.1,0,0.2,0c0.2,0,0.4,0,0.6,0l0.7,2.5l2.9-0.8l-0.7-2.5c0.2-0.1,0.5-0.3,0.7-0.4l1.8,1.9l2.2-2.1l-1.8-1.9
			c0.2-0.2,0.3-0.4,0.5-0.7l2.5,0.9l1-2.9l-2.5-0.9C878.1,94.8,878.1,94.5,878.1,94.3z M870,98.2c-2.4,0-4.3-1.9-4.3-4.3
			c0-2.4,1.9-4.3,4.3-4.3c2.4,0,4.3,1.9,4.3,4.3C874.4,96.2,872.4,98.2,870,98.2z"/>
		<circle class="st0" cx="870" cy="93.8" r="4.3"/>
	</g>
	<path class="st0" d="M923.2,52.4l1.6-0.1l-0.1-2.8l-1.7,0.1c-0.1-0.5-0.3-1-0.5-1.5l1.5-0.9l-1.4-2.4l-1.6,1
		c-0.3-0.4-0.7-0.7-1.1-1l1-1.5l-2.3-1.5l-1,1.6c-0.4-0.2-0.8-0.3-1.2-0.4v-1.7h-2.8v1.5c-0.4,0-0.8,0.1-1.2,0.2l-0.6-1.3l-2.5,1.2
		l0.5,1.2c-0.5,0.3-1,0.6-1.5,1l-1-0.8l-1.7,2.2l0.9,0.7c-0.3,0.5-0.6,1.1-0.8,1.7l-1.1-0.2l-0.4,2.7l1,0.2c0,0.2,0,0.3,0,0.5
		c0,0.5,0,0.9,0.1,1.4l-1,0.3l0.9,2.6l1-0.3c0.3,0.6,0.6,1.1,1,1.6l-0.8,0.8l2,1.9l0.8-0.8c0.5,0.4,1,0.7,1.6,0.9l-0.3,1.2l2.7,0.7
		l0.3-1.3c0.3,0,0.6,0.1,1,0.1c0.2,0,0.3,0,0.5,0l0.2,1l2.7-0.4l-0.2-1.2c0.6-0.2,1.1-0.5,1.7-0.8l0.7,0.9l2.2-1.6l-0.8-1.1
		c0.4-0.4,0.7-0.9,1-1.4l1.2,0.6l1.2-2.5l-1.4-0.7C923.1,53.6,923.1,53,923.2,52.4z M914.3,53.6c-0.9,0-1.6-0.7-1.6-1.6
		c0-0.9,0.7-1.6,1.6-1.6c0.9,0,1.6,0.7,1.6,1.6C915.9,52.9,915.1,53.6,914.3,53.6z"/>
	<path class="st0" d="M1054.2,91l1.6-0.1l-0.1-2.8l-1.7,0.1c-0.1-0.5-0.3-1-0.5-1.5l1.5-0.9l-1.4-2.4l-1.6,1c-0.3-0.4-0.7-0.7-1.1-1
		l1-1.5l-2.3-1.5l-1,1.6c-0.4-0.2-0.8-0.3-1.2-0.4V80h-2.8v1.5c-0.4,0-0.8,0.1-1.2,0.2l-0.6-1.3l-2.5,1.2l0.5,1.2
		c-0.5,0.3-1,0.6-1.5,1l-1-0.8l-1.7,2.2l0.9,0.7c-0.3,0.5-0.6,1.1-0.8,1.7l-1.1-0.2l-0.4,2.7l1,0.2c0,0.2,0,0.3,0,0.5
		c0,0.5,0,0.9,0.1,1.4l-1,0.3l0.9,2.6l1-0.3c0.3,0.6,0.6,1.1,1,1.6l-0.8,0.8l2,1.9l0.8-0.8c0.5,0.4,1,0.7,1.6,0.9l-0.3,1.2l2.7,0.7
		l0.3-1.3c0.3,0,0.6,0.1,1,0.1c0.2,0,0.3,0,0.5,0l0.2,1l2.7-0.4l-0.2-1.2c0.6-0.2,1.1-0.5,1.7-0.8l0.7,0.9l2.2-1.6l-0.8-1.1
		c0.4-0.4,0.7-0.9,1-1.4l1.2,0.6l1.2-2.5l-1.4-0.7C1054.1,92.1,1054.1,91.5,1054.2,91z M1045.2,92.1c-0.9,0-1.6-0.7-1.6-1.6
		c0-0.9,0.7-1.6,1.6-1.6c0.9,0,1.6,0.7,1.6,1.6C1046.9,91.4,1046.1,92.1,1045.2,92.1z"/>
	<circle class="st0" cx="897.1" cy="52.6" r="1.3"/>
	<circle class="st0" cx="1001.2" cy="23.5" r="1.3"/>
	<circle class="st0" cx="732.3" cy="79.6" r="1.3"/>
	<circle class="st0" cx="592.8" cy="93.8" r="1.3"/>
	<circle class="st0" cx="710.5" cy="23.2" r="1.3"/>
	<circle class="st0" cx="647.1" cy="30.9" r="1.3"/>
	<circle class="st0" cx="690.9" cy="53.3" r="1.3"/>
	<circle class="st0" cx="571.2" cy="110.4" r="1.3"/>
	<circle class="st0" cx="604.2" cy="60.8" r="1.3"/>
	<circle class="st0" cx="725.4" cy="87.6" r="1.3"/>
	<circle class="st0" cx="990" cy="33.9" r="1.3"/>
	<circle class="st0" cx="931.9" cy="79.3" r="1.3"/>
	<circle class="st0" cx="870.8" cy="58.7" r="1.3"/>
	<circle class="st0" cx="592.8" cy="113.1" r="1.3"/>
	<circle class="st0" cx="657.4" cy="44.2" r="1.3"/>
	<circle class="st0" cx="1042.9" cy="18.2" r="1.3"/>
	<circle class="st0" cx="902.3" cy="107.1" r="1.3"/>
	<circle class="st0" cx="635.7" cy="18.3" r="1.3"/>
	<circle class="st0" cx="996.9" cy="97.1" r="1.3"/>
	<circle class="st0" cx="1033.1" cy="69.9" r="1.3"/>
	<g>
		<line class="st0" x1="887.1" y1="40.2" x2="902.3" y2="40.2"/>
		<line class="st0" x1="892.3" y1="35.5" x2="901.7" y2="35.5"/>
	</g>
	<g>
		<line class="st0" x1="733" y1="34.6" x2="717.8" y2="34.6"/>
		<line class="st0" x1="727.8" y1="29.9" x2="718.4" y2="29.9"/>
	</g>
	<g>
		<line class="st0" x1="561.4" y1="103.7" x2="546.2" y2="103.7"/>
		<line class="st0" x1="556.1" y1="99" x2="546.8" y2="99"/>
	</g>
	<line class="st0" x1="1000.2" y1="86.5" x2="995.6" y2="86.5"/>
	<line class="st0" x1="584.3" y1="78.8" x2="579.6" y2="78.8"/>
	<line class="st0" x1="573.6" y1="56.1" x2="569" y2="56.1"/>
	<line class="st0" x1="1079.9" y1="33.9" x2="1075.3" y2="33.9"/>
	<line class="st0" x1="775" y1="34.1" x2="770.4" y2="34.1"/>
	<line class="st0" x1="830" y1="60.9" x2="825.4" y2="60.9"/>
	<line class="st0" x1="894.6" y1="100.1" x2="890" y2="100.1"/>
	<line class="st0" x1="620.2" y1="17.2" x2="615.6" y2="17.2"/>
	<line class="st0" x1="889.4" y1="78.9" x2="884.8" y2="78.9"/>
	<line class="st0" x1="717.4" y1="96.9" x2="712.8" y2="96.9"/>
	<line class="st0" x1="635.1" y1="32.3" x2="630.5" y2="32.3"/>
	<line class="st0" x1="724.3" y1="106.7" x2="719.7" y2="106.7"/>
	<line class="st0" x1="995.6" y1="77.5" x2="991" y2="77.5"/>
	<line class="st0" x1="711.7" y1="81" x2="707.1" y2="81"/>
	<line class="st0" x1="658.4" y1="20.5" x2="653.8" y2="20.5"/>
	<line class="st0" x1="770.9" y1="104" x2="766.3" y2="104"/>
	<line class="st0" x1="948.2" y1="62.5" x2="943.6" y2="62.5"/>
	<line class="st0" x1="689.1" y1="120.6" x2="684.5" y2="120.6"/>
	<line class="st0" x1="633.5" y1="80.9" x2="628.9" y2="80.9"/>
	<line class="st0" x1="649.6" y1="97.8" x2="645" y2="97.8"/>
	<g>
		<line class="st0" x1="918.2" y1="102.4" x2="933.4" y2="102.4"/>
		<line class="st0" x1="923.4" y1="97.7" x2="932.8" y2="97.7"/>
	</g>
	<g>
		<line class="st0" x1="593" y1="106.7" x2="608.2" y2="106.7"/>
		<line class="st0" x1="598.2" y1="102" x2="607.6" y2="102"/>
	</g>
	<g>
		<line class="st0" x1="642.7" y1="68.4" x2="657.9" y2="68.4"/>
		<line class="st0" x1="647.9" y1="63.7" x2="657.3" y2="63.7"/>
	</g>
</g>
</svg>
